<svg id="EDFS_Footer.svg" xmlns="http://www.w3.org/2000/svg" width="806" height="70" viewBox="0 0 806 70">
  <defs>
    <style>
      .cls-1 {
        fill: none;
      }

      .cls-2 {
        fill: #cacaca;
      }

      .cls-2, .cls-3, .cls-4, .cls-5, .cls-6, .cls-7 {
        fill-rule: evenodd;
      }

      .cls-3 {
        fill: #0e194b;
      }

      .cls-4 {
        fill: #fff;
      }

      .cls-5 {
        fill: #234771;
      }

      .cls-7 {
        fill: #97999a;
      }
    </style>
  </defs>
  <rect id="BG" class="cls-1" width="806" height="70"/>
  <path class="cls-2" d="M102.875,2.6h1.347V67.131h-1.347V2.6Z"/>
  <path id="Shape_1_copy" data-name="Shape 1 copy" class="cls-2" d="M326.875,1.6h1.347V66.131h-1.347V1.6Z"/>
  <path id="Shape_1_copy_2" data-name="Shape 1 copy 2" class="cls-2" d="M544.875,2.6h1.347V67.131h-1.347V2.6Z"/>
  <path id="GAP2" class="cls-3" d="M36.175,1.9H3.875V66.365h64.6V1.9h-32.3Zm12.66,20.408h-4.22v0.324h1.136V44.824c0,0.486-.162.648-0.974,0.648H44.615V45.8h4.869V45.472H49a1.038,1.038,0,0,1-1.136-.81v-9.07h1.461c2.11,0,3.246-.972,3.246-2.268V24.9C52.406,23.606,51.432,22.311,48.835,22.311ZM50.3,33.81A1.419,1.419,0,0,1,49,35.268H47.7V22.8h1.136A1.453,1.453,0,0,1,50.3,24.254h0V33.81h0ZM39.746,44.5h0L36.986,22.311H35.2L32.442,44.338a1.253,1.253,0,0,1-1.136,1.3H30.981v0.324h3.246V45.634a0.865,0.865,0,0,1-1.136-.81V44.5l0.974-8.908H36.5l1.136,9.232c0,0.486,0,.81-0.649.81H36.662v0.324h4.22V45.634H40.72a1.084,1.084,0,0,1-.974-1.134h0Zm-5.681-9.232L35.2,25.712l1.3,9.556H34.065Zm-10.388.324h1.3V44.5a1.193,1.193,0,0,1-1.3,1.3h0a1.4,1.4,0,0,1-1.3-1.3h0V24.416c0-.486.162-1.782,0.974-1.782a2.285,2.285,0,0,1,1.623,1.782,25.1,25.1,0,0,1,.487,5.021,0.43,0.43,0,0,0,.487.486h0.811v-7.45H26.112v0.162c0,0.324-.162.324-0.487,0.162a5.462,5.462,0,0,0-2.273-.81,2.864,2.864,0,0,0-3.084,2.43V42.394c0,3.077,1.623,3.563,3.246,3.563a3.884,3.884,0,0,0,2.272-.81c0.325-.162.487,0.162,0.487,0.648h0.487v-10.2h0.974V35.106H23.352l0.325,0.486h0Z"/>
  <path id="GAP1" class="cls-4" d="M48.591,23.35H44.372v0.324h1.136V45.889c0,0.486-.162.649-0.974,0.649H44.372v0.324h4.868V46.537H48.754a1.038,1.038,0,0,1-1.136-.811v-9.08h1.461c2.11,0,3.246-.973,3.246-2.27V25.945C52.161,24.647,51.188,23.35,48.591,23.35Zm1.46,11.513a1.42,1.42,0,0,1-1.3,1.459h-1.3V23.837h1.136a1.454,1.454,0,0,1,1.46,1.459h0v9.567h0ZM39.5,45.565h0L36.745,23.35H34.96L32.2,45.4a1.253,1.253,0,0,1-1.136,1.3H30.741v0.324h3.246V46.7a0.865,0.865,0,0,1-1.136-.811V45.565l0.974-8.918h2.434l1.136,9.242c0,0.486,0,.811-0.649.811H36.421v0.324H40.64V46.7H40.477a1.085,1.085,0,0,1-.974-1.135h0Zm-5.68-9.242,1.136-9.567,1.3,9.567H33.824Zm-10.386.324h1.3v8.918a1.194,1.194,0,0,1-1.3,1.3h0a1.4,1.4,0,0,1-1.3-1.3h0V25.458c0-.487.162-1.784,0.974-1.784a2.286,2.286,0,0,1,1.623,1.784,25.152,25.152,0,0,1,.487,5.027,0.43,0.43,0,0,0,.487.486h0.811V23.512H25.873v0.162c0,0.324-.162.324-0.487,0.162a5.455,5.455,0,0,0-2.272-.811,2.864,2.864,0,0,0-3.083,2.432v18c0,3.081,1.623,3.567,3.246,3.567a3.879,3.879,0,0,0,2.272-.811c0.325-.162.487,0.162,0.487,0.649h0.487V36.646H27.5V36.16H23.114l0.325,0.486h0Z"/>
  <path id="ON" class="cls-5" d="M290.659,33.221l-4.935-11.869h-7.073l8.389,18.535V48.5h7.074V39.887L302.5,21.352H295.43Zm-25.5,7.154-4.277-19.023h-7.073L261.049,48.5H269.6l7.238-27.152h-7.073Zm-17.6-19.023h-9.706L230.287,48.5h6.58l1.481-5.365H247.4l1.481,5.365h6.416Zm-7.9,16.909,3.125-11.381,3.126,11.381h-6.251Zm-19.247-1.138-8.883-15.771h-6.415V48.5h6.415V32.9L220.417,48.5h6.416V21.352h-6.416V37.123h0Zm-26.649-2.276h0a16.649,16.649,0,0,0-3.454-10.568c-2.632-2.927-5.429-2.927-8.883-2.927h-8.883V48.5h8.883c3.454,0,6.251,0,8.883-2.927a15.065,15.065,0,0,0,3.454-10.406h0V34.847h0Zm-8.389,6.341a5.043,5.043,0,0,1-4.606,2.114h-1.645V26.555h1.645a4.608,4.608,0,0,1,4.606,1.951,12.042,12.042,0,0,1,1.48,6.341,13.846,13.846,0,0,1-1.48,6.341h0ZM158.565,21.352h-6.416V48.5H168.6V43.139H158.4V21.352h0.164Zm-21.879-.488c-7.4,0-12.008,5.691-12.008,14.145h0c0,7.967,4.606,13.82,11.844,13.82h0c7.4,0,11.844-5.853,12.008-13.982C148.7,26.555,144.089,20.864,136.686,20.864Zm0,22.762c-3.783,0-5.264-5.69-5.264-8.617s0.823-8.942,5.264-8.942,5.264,6.016,5.264,8.942-1.316,8.617-5.264,8.617h0Z"/>
  <path id="BR" class="cls-6" d="M377.155,14.359c0,4.11-4.476,4.439-6.465,4.439h-1.658V10.413h2.653C374.337,10.248,377.155,11.4,377.155,14.359Zm5.8,10.852c0-5.426-7.791-5.919-7.791-5.919s5.305-1.315,5.305-5.261c0-4.439-5.968-5.1-8.785-5.1h-7.46a1.581,1.581,0,0,1,1.161,1.48V29.979a1.581,1.581,0,0,1-1.161,1.48h8.62c8.454,0,10.111-3.617,10.111-6.248h0Zm-3.812-.329c0,4.933-5.8,5.261-8.288,5.261h-1.824V20.278h3.15c3.315-.164,6.962.822,6.962,4.6h0Zm20.388-1.48h-8.951c1.658-3.617,4.475-9.207,4.475-9.207s2.321,4.932,4.476,9.207h0Zm9.448,8.057a2.848,2.848,0,0,1-1.989-1.644L396.217,8.44s-10.112,20.223-10.775,21.374a4.393,4.393,0,0,1-1.823,1.644h4.807a1,1,0,0,1-.994-1.151,0.6,0.6,0,0,1,.165-0.493c0.166-.329,1.161-2.631,2.487-5.1h10.277c1.16,2.631,2.32,4.6,2.486,5.1,0.332,0.822,0,1.151-.994,1.644h7.127Zm23.372-21.046v21.7s-18.9-19.073-18.9-19.4V29.979a1.582,1.582,0,0,0,1.161,1.48h-3.978a1.579,1.579,0,0,0,.994-1.48V11.728a1.32,1.32,0,0,0-.5-1.48A4.3,4.3,0,0,0,409.311,9.1h5.471L430.363,25.21V10.577a1.439,1.439,0,0,0-1-1.48h3.978a1.251,1.251,0,0,0-.994,1.315h0ZM450.585,23.4H441.8c1.658-3.617,4.475-9.207,4.475-9.207s2.321,4.932,4.31,9.207h0Zm9.448,8.057a2.851,2.851,0,0,1-1.989-1.644L447.27,8.44S437.159,28.663,436.5,29.814a4.4,4.4,0,0,1-1.824,1.644h4.807a1,1,0,0,1-.994-1.151,0.6,0.6,0,0,1,.166-0.493c0.165-.329,1.16-2.631,2.486-5.1h10.277c1.16,2.631,2.321,4.6,2.486,5.1,0.332,0.822,0,1.151-.994,1.644h7.127Zm23.538-21.046v21.7s-18.9-19.073-18.9-19.4V29.979a1.581,1.581,0,0,0,1.16,1.48h-3.978a1.438,1.438,0,0,0,.994-1.48V11.728a1.32,1.32,0,0,0-.5-1.48A4.294,4.294,0,0,0,460.531,9.1H466L481.582,25.21V10.577a1.439,1.439,0,0,0-1-1.48h3.978A1.434,1.434,0,0,0,483.571,10.413Zm17.9,12.989h-8.951c1.657-3.617,4.475-9.207,4.475-9.207s2.487,4.932,4.476,9.207h0Zm9.448,8.057a2.848,2.848,0,0,1-1.989-1.644L498.157,8.44s-10.111,20.223-10.774,21.374a4.393,4.393,0,0,1-1.823,1.644h4.807a1,1,0,0,1-1-1.151,0.6,0.6,0,0,1,.166-0.493c0.166-.329,1.161-2.631,2.487-5.1H502.3c1.16,2.631,2.32,4.6,2.486,5.1,0.332,0.822,0,1.151-1,1.644h7.128ZM455.226,41.817c0,4.275-4.475,4.6-6.3,4.6H447.27v-8.55h2.652C452.408,37.706,455.226,38.857,455.226,41.817ZM461.028,53c0-5.59-7.791-6.084-7.791-6.084s5.3-1.315,5.3-5.261c0-4.439-5.968-5.261-8.62-5.261h-7.459a1.581,1.581,0,0,1,1.16,1.48V57.765a1.581,1.581,0,0,1-1.16,1.48h8.453c8.454,0,10.112-3.617,10.112-6.248h0Zm-3.813-.329c0,5.1-5.8,5.261-8.287,5.261H447.1V47.9h3.15c3.48-.164,6.961.822,6.961,4.768h0ZM366.546,42.146c0,3.617-2.984,5.1-5.967,5.1h-2.321V38.035a23.5,23.5,0,0,1,2.984-.164C365.386,37.706,366.546,40.5,366.546,42.146Zm9.945,17.1a8.814,8.814,0,0,1-2.486-1.315,87.535,87.535,0,0,1-5.967-7.728,5.43,5.43,0,0,0-3.813-2.466,6.085,6.085,0,0,0,5.8-5.755c0-2.137-1.16-5.59-9.117-5.59h-7.459a1.439,1.439,0,0,1,1,1.48V57.765a1.666,1.666,0,0,1-1,1.48h5.8a2.1,2.1,0,0,1-1.161-1.48V48.558h2.321c1.989,0,2.818,1.48,3.812,2.8,1.326,1.973,2.818,3.946,4.807,6.412a4.1,4.1,0,0,0,3.15,1.48h4.309Zm18.068,0H378.812a1.581,1.581,0,0,0,1.16-1.48V37.871a1.581,1.581,0,0,0-1.16-1.48h14.753v2.631a4.141,4.141,0,0,0-3.316-1.151h-6.464v8.057h6.464a1.441,1.441,0,0,0,1.326-.986v3.288a2.571,2.571,0,0,0-1.326-.986h-6.464V57.93h4.641c4.31,0,5.8,0,7.128-2.137Zm18.233-16.606c0,4.6-4.641,5.261-6.63,5.261a8.134,8.134,0,0,1-1.989-.164V37.871a14.373,14.373,0,0,1,2.652-.164C410.8,37.706,412.792,39.679,412.792,42.639Zm3.316,0c0-2.631-1.326-6.248-9.283-6.248h-7.459a1.581,1.581,0,0,1,1.16,1.48V57.765a1.581,1.581,0,0,1-1.16,1.48h5.8a1.581,1.581,0,0,1-1.161-1.48V48.722a12.622,12.622,0,0,0,7.791-.164,6.324,6.324,0,0,0,4.31-5.919h0Zm22.708-4.768v14.14c0,5.59-4.144,7.563-9.116,7.563-4.31,0-9.946-1.809-9.946-7.563V37.871a1.581,1.581,0,0,0-1.16-1.48h6.3a2.011,2.011,0,0,0-1.326,1.48v14.3c0,2.3.994,5.919,6.464,5.919,5.3,0,6.962-2.8,6.962-5.919v-14.3a1.438,1.438,0,0,0-.994-1.48h3.812a1.439,1.439,0,0,0-1,1.48h0ZM480.09,59.245H464.509a1.581,1.581,0,0,0,1.16-1.48V37.871a1.581,1.581,0,0,0-1.16-1.48h5.967a1.438,1.438,0,0,0-.994,1.48V57.93h4.143c4.641,0,6.133-.164,7.46-2.137Zm4.144,0a1.438,1.438,0,0,0,.994-1.48V37.871a1.438,1.438,0,0,0-.994-1.48h5.8a1.438,1.438,0,0,0-.994,1.48V57.765a1.438,1.438,0,0,0,.994,1.48h-5.8Zm34.146-1.973a23.194,23.194,0,0,1-9.945,2.3c-7.791,0-14.587-4.6-14.587-11.674,0-5.755,5.138-11.838,15.084-11.838a22.971,22.971,0,0,1,9.282,1.973s0.5,5.1.332,4.933a10.572,10.572,0,0,0-9.283-5.59c-7.459,0-11.437,4.6-11.437,10.029,0,4.933,3.149,10.687,11.272,10.687a10.438,10.438,0,0,0,9.613-5.426c0-.164-0.331,4.6-0.331,4.6h0Z"/>
  <path id="ATHLETA" class="cls-7" d="M610.626,48.376h4.418l2.945-6.263h11.453l2.782,6.263h4.418L623.879,20.917Zm9-9.956,4.091-8.832,3.927,8.832h-8.018Zm23.07-12.2h6.054v22.16h4.091V26.216h6.054V22.523H642.7v3.693h0Zm42.377,6.423H673.619V22.523h-4.09V48.216h4.09V36.172h11.453V48.216h4.091V22.523h-4.091V32.639h0Zm21.6-10.116h-4.091V48.216h11.944V44.522H706.67v-22h0Zm18.652,25.853h14.726V44.683h-10.8V36.012h10.308V32.318H729.249V26.056h10.635V22.362H725.159V48.376h0.163Zm24.216-22.16h6.053v22.16h4.091V26.216h6.054V22.523h-16.2v3.693h0Zm35.832-5.3L772.117,48.376h4.417l2.946-6.263h11.453l2.781,6.263h4.418Zm-4.254,17.5,4.09-8.832,3.927,8.832h-8.017ZM587.065,34.085l9,4.336,1.146,5.3-10.145-9.635,4.091,8.993-2.618,4.817-1.473-13.81L584.284,43.4l-5.236,1.927,8.017-11.241-8.344,5.46-5.236-1.606,13.58-3.854-9.98-1.124-2.945-4.5,12.925,5.62-7.035-7.065,0.818-5.3,6.217,12.365-0.654-9.8,4.09-3.533-3.436,13.328,5.891-7.868,5.563-.161-11.454,8.029,9.818-2.248,4.417,3.372ZM586.9,17.706a16.3,16.3,0,1,0,16.852,16.218c0-8.992-7.526-16.218-16.852-16.218h0Z"/>
</svg>
