<?xml version="1.0" encoding="UTF-8"?><svg xmlns="http://www.w3.org/2000/svg" width="240" height="277" xmlns:xlink="http://www.w3.org/1999/xlink" viewBox="0 0 240 277"><defs><style>.cls-1,.cls-2{fill:none;}.cls-3{fill:url(#linear-gradient);}.cls-4{clip-path:url(#clippath);}.cls-5{fill:#fff;}.cls-6{fill:#437eed;}.cls-2{stroke:#000;stroke-miterlimit:10;stroke-width:1.73px;}</style><clipPath id="clippath"><path class="cls-1" d="M139.42,61.86c.03-2.54-2-4.63-4.58-4.66-.98,0-1.91,.31-2.69,.88-.73-1.6-2.31-2.64-4.1-2.66-.57,0-1.11,.09-1.63,.28l3-13.26c.27-1.19,.07-2.43-.59-3.47-.65-1.04-1.67-1.77-2.85-2.04-1.19-.27-2.42-.06-3.45,.6-1.04,.65-1.76,1.67-2.03,2.87l-3.69,16.31-1.68-16.01c-.13-1.22-.73-2.32-1.68-3.09-.96-.78-2.15-1.14-3.36-1.01-1.21,.13-2.3,.73-3.08,1.69-.77,.96-1.12,2.15-.99,3.38l2,19.06-.18,14.45c-.05,3.85,1.41,7.49,4.09,10.26,2.69,2.77,6.27,4.33,10.1,4.38l2.9,.03c3.75,0,7.3-1.46,9.98-4.12,2.73-2.7,4.25-6.3,4.3-10.15l.11-6.78v-.03s0-.1,0-.14l.08-6.76Zm-14.46-22.75c.17,0,.34,.02,.51,.06,.59,.13,1.1,.5,1.43,1.02,.33,.52,.43,1.14,.3,1.74l-4.22,18.63c-1.02,.01-2,.36-2.8,1.01l-2.6,2.09,5.15-22.75c.13-.6,.5-1.11,1.02-1.44,.37-.23,.79-.36,1.21-.36Zm5.31,22.58s0,.04,0,.06l-.1,8.12c0,.61-.25,1.19-.69,1.62-.43,.42-1.01,.65-1.63,.66-.61,0-1.18-.26-1.61-.7-.43-.44-.66-1.02-.65-1.64v-.8l.31-.24c1.97-1.58,2.3-4.48,.72-6.46-.27-.34-.58-.64-.93-.88l.02-1.42c.01-1.26,1.05-2.28,2.3-2.28h.02c.61,0,1.18,.25,1.6,.69,.43,.44,.66,1.03,.66,1.65l-.02,1.64Zm-20.07,7.9l.11-8.88s0-.11,0-.13l-2.01-19.15h0c-.06-.61,.11-1.21,.5-1.69,.39-.48,.94-.78,1.55-.85,.6-.08,1.19,.11,1.66,.5,.48,.39,.78,.94,.84,1.55l2.39,22.82c.04,.4,.31,.77,.69,.94,.08,.04,.16,.06,.25,.08l-5.98,4.81Zm-.04,2.97l11.45-9.19c.55-.45,1.27-.61,1.92-.45l.53,.19c.31,.16,.56,.37,.77,.63,.79,.99,.63,2.45-.36,3.24l-6.73,5.4c-.49,.39-.58,1.11-.19,1.6,.38,.49,1.1,.59,1.6,.21l4.27-3.28c.19,.8,.6,1.55,1.18,2.14,.86,.89,2,1.38,3.22,1.39,1.23-.02,2.38-.45,3.25-1.31,.31-.3,.57-.64,.78-1.01,.8,.67,1.79,1.04,2.84,1.05,.03,0,.05,0,.07,0,.78,0,1.55-.2,2.22-.58l-.05,2.95c-.04,3.24-1.33,6.27-3.62,8.55-2.29,2.27-5.3,3.52-8.53,3.46l-2.72-.03c-3.21-.04-6.22-1.35-8.49-3.68-2.26-2.33-3.48-5.4-3.44-8.63l.03-2.64Zm24.67-1.67s-.07-.01-.1-.01c-.61,0-1.18-.25-1.61-.7-.42-.44-.65-1.01-.65-1.62l.08-6.8c.02-1.27,1.04-2.26,2.31-2.26h.01c1.27,.02,2.28,1.07,2.26,2.34l-.08,6.76c-.02,1.26-1.05,2.28-2.22,2.29Z"/></clipPath><linearGradient id="linear-gradient" x1="104.9" y1="62.88" x2="141.78" y2="62.88" gradientTransform="matrix(1, 0, 0, 1, 0, 0)" gradientUnits="userSpaceOnUse"><stop offset="0" stop-color="#19daf9"/><stop offset=".04" stop-color="#19daef"/><stop offset=".11" stop-color="#19dbd5"/><stop offset=".2" stop-color="#19ddaa"/><stop offset=".23" stop-color="#19de9c"/><stop offset=".27" stop-color="#51db76"/><stop offset=".34" stop-color="#98d847"/><stop offset=".39" stop-color="#ccd524"/><stop offset=".43" stop-color="#ecd40f"/><stop offset=".45" stop-color="#f9d407"/><stop offset=".55" stop-color="#f9c509"/><stop offset=".66" stop-color="#f9b80b"/><stop offset=".74" stop-color="#f89a08"/><stop offset=".85" stop-color="#f86704"/><stop offset=".88" stop-color="#f86103"/><stop offset=".91" stop-color="#f85103"/><stop offset=".95" stop-color="#f83702"/><stop offset=".99" stop-color="#f81301"/><stop offset="1" stop-color="#f80701"/></linearGradient></defs><g id="Layer_3"><rect class="cls-5" width="240" height="277"/></g><g id="Layer_1"><rect class="cls-5" x="14.5" y="87.57" width="214.47" height="142.98"/><g><path class="cls-6" d="M86.14,108.12l-15.06,35.98h12.76l1.84-4.8h12.51l1.89,4.8h12.96l-15.06-35.98h-11.84Zm2.55,22.71l3.27-8.68,3.27,8.68h-6.53Z"/><rect class="cls-6" x="6.62" y="108.38" width="11.94" height="35.73"/><path class="cls-6" d="M133.26,130.63h6.12v3.57c-.92,.51-2.04,.82-4.08,.82-5,0-8.52-3.47-8.52-8.52v-.1c0-4.85,3.37-8.42,8.01-8.42,2.96,0,5.56,1.12,7.91,3.11l6.69-8.06c-3.88-3.37-8.83-5.41-14.95-5.41-11.28,0-19.7,7.96-19.7,18.63v.1c0,11.08,8.93,18.53,20.06,18.53,6.48,0,11.89-2.2,15.77-5.36v-16.54h-17.3v7.66Z"/><polygon class="cls-6" points="46.18 120.93 38.52 108.38 26.07 108.38 26.07 144.11 37.75 144.11 37.75 126.39 45.97 139.1 46.18 139.1 54.39 126.39 54.39 144.11 66.29 144.11 66.29 108.38 53.83 108.38 46.18 120.93"/><polygon class="cls-6" points="216.92 134.31 216.92 130.43 234.38 130.43 234.38 121.8 216.92 121.8 216.92 118.18 235.66 118.18 235.66 108.38 215.73 108.38 205.18 108.38 205.18 144.11 215.73 144.11 235.91 144.11 235.91 134.31 216.92 134.31"/><polygon class="cls-6" points="193.4 108.38 180.69 108.38 193.4 124.15 193.4 108.38"/><rect class="cls-6" x="157.46" y="108.38" width="11.94" height="35.73"/><polygon class="cls-6" points="181.36 144.11 194.63 144.11 181.36 127.62 181.36 144.11"/></g><g><path class="cls-6" d="M24.14,158.61h2.54l5.37,12.61h-2.88l-1.14-2.81h-5.29l-1.14,2.81h-2.81l5.36-12.61Zm2.9,7.37l-1.66-4.06-1.66,4.06h3.33Z"/><path class="cls-6" d="M43.62,158.7h5.81c1.43,0,2.56,.39,3.27,1.11,.57,.57,.86,1.27,.86,2.13v.04c0,1.41-.75,2.2-1.65,2.7,1.45,.55,2.34,1.39,2.34,3.08v.04c0,2.29-1.86,3.43-4.69,3.43h-5.96v-12.52Zm7.21,3.7c0-.82-.64-1.29-1.81-1.29h-2.72v2.65h2.54c1.22,0,1.98-.39,1.98-1.32v-.04Zm-1.34,3.65h-3.18v2.75h3.27c1.22,0,1.95-.43,1.95-1.36v-.04c0-.84-.63-1.36-2.04-1.36Z"/><path class="cls-6" d="M58.68,158.7h9.44v2.45h-6.71v2.54h5.9v2.45h-5.9v2.63h6.8v2.45h-9.53v-12.52Z"/><path class="cls-6" d="M75.71,161.24h-3.81v-2.54h10.37v2.54h-3.81v9.98h-2.75v-9.98Z"/><path class="cls-6" d="M89.44,161.24h-3.81v-2.54h10.37v2.54h-3.81v9.98h-2.75v-9.98Z"/><path class="cls-6" d="M100.26,158.7h9.44v2.45h-6.71v2.54h5.9v2.45h-5.9v2.63h6.8v2.45h-9.53v-12.52Z"/><path class="cls-6" d="M114.38,158.7h5.72c1.59,0,2.83,.45,3.65,1.27,.7,.7,1.07,1.68,1.07,2.86v.04c0,2.02-1.09,3.29-2.68,3.88l3.06,4.47h-3.22l-2.68-4.01h-2.16v4.01h-2.75v-12.52Zm5.54,6.08c1.34,0,2.11-.72,2.11-1.77v-.04c0-1.18-.82-1.79-2.16-1.79h-2.74v3.59h2.79Z"/><path class="cls-6" d="M136.96,158.7h9.53v2.5h-6.78v2.67h5.97v2.5h-5.97v4.85h-2.75v-12.52Z"/><path class="cls-6" d="M150.63,165.85v-7.15h2.75v7.08c0,2.04,1.02,3.09,2.7,3.09s2.7-1.02,2.7-3v-7.17h2.75v7.06c0,3.79-2.13,5.65-5.49,5.65s-5.42-1.88-5.42-5.56Z"/><path class="cls-6" d="M169.4,161.24h-3.81v-2.54h10.37v2.54h-3.81v9.98h-2.75v-9.98Z"/><path class="cls-6" d="M180.02,165.85v-7.15h2.75v7.08c0,2.04,1.02,3.09,2.7,3.09s2.7-1.02,2.7-3v-7.17h2.75v7.06c0,3.79-2.13,5.65-5.49,5.65s-5.42-1.88-5.42-5.56Z"/><path class="cls-6" d="M195.88,158.7h5.72c1.59,0,2.83,.45,3.65,1.27,.7,.7,1.07,1.68,1.07,2.86v.04c0,2.02-1.09,3.29-2.68,3.88l3.06,4.47h-3.22l-2.68-4.01h-2.16v4.01h-2.75v-12.52Zm5.54,6.08c1.34,0,2.11-.72,2.11-1.77v-.04c0-1.18-.82-1.79-2.16-1.79h-2.74v3.59h2.79Z"/><path class="cls-6" d="M210.95,158.7h9.44v2.45h-6.71v2.54h5.9v2.45h-5.9v2.63h6.8v2.45h-9.53v-12.52Z"/></g><g><path d="M74.45,223.7h1.87v6.79h4.23v1.7h-6.1v-8.49Z"/><path d="M82.56,223.7h6.4v1.66h-4.55v1.72h4v1.66h-4v1.78h4.61v1.66h-6.47v-8.49Z"/><path d="M94.21,223.64h1.72l3.64,8.55h-1.95l-.78-1.9h-3.59l-.78,1.9h-1.9l3.64-8.55Zm1.97,5l-1.13-2.75-1.13,2.75h2.26Z"/><path d="M101.49,223.7h3.88c1.08,0,1.92,.3,2.47,.86,.47,.47,.73,1.14,.73,1.94v.02c0,1.37-.74,2.23-1.82,2.63l2.07,3.03h-2.18l-1.82-2.72h-1.47v2.72h-1.87v-8.49Zm3.76,4.12c.91,0,1.43-.49,1.43-1.2v-.02c0-.8-.56-1.21-1.47-1.21h-1.86v2.44h1.89Z"/><path d="M110.86,223.7h1.72l3.98,5.23v-5.23h1.84v8.49h-1.59l-4.11-5.4v5.4h-1.84v-8.49Z"/><path d="M125.29,223.7h2.01l2.23,3.59,2.23-3.59h2.01v8.49h-1.86v-5.54l-2.39,3.63h-.05l-2.37-3.59v5.51h-1.83v-8.49Z"/><path d="M136.05,227.97v-.02c0-2.41,1.91-4.39,4.53-4.39s4.5,1.95,4.5,4.37v.02c0,2.41-1.9,4.39-4.52,4.39s-4.5-1.95-4.5-4.37Zm7.07,0v-.02c0-1.46-1.07-2.67-2.57-2.67s-2.55,1.19-2.55,2.64v.02c0,1.46,1.07,2.67,2.57,2.67s2.55-1.19,2.55-2.64Z"/><path d="M147.35,223.7h3.88c1.08,0,1.92,.3,2.47,.86,.47,.47,.73,1.14,.73,1.94v.02c0,1.37-.74,2.23-1.82,2.63l2.07,3.03h-2.18l-1.82-2.72h-1.47v2.72h-1.87v-8.49Zm3.76,4.12c.91,0,1.43-.49,1.43-1.2v-.02c0-.8-.56-1.21-1.47-1.21h-1.86v2.44h1.89Z"/><path d="M156.72,223.7h6.41v1.66h-4.55v1.72h4v1.66h-4v1.78h4.61v1.66h-6.47v-8.49Z"/></g><g><path class="cls-6" d="M25.08,187.83v-.02c0-2.39,1.79-4.34,4.33-4.34,1.55,0,2.48,.54,3.29,1.31l-.95,1.09c-.67-.62-1.39-1.04-2.35-1.04-1.6,0-2.77,1.32-2.77,2.96v.02c0,1.64,1.16,2.97,2.77,2.97,1.03,0,1.69-.41,2.41-1.08l.95,.96c-.88,.91-1.83,1.49-3.41,1.49-2.45,0-4.27-1.91-4.27-4.32Z"/><path class="cls-6" d="M35.1,185.68h1.45v1.43c.4-.95,1.13-1.59,2.24-1.55v1.54h-.08c-1.27,0-2.16,.83-2.16,2.51v2.41h-1.45v-6.33Z"/><path class="cls-6" d="M40.45,188.87v-.02c0-1.81,1.28-3.3,3.09-3.3,2.01,0,3.03,1.58,3.03,3.41,0,.13-.01,.26-.02,.41h-4.65c.16,1.03,.89,1.61,1.82,1.61,.71,0,1.21-.26,1.71-.76l.85,.76c-.6,.72-1.43,1.19-2.59,1.19-1.83,0-3.25-1.33-3.25-3.29Zm4.69-.47c-.1-.94-.65-1.67-1.61-1.67-.89,0-1.51,.68-1.64,1.67h3.25Z"/><path class="cls-6" d="M48.59,190.18v-.02c0-1.37,1.07-2.04,2.61-2.04,.71,0,1.21,.11,1.7,.26v-.16c0-.9-.55-1.38-1.57-1.38-.71,0-1.24,.16-1.81,.4l-.38-1.14c.7-.31,1.38-.52,2.39-.52,.95,0,1.65,.25,2.1,.71,.47,.46,.68,1.13,.68,1.96v3.75h-1.42v-.79c-.43,.52-1.09,.92-2.06,.92-1.19,0-2.24-.68-2.24-1.96Zm4.34-.46v-.43c-.37-.14-.86-.25-1.44-.25-.94,0-1.49,.4-1.49,1.05v.02c0,.61,.54,.96,1.24,.96,.96,0,1.69-.55,1.69-1.35Z"/><path class="cls-6" d="M57.25,190.26v-3.33h-.8v-1.25h.8v-1.74h1.45v1.74h1.7v1.25h-1.7v3.11c0,.56,.29,.79,.78,.79,.32,0,.61-.07,.9-.22v1.19c-.36,.2-.76,.32-1.31,.32-1.07,0-1.82-.47-1.82-1.86Z"/><path class="cls-6" d="M62.87,183.32h1.56v1.38h-1.56v-1.38Zm.06,2.35h1.45v6.33h-1.45v-6.33Z"/><path class="cls-6" d="M67.24,185.68h1.45v.97c.41-.59,1-1.1,1.98-1.1,1.43,0,2.25,.96,2.25,2.42v4.04h-1.45v-3.6c0-.98-.49-1.55-1.35-1.55s-1.43,.59-1.43,1.57v3.57h-1.45v-6.33Z"/><path class="cls-6" d="M75.62,193.2l.54-1.09c.68,.42,1.39,.67,2.25,.67,1.3,0,2-.67,2-1.94v-.49c-.53,.68-1.19,1.16-2.23,1.16-1.49,0-2.88-1.1-2.88-2.96v-.02c0-1.87,1.4-2.97,2.88-2.97,1.07,0,1.73,.49,2.22,1.08v-.95h1.45v5.04c0,1.07-.28,1.86-.8,2.39-.58,.58-1.46,.85-2.6,.85-1.04,0-2.02-.26-2.83-.76Zm4.81-4.67v-.02c0-1.03-.85-1.74-1.86-1.74s-1.8,.7-1.8,1.74v.02c0,1.03,.8,1.74,1.8,1.74s1.86-.71,1.86-1.74Z"/><path class="cls-6" d="M88.79,190.18v-.02c0-1.37,1.07-2.04,2.61-2.04,.71,0,1.21,.11,1.7,.26v-.16c0-.9-.55-1.38-1.57-1.38-.71,0-1.24,.16-1.81,.4l-.38-1.14c.7-.31,1.38-.52,2.39-.52,.95,0,1.66,.25,2.1,.71,.47,.46,.68,1.13,.68,1.96v3.75h-1.42v-.79c-.43,.52-1.09,.92-2.06,.92-1.19,0-2.24-.68-2.24-1.96Zm4.34-.46v-.43c-.37-.14-.86-.25-1.44-.25-.94,0-1.49,.4-1.49,1.05v.02c0,.61,.54,.96,1.24,.96,.96,0,1.69-.55,1.69-1.35Z"/><path class="cls-6" d="M103.22,191.02v.98h-1.45v-8.75h1.45v3.48c.47-.66,1.13-1.19,2.16-1.19,1.49,0,2.94,1.18,2.94,3.29v.02c0,2.1-1.44,3.29-2.94,3.29-1.06,0-1.71-.53-2.16-1.12Zm3.62-2.17v-.02c0-1.22-.83-2.03-1.81-2.03s-1.85,.82-1.85,2.03v.02c0,1.21,.86,2.03,1.85,2.03s1.81-.78,1.81-2.03Z"/><path class="cls-6" d="M110.44,188.87v-.02c0-1.81,1.28-3.3,3.09-3.3,2.01,0,3.03,1.58,3.03,3.41,0,.13-.01,.26-.02,.41h-4.65c.16,1.03,.89,1.61,1.82,1.61,.71,0,1.21-.26,1.71-.76l.85,.76c-.6,.72-1.43,1.19-2.59,1.19-1.83,0-3.25-1.33-3.25-3.29Zm4.69-.47c-.1-.94-.65-1.67-1.61-1.67-.89,0-1.51,.68-1.64,1.67h3.25Z"/><path class="cls-6" d="M119.29,190.26v-3.33h-.8v-1.25h.8v-1.74h1.45v1.74h1.7v1.25h-1.7v3.11c0,.56,.29,.79,.78,.79,.32,0,.61-.07,.9-.22v1.19c-.36,.2-.76,.32-1.31,.32-1.07,0-1.82-.47-1.82-1.86Z"/><path class="cls-6" d="M125.18,190.26v-3.33h-.8v-1.25h.8v-1.74h1.45v1.74h1.7v1.25h-1.7v3.11c0,.56,.29,.79,.78,.79,.32,0,.61-.07,.9-.22v1.19c-.36,.2-.76,.32-1.31,.32-1.07,0-1.82-.47-1.82-1.86Z"/><path class="cls-6" d="M130.25,188.87v-.02c0-1.81,1.28-3.3,3.09-3.3,2.01,0,3.03,1.58,3.03,3.41,0,.13-.01,.26-.02,.41h-4.65c.16,1.03,.89,1.61,1.82,1.61,.71,0,1.21-.26,1.71-.76l.85,.76c-.6,.72-1.43,1.19-2.59,1.19-1.83,0-3.25-1.33-3.25-3.29Zm4.69-.47c-.1-.94-.65-1.67-1.61-1.67-.89,0-1.51,.68-1.64,1.67h3.25Z"/><path class="cls-6" d="M138.8,185.68h1.45v1.43c.4-.95,1.13-1.59,2.24-1.55v1.54h-.08c-1.27,0-2.16,.83-2.16,2.51v2.41h-1.45v-6.33Z"/><path class="cls-6" d="M149.6,186.92h-.8v-1.21h.8v-.47c0-.7,.18-1.22,.52-1.56s.8-.5,1.43-.5c.5,0,.85,.07,1.17,.17v1.22c-.29-.1-.54-.16-.85-.16-.55,0-.84,.3-.84,.96v.35h1.68v1.2h-1.66v5.08h-1.45v-5.08Z"/><path class="cls-6" d="M154.68,189.71v-4.03h1.45v3.6c0,.98,.49,1.54,1.36,1.54s1.43-.58,1.43-1.56v-3.57h1.46v6.33h-1.46v-.98c-.41,.6-1,1.12-1.98,1.12-1.43,0-2.25-.96-2.25-2.43Z"/><path class="cls-6" d="M163.45,190.26v-3.33h-.8v-1.25h.8v-1.74h1.45v1.74h1.7v1.25h-1.7v3.11c0,.56,.29,.79,.78,.79,.32,0,.61-.07,.9-.22v1.19c-.36,.2-.76,.32-1.31,.32-1.07,0-1.82-.47-1.82-1.86Z"/><path class="cls-6" d="M168.97,189.71v-4.03h1.45v3.6c0,.98,.49,1.54,1.35,1.54s1.43-.58,1.43-1.56v-3.57h1.46v6.33h-1.46v-.98c-.41,.6-1,1.12-1.98,1.12-1.43,0-2.25-.96-2.25-2.43Z"/><path class="cls-6" d="M177.44,185.68h1.45v1.43c.4-.95,1.13-1.59,2.24-1.55v1.54h-.08c-1.27,0-2.16,.83-2.16,2.51v2.41h-1.45v-6.33Z"/><path class="cls-6" d="M182.8,188.87v-.02c0-1.81,1.28-3.3,3.09-3.3,2.01,0,3.03,1.58,3.03,3.41,0,.13-.01,.26-.02,.41h-4.65c.16,1.03,.89,1.61,1.82,1.61,.71,0,1.21-.26,1.71-.76l.85,.76c-.6,.72-1.43,1.19-2.59,1.19-1.83,0-3.25-1.33-3.25-3.29Zm4.69-.47c-.1-.94-.65-1.67-1.61-1.67-.89,0-1.51,.68-1.64,1.67h3.25Z"/><path class="cls-6" d="M196.24,186.92h-.8v-1.21h.8v-.47c0-.7,.18-1.22,.52-1.56s.8-.5,1.43-.5c.5,0,.85,.07,1.17,.17v1.22c-.29-.1-.54-.16-.85-.16-.55,0-.84,.3-.84,.96v.35h1.68v1.2h-1.66v5.08h-1.45v-5.08Z"/><path class="cls-6" d="M200.92,188.88v-.02c0-1.81,1.44-3.31,3.38-3.31s3.37,1.48,3.37,3.29v.02c0,1.8-1.44,3.3-3.39,3.3s-3.36-1.47-3.36-3.27Zm5.3,0v-.02c0-1.12-.8-2.04-1.94-2.04s-1.91,.91-1.91,2.01v.02c0,1.1,.8,2.03,1.93,2.03s1.92-.91,1.92-2Z"/><path class="cls-6" d="M210.11,185.68h1.45v1.43c.4-.95,1.13-1.59,2.24-1.55v1.54h-.08c-1.27,0-2.16,.83-2.16,2.51v2.41h-1.45v-6.33Z"/><path class="cls-6" d="M54.62,203.03h-.8v-1.21h.8v-.47c0-.7,.18-1.22,.52-1.56s.8-.5,1.43-.5c.5,0,.85,.07,1.18,.17v1.22c-.29-.1-.54-.16-.85-.16-.55,0-.84,.3-.84,.96v.35h1.68v1.2h-1.66v5.08h-1.45v-5.08Z"/><path class="cls-6" d="M59.7,205.81v-4.03h1.45v3.6c0,.98,.49,1.54,1.36,1.54s1.43-.58,1.43-1.56v-3.57h1.46v6.33h-1.46v-.98c-.41,.6-1,1.12-1.98,1.12-1.43,0-2.25-.96-2.25-2.43Z"/><path class="cls-6" d="M68.47,206.37v-3.33h-.8v-1.25h.8v-1.74h1.45v1.74h1.7v1.25h-1.7v3.11c0,.56,.29,.79,.78,.79,.32,0,.61-.07,.9-.22v1.19c-.36,.2-.76,.32-1.31,.32-1.07,0-1.82-.47-1.82-1.86Z"/><path class="cls-6" d="M73.99,205.81v-4.03h1.45v3.6c0,.98,.49,1.54,1.36,1.54s1.43-.58,1.43-1.56v-3.57h1.46v6.33h-1.46v-.98c-.41,.6-1,1.12-1.98,1.12-1.43,0-2.25-.96-2.25-2.43Z"/><path class="cls-6" d="M82.46,201.79h1.45v1.43c.4-.95,1.13-1.59,2.24-1.55v1.54h-.08c-1.27,0-2.16,.83-2.16,2.51v2.41h-1.45v-6.33Z"/><path class="cls-6" d="M87.82,204.97v-.02c0-1.81,1.28-3.3,3.09-3.3,2.01,0,3.03,1.58,3.03,3.41,0,.13-.01,.26-.02,.41h-4.65c.16,1.03,.89,1.61,1.82,1.61,.71,0,1.21-.26,1.71-.76l.85,.76c-.6,.72-1.43,1.19-2.59,1.19-1.83,0-3.25-1.33-3.25-3.29Zm4.69-.47c-.1-.94-.65-1.67-1.61-1.67-.89,0-1.51,.68-1.64,1.67h3.25Z"/><path class="cls-6" d="M100.92,209.3l.54-1.09c.68,.42,1.39,.67,2.25,.67,1.3,0,2-.67,2-1.94v-.49c-.53,.68-1.19,1.16-2.23,1.16-1.49,0-2.88-1.1-2.88-2.96v-.02c0-1.87,1.4-2.97,2.88-2.97,1.07,0,1.73,.49,2.22,1.08v-.95h1.45v5.04c0,1.07-.28,1.86-.8,2.39-.58,.58-1.46,.85-2.6,.85-1.04,0-2.02-.26-2.83-.76Zm4.81-4.67v-.02c0-1.03-.85-1.74-1.86-1.74s-1.8,.7-1.8,1.74v.02c0,1.03,.8,1.74,1.8,1.74s1.86-.71,1.86-1.74Z"/><path class="cls-6" d="M109.6,204.97v-.02c0-1.81,1.28-3.3,3.09-3.3,2.01,0,3.03,1.58,3.03,3.41,0,.13-.01,.26-.02,.41h-4.65c.16,1.03,.89,1.61,1.82,1.61,.71,0,1.21-.26,1.71-.76l.85,.76c-.6,.72-1.43,1.19-2.59,1.19-1.83,0-3.25-1.33-3.25-3.29Zm4.69-.47c-.1-.94-.65-1.67-1.61-1.67-.89,0-1.51,.68-1.64,1.67h3.25Z"/><path class="cls-6" d="M118.15,201.79h1.45v.97c.41-.59,1-1.1,1.98-1.1,1.43,0,2.25,.96,2.25,2.42v4.04h-1.45v-3.6c0-.98-.49-1.55-1.36-1.55s-1.43,.59-1.43,1.57v3.57h-1.45v-6.33Z"/><path class="cls-6" d="M126.2,204.97v-.02c0-1.81,1.28-3.3,3.09-3.3,2.01,0,3.03,1.58,3.03,3.41,0,.13-.01,.26-.02,.41h-4.65c.16,1.03,.89,1.61,1.82,1.61,.71,0,1.21-.26,1.71-.76l.85,.76c-.6,.72-1.43,1.19-2.59,1.19-1.83,0-3.25-1.33-3.25-3.29Zm4.69-.47c-.1-.94-.65-1.67-1.61-1.67-.89,0-1.51,.68-1.64,1.67h3.25Z"/><path class="cls-6" d="M134.76,201.79h1.45v1.43c.4-.95,1.13-1.59,2.24-1.55v1.54h-.08c-1.27,0-2.16,.83-2.16,2.51v2.41h-1.45v-6.33Z"/><path class="cls-6" d="M139.96,206.29v-.02c0-1.37,1.07-2.04,2.61-2.04,.71,0,1.21,.11,1.7,.26v-.16c0-.9-.55-1.38-1.57-1.38-.71,0-1.24,.16-1.81,.4l-.38-1.14c.7-.31,1.38-.52,2.39-.52,.95,0,1.66,.25,2.1,.71,.47,.46,.68,1.13,.68,1.96v3.75h-1.42v-.79c-.43,.52-1.09,.92-2.06,.92-1.19,0-2.24-.68-2.24-1.96Zm4.34-.46v-.43c-.37-.14-.86-.25-1.44-.25-.94,0-1.49,.4-1.49,1.05v.02c0,.61,.54,.96,1.24,.96,.96,0,1.69-.55,1.69-1.35Z"/><path class="cls-6" d="M148.62,206.37v-3.33h-.8v-1.25h.8v-1.74h1.45v1.74h1.7v1.25h-1.7v3.11c0,.56,.29,.79,.78,.79,.32,0,.61-.07,.9-.22v1.19c-.36,.2-.76,.32-1.31,.32-1.07,0-1.82-.47-1.82-1.86Z"/><path class="cls-6" d="M154.24,199.43h1.56v1.38h-1.56v-1.38Zm.06,2.35h1.45v6.33h-1.45v-6.33Z"/><path class="cls-6" d="M158.26,204.99v-.02c0-1.81,1.44-3.31,3.38-3.31s3.37,1.48,3.37,3.29v.02c0,1.8-1.44,3.3-3.39,3.3s-3.36-1.47-3.36-3.27Zm5.3,0v-.02c0-1.12-.8-2.04-1.94-2.04s-1.91,.91-1.91,2.01v.02c0,1.1,.8,2.03,1.93,2.03s1.92-.91,1.92-2Z"/><path class="cls-6" d="M167.45,201.79h1.45v.97c.41-.59,1-1.1,1.98-1.1,1.43,0,2.25,.96,2.25,2.42v4.04h-1.45v-3.6c0-.98-.49-1.55-1.36-1.55s-1.43,.59-1.43,1.57v3.57h-1.45v-6.33Z"/><path class="cls-6" d="M175.33,207.29l.65-.98c.7,.52,1.43,.78,2.08,.78s.98-.26,.98-.68v-.02c0-.49-.67-.66-1.42-.89-.94-.26-1.98-.65-1.98-1.86v-.02c0-1.2,1-1.93,2.25-1.93,.79,0,1.66,.28,2.33,.72l-.58,1.03c-.61-.37-1.26-.6-1.79-.6-.56,0-.89,.26-.89,.62v.02c0,.47,.68,.66,1.43,.9,.92,.29,1.97,.71,1.97,1.85v.02c0,1.33-1.03,1.99-2.35,1.99-.9,0-1.89-.32-2.69-.95Z"/><path class="cls-6" d="M182.72,206.46h1.6v1.66h-1.6v-1.66Z"/></g><g class="cls-4"><rect class="cls-3" x="104.9" y="33.26" width="36.87" height="59.23"/></g><line class="cls-2" x1="74.41" y1="236.01" x2="163.25" y2="236.01"/></g></svg>