<svg id="_190520_037F_US_SMSAcq_Footer_Desk_Number.svg" data-name=" 190520 037F US SMSAcq Footer Desk Number.svg" xmlns="http://www.w3.org/2000/svg" xmlns:xlink="http://www.w3.org/1999/xlink" width="261.138" height="126.286" viewBox="0 0 261.138 126.286">
  <defs>
    <style>
      .cls-1 {
        fill: none;
        isolation: isolate;
      }

      .cls-2 {
        fill: #004471;
      }

      .cls-3 {
        fill: #d50032;
      }

      .cls-4 {
        fill: #a40903;
      }

      .cls-5 {
        fill: #a50903;
      }

      .cls-6 {
        fill: #a60903;
      }

      .cls-7 {
        fill: #a70a03;
      }

      .cls-8 {
        fill: #a80a04;
      }

      .cls-9 {
        fill: #a90a04;
      }

      .cls-10 {
        fill: #aa0a04;
      }

      .cls-11 {
        fill: #ab0a04;
      }

      .cls-12 {
        fill: #ac0a04;
      }

      .cls-13 {
        fill: #ad0b04;
      }

      .cls-14 {
        fill: #ae0b04;
      }

      .cls-15 {
        fill: #af0b05;
      }

      .cls-16 {
        fill: #b00b05;
      }

      .cls-17 {
        fill: #b10b05;
      }

      .cls-18 {
        fill: #b20b05;
      }

      .cls-19 {
        fill: #b30c05;
      }

      .cls-20 {
        fill: #b40c05;
      }

      .cls-21 {
        fill: #b50c05;
      }

      .cls-22 {
        fill: #b60c05;
      }

      .cls-23 {
        fill: #b60c06;
      }

      .cls-24 {
        fill: #b70c06;
      }

      .cls-25 {
        fill: #b80c06;
      }

      .cls-26 {
        fill: #b90d06;
      }

      .cls-27 {
        fill: #ba0d06;
      }

      .cls-28 {
        fill: #bb0d06;
      }

      .cls-29 {
        fill: #bc0d06;
      }

      .cls-30 {
        fill: #bd0d07;
      }

      .cls-31 {
        fill: #be0d07;
      }

      .cls-32 {
        fill: #bf0e07;
      }

      .cls-33 {
        fill: #c00e07;
      }

      .cls-34 {
        fill: #c10e07;
      }

      .cls-35 {
        fill: #c20e07;
      }

      .cls-36 {
        fill: #c30e07;
      }

      .cls-37 {
        fill: #c40e08;
      }

      .cls-38 {
        fill: #c50f08;
      }

      .cls-39 {
        fill: #c60f08;
      }

      .cls-40 {
        fill: #c70f08;
      }

      .cls-41 {
        fill: #c80f08;
      }

      .cls-42 {
        fill: #c91009;
      }

      .cls-43 {
        fill: #ca1009;
      }

      .cls-44 {
        fill: #cb1009;
      }

      .cls-45 {
        fill: #cc1009;
      }

      .cls-46 {
        fill: #cd110a;
      }

      .cls-47 {
        fill: #ce110a;
      }

      .cls-48 {
        fill: #cf110a;
      }

      .cls-49 {
        fill: #d0120a;
      }

      .cls-50 {
        fill: #d1120b;
      }

      .cls-51 {
        fill: #d2120b;
      }

      .cls-52 {
        fill: #d3130b;
      }

      .cls-53 {
        fill: #d4130b;
      }

      .cls-54 {
        fill: #d5130c;
      }

      .cls-55 {
        fill: #d6130c;
      }

      .cls-56 {
        fill: #d7140c;
      }

      .cls-57 {
        fill: #d8140d;
      }

      .cls-58 {
        fill: #d9140d;
      }

      .cls-59 {
        fill: #da150d;
      }

      .cls-60 {
        fill: #db150d;
      }

      .cls-61 {
        fill: #db150e;
      }

      .cls-62 {
        fill: #dc150e;
      }

      .cls-63 {
        fill: #dd160e;
      }

      .cls-64 {
        fill: #de160e;
      }

      .cls-65 {
        fill: #df160f;
      }

      .cls-66 {
        fill: #e0170f;
      }

      .cls-67 {
        fill: #e1170f;
      }

      .cls-68 {
        fill: #e21710;
      }

      .cls-69 {
        fill: #e31710;
      }

      .cls-70 {
        fill: #e41810;
      }

      .cls-71 {
        fill: #e51810;
      }

      .cls-72 {
        fill: #e61811;
      }

      .cls-73 {
        fill: #e71911;
      }

      .cls-74 {
        fill: #e81911;
      }

      .cls-75 {
        fill: #e91911;
      }

      .cls-76 {
        fill: #ea1a12;
      }

      .cls-77 {
        fill: #eb1a12;
      }

      .cls-78 {
        fill: #ec1a12;
      }

      .cls-79 {
        fill: #ed1a12;
      }

      .cls-80 {
        fill: #ee1b13;
      }

      .cls-81 {
        fill: #ef1b13;
      }

      .cls-82 {
        opacity: 0.9;
      }

      .cls-83 {
        fill: url(#New_Gradient_Swatch_3);
      }

      .cls-84 {
        fill: url(#linear-gradient);
      }
    </style>
    <linearGradient id="New_Gradient_Swatch_3" data-name="New Gradient Swatch 3" x1="78.675" y1="54.853" x2="78.675" y2="69.29" gradientUnits="userSpaceOnUse">
      <stop offset="0" stop-color="#fff"/>
      <stop offset="0.001" stop-color="#fffefe"/>
      <stop offset="0.119" stop-color="#f4c8c6"/>
      <stop offset="0.239" stop-color="#eb9894"/>
      <stop offset="0.361" stop-color="#e36f6a"/>
      <stop offset="0.484" stop-color="#dc4d47"/>
      <stop offset="0.608" stop-color="#d7332c"/>
      <stop offset="0.734" stop-color="#d42119"/>
      <stop offset="0.863" stop-color="#d2160e"/>
      <stop offset="1" stop-color="#d1120a"/>
    </linearGradient>
    <linearGradient id="linear-gradient" x1="78.675" y1="55.059" x2="78.675" y2="68.276" gradientUnits="userSpaceOnUse">
      <stop offset="0" stop-color="#fff"/>
      <stop offset="0.027" stop-color="#fde7e6"/>
      <stop offset="0.082" stop-color="#fabcba"/>
      <stop offset="0.141" stop-color="#f89692"/>
      <stop offset="0.206" stop-color="#f57470"/>
      <stop offset="0.276" stop-color="#f35853"/>
      <stop offset="0.353" stop-color="#f2423b"/>
      <stop offset="0.441" stop-color="#f03029"/>
      <stop offset="0.547" stop-color="#f0241c"/>
      <stop offset="0.687" stop-color="#ef1d15"/>
      <stop offset="1" stop-color="#ef1b13"/>
    </linearGradient>
  </defs>
  <title>190520_037F_US_SMSAcq_Footer_Desk_Number</title>
  <path id="Give_us_your_digits_for_a_special_welcome_deal_and_exclusive_t_copy" data-name="Give us your digits for a special welcome deal and exclusive t copy" d="M4.205,106.522H6.119v2.637a7.381,7.381,0,0,1-1.74.2,3.265,3.265,0,0,1-2.488-.9,3.7,3.7,0,0,1-.846-2.631,3.619,3.619,0,0,1,.878-2.584,3.2,3.2,0,0,1,2.444-.932A5.7,5.7,0,0,1,6.6,102.8l.387-.879a6.454,6.454,0,0,0-2.555-.5,5,5,0,0,0-2.361.531,3.619,3.619,0,0,0-1.544,1.535,4.9,4.9,0,0,0-.536,2.341,4.559,4.559,0,0,0,1.084,3.243A3.949,3.949,0,0,0,4.1,110.232a10.561,10.561,0,0,0,1.629-.111,9.393,9.393,0,0,0,1.383-.328v-4.166H4.2v.89Zm6.042-2.824H9.274v6.422h.973V103.7Zm-.891-1.251a.56.56,0,0,0,.41.161.566.566,0,0,0,.4-.161.785.785,0,0,0,0-.976.607.607,0,0,0-.815,0,.646.646,0,0,0-.164.489A.658.658,0,0,0,9.356,102.447Zm5.892,7.673,2.438-6.422H16.643q-1.2,3.282-1.538,4.257a12.917,12.917,0,0,0-.407,1.286h-.047q-.083-.4-.551-1.734L12.719,103.7H11.676l2.438,6.422H15.25Zm7.471.02a5.075,5.075,0,0,0,.976-.319v-.867a5.172,5.172,0,0,1-2.051.433,1.977,1.977,0,0,1-1.526-.585,2.546,2.546,0,0,1-.572-1.717H23.97v-.615a3.04,3.04,0,0,0-.7-2.1,2.421,2.421,0,0,0-1.91-.794,2.542,2.542,0,0,0-2.054.914,3.727,3.727,0,0,0-.764,2.467,3.356,3.356,0,0,0,.823,2.408,2.951,2.951,0,0,0,2.247.867A5.43,5.43,0,0,0,22.719,110.14Zm-.2-5.255a2.135,2.135,0,0,1,.41,1.409H19.572a2.323,2.323,0,0,1,.542-1.395,1.589,1.589,0,0,1,1.233-.5A1.441,1.441,0,0,1,22.519,104.885Zm6.639-1.187v4.2a2.367,2.367,0,0,0,.583,1.781,2.448,2.448,0,0,0,1.754.557,2.785,2.785,0,0,0,1.21-.252,1.936,1.936,0,0,0,.829-.726h.053l.141.861h.8V103.7h-.973v3.375a2.776,2.776,0,0,1-.466,1.8,1.827,1.827,0,0,1-1.474.551,1.456,1.456,0,0,1-1.119-.387,1.677,1.677,0,0,1-.357-1.172V103.7h-.984Zm11.359,3.609a4.213,4.213,0,0,0-1.544-.837A9.481,9.481,0,0,1,37.848,106a1.293,1.293,0,0,1-.425-.346.725.725,0,0,1-.132-.439.67.67,0,0,1,.352-.6,2.02,2.02,0,0,1,1.043-.217,4.643,4.643,0,0,1,1.751.4l.346-.791a5.112,5.112,0,0,0-2.027-.422,2.975,2.975,0,0,0-1.752.454,1.441,1.441,0,0,0-.639,1.239,1.476,1.476,0,0,0,.185.756,1.727,1.727,0,0,0,.562.565,6.824,6.824,0,0,0,1.275.584,5.116,5.116,0,0,1,1.268.629.838.838,0,0,1-.085,1.383,2.317,2.317,0,0,1-1.171.243,4.187,4.187,0,0,1-1.023-.134,4.815,4.815,0,0,1-.993-.369v.9a4.08,4.08,0,0,0,1.992.4,3.14,3.14,0,0,0,1.875-.486,1.609,1.609,0,0,0,.668-1.383,1.482,1.482,0,0,0-.4-1.054Zm7.151,2.848-.358.914a1.486,1.486,0,0,1-1.43,1.125,3.374,3.374,0,0,1-.72-.07v.776a3.938,3.938,0,0,0,.879.1,2.039,2.039,0,0,0,1.344-.454,3.642,3.642,0,0,0,.958-1.538L51.1,103.7H50.058q-1.347,3.726-1.591,4.45t-.319,1.023H48.1a13.987,13.987,0,0,0-.574-1.811L46.119,103.7H45.076Zm9.4-5.678a2.717,2.717,0,0,0-2.141-.9,2.776,2.776,0,0,0-2.18.876,3.533,3.533,0,0,0-.785,2.446,4.048,4.048,0,0,0,.363,1.77,2.67,2.67,0,0,0,1.031,1.16,2.9,2.9,0,0,0,1.529.4,2.786,2.786,0,0,0,2.186-.882,4.149,4.149,0,0,0,0-4.87Zm-3.612.557a1.71,1.71,0,0,1,1.441-.627,1.739,1.739,0,0,1,1.462.636,2.984,2.984,0,0,1,.5,1.86,3.034,3.034,0,0,1-.5,1.878,1.952,1.952,0,0,1-2.9,0,3.05,3.05,0,0,1-.493-1.875,3.018,3.018,0,0,1,.494-1.872ZM59.7,103.7v4.2a2.367,2.367,0,0,0,.583,1.781,2.452,2.452,0,0,0,1.755.557,2.785,2.785,0,0,0,1.21-.252,1.936,1.936,0,0,0,.829-.726h.053l.141.861h.8V103.7H64.1v3.375a2.782,2.782,0,0,1-.466,1.8,1.828,1.828,0,0,1-1.474.551,1.454,1.454,0,0,1-1.119-.387,1.677,1.677,0,0,1-.357-1.172V103.7H59.7Zm9.41.223a2.824,2.824,0,0,0-.861.967h-.043L68.1,103.7h-.8v6.422h.973v-3.445a2.31,2.31,0,0,1,.553-1.577,1.716,1.716,0,0,1,1.334-.632,3.292,3.292,0,0,1,.7.088l.134-.9a3.79,3.79,0,0,0-.767-.07,1.936,1.936,0,0,0-1.106.337Zm11.174,6.2h.791V101h-.969v2.613l.024.451.041.463H80.1a2.334,2.334,0,0,0-2-.949,2.367,2.367,0,0,0-1.957.879,3.86,3.86,0,0,0-.7,2.467,3.79,3.79,0,0,0,.7,2.449,2.383,2.383,0,0,0,1.959.861,2.286,2.286,0,0,0,2.016-.978h.053Zm-3.4-1.324a3.169,3.169,0,0,1-.451-1.858,3.316,3.316,0,0,1,.454-1.878,1.49,1.49,0,0,1,1.31-.665,1.726,1.726,0,0,1,1.45.583,3.222,3.222,0,0,1,.454,1.949v.2a2.74,2.74,0,0,1-.448,1.749,1.771,1.771,0,0,1-1.444.542,1.528,1.528,0,0,1-1.32-.619Zm7.383-5.1H83.3v6.422h.972V103.7Zm-.89-1.251a.6.6,0,0,0,.814,0,.785.785,0,0,0,0-.976.606.606,0,0,0-.814,0,.642.642,0,0,0-.164.489.654.654,0,0,0,.169.488Zm6.146,1.251a3.26,3.26,0,0,0-.908-.117,2.584,2.584,0,0,0-1.793.571,2.078,2.078,0,0,0-.633,1.626,2.049,2.049,0,0,0,.314,1.125,1.727,1.727,0,0,0,.812.7,1.963,1.963,0,0,0-.592.51,1.035,1.035,0,0,0-.188.615.917.917,0,0,0,.167.545,1.009,1.009,0,0,0,.413.346,1.914,1.914,0,0,0-1.055.58,1.491,1.491,0,0,0-.374,1.014,1.514,1.514,0,0,0,.682,1.324,3.416,3.416,0,0,0,1.948.464,4.582,4.582,0,0,0,2.5-.56,1.824,1.824,0,0,0,.855-1.626,1.525,1.525,0,0,0-.56-1.277,2.544,2.544,0,0,0-1.6-.44H88.377a1.586,1.586,0,0,1-.744-.126.42.42,0,0,1-.217-.389.956.956,0,0,1,.621-.826,2.977,2.977,0,0,0,.54.046,2.6,2.6,0,0,0,1.769-.562,1.9,1.9,0,0,0,.645-1.506,2.089,2.089,0,0,0-.422-1.283l1.189-.141v-.61H89.537Zm-2.531,6.592a1.535,1.535,0,0,1,1.031-.316h1.167a2.5,2.5,0,0,1,1.212.2.785.785,0,0,1,.323.723,1.122,1.122,0,0,1-.589.993,3.517,3.517,0,0,1-1.814.367,2.416,2.416,0,0,1-1.259-.27.87.87,0,0,1-.44-.791A1.13,1.13,0,0,1,87,110.29Zm.528-5.631a1.426,1.426,0,0,1,1.054-.369,1.277,1.277,0,0,1,1.442,1.447,1.241,1.241,0,0,1-1.424,1.383,1.52,1.52,0,0,1-1.061-.346,1.306,1.306,0,0,1-.381-1.019,1.483,1.483,0,0,1,.375-1.095ZM94.3,103.7h-.973v6.422H94.3V103.7Zm-.89-1.251a.6.6,0,0,0,.814,0,.785.785,0,0,0,0-.976.606.606,0,0,0-.814,0,.642.642,0,0,0-.165.489.654.654,0,0,0,.17.488Zm4.577,6.677a1.3,1.3,0,0,1-.275-.891v-3.779h1.863V103.7H97.708v-1.49h-.563l-.41,1.371-.92.4v.469h.92v3.82a1.692,1.692,0,0,0,1.863,1.963,3.412,3.412,0,0,0,.554-.05,1.771,1.771,0,0,0,.466-.126v-.744a3.047,3.047,0,0,1-.381.079,3.1,3.1,0,0,1-.5.038.958.958,0,0,1-.749-.306Zm7.132-1.817a4.2,4.2,0,0,0-1.544-.837,9.481,9.481,0,0,1-1.125-.475,1.3,1.3,0,0,1-.425-.346.725.725,0,0,1-.132-.439.672.672,0,0,1,.352-.6,2.02,2.02,0,0,1,1.043-.217,4.652,4.652,0,0,1,1.752.4l.346-.791a5.117,5.117,0,0,0-2.028-.422,2.975,2.975,0,0,0-1.752.454,1.443,1.443,0,0,0-.638,1.239,1.476,1.476,0,0,0,.184.756,1.73,1.73,0,0,0,.563.565,6.809,6.809,0,0,0,1.274.584,5.148,5.148,0,0,1,1.269.629.838.838,0,0,1-.085,1.383,2.321,2.321,0,0,1-1.172.243,4.193,4.193,0,0,1-1.023-.134,4.861,4.861,0,0,1-.993-.369v.9a4.085,4.085,0,0,0,1.992.4,3.14,3.14,0,0,0,1.875-.486,1.607,1.607,0,0,0,.668-1.383,1.482,1.482,0,0,0-.4-1.053Zm8.475-3.609h-1.635v-.416a2.042,2.042,0,0,1,.264-1.175.936.936,0,0,1,.814-.366,3.221,3.221,0,0,1,.961.182l.252-.78a4.28,4.28,0,0,0-1.2-.2q-2.069,0-2.068,2.368v.357l-1.149.351v.44h1.149v5.666h.972v-5.666h1.635V103.7Zm6.1.779a2.718,2.718,0,0,0-2.142-.9,2.776,2.776,0,0,0-2.179.876,3.533,3.533,0,0,0-.785,2.446,4.048,4.048,0,0,0,.363,1.77,2.67,2.67,0,0,0,1.031,1.16,2.9,2.9,0,0,0,1.529.4,2.786,2.786,0,0,0,2.186-.882,4.149,4.149,0,0,0,0-4.869Zm-3.612.557a1.71,1.71,0,0,1,1.441-.627,1.739,1.739,0,0,1,1.462.636,2.984,2.984,0,0,1,.5,1.86,3.034,3.034,0,0,1-.5,1.878,1.952,1.952,0,0,1-2.9,0,3.043,3.043,0,0,1-.493-1.875,3.012,3.012,0,0,1,.5-1.871Zm8.128-1.113a2.826,2.826,0,0,0-.862.967H123.3l-.111-1.19h-.8v6.422h.973v-3.445a2.311,2.311,0,0,1,.554-1.577,1.713,1.713,0,0,1,1.333-.632,3.292,3.292,0,0,1,.7.088l.135-.9a3.807,3.807,0,0,0-.768-.07,1.935,1.935,0,0,0-1.1.338Zm11.343,6.2v-4.383a2.129,2.129,0,0,0-.554-1.635,2.444,2.444,0,0,0-1.7-.509,4.49,4.49,0,0,0-1.134.146,4.637,4.637,0,0,0-1.04.4l.3.745a4.227,4.227,0,0,1,1.816-.493,1.337,1.337,0,0,1,1.041.361,1.631,1.631,0,0,1,.325,1.116v.4l-1.09.035q-3.111.094-3.111,2.04a1.793,1.793,0,0,0,.542,1.4,2.144,2.144,0,0,0,1.5.492,2.912,2.912,0,0,0,1.192-.214,2.7,2.7,0,0,0,.958-.817h.047l.193.914h.721Zm-3.812-.961a1,1,0,0,1-.319-.8,1.086,1.086,0,0,1,.513-.993,3.533,3.533,0,0,1,1.673-.36l.972-.041v.58a1.845,1.845,0,0,1-.518,1.394,1.976,1.976,0,0,1-1.427.5,1.324,1.324,0,0,1-.888-.28Zm13.154-1.852a4.2,4.2,0,0,0-1.544-.837,9.641,9.641,0,0,1-1.125-.475,1.288,1.288,0,0,1-.424-.346.725.725,0,0,1-.132-.439.671.671,0,0,1,.351-.6,2.022,2.022,0,0,1,1.043-.217,4.644,4.644,0,0,1,1.752.4l.346-.791a5.114,5.114,0,0,0-2.028-.422,2.97,2.97,0,0,0-1.751.454,1.441,1.441,0,0,0-.639,1.239,1.476,1.476,0,0,0,.184.756,1.74,1.74,0,0,0,.563.565,6.84,6.84,0,0,0,1.274.584,5.148,5.148,0,0,1,1.269.629.838.838,0,0,1-.085,1.383,2.321,2.321,0,0,1-1.172.243,4.18,4.18,0,0,1-1.022-.134,4.815,4.815,0,0,1-.993-.369v.9a4.08,4.08,0,0,0,1.992.4,3.144,3.144,0,0,0,1.875-.486,1.609,1.609,0,0,0,.668-1.383,1.478,1.478,0,0,0-.4-1.054Zm7.088,2.054a4.65,4.65,0,0,0,.012-4.907,2.375,2.375,0,0,0-1.972-.873,2.658,2.658,0,0,0-1.143.234,2.262,2.262,0,0,0-.873.762h-.047l-.134-.879h-.791V113H148v-2.64a8.575,8.575,0,0,0-.07-1.066H148a2.171,2.171,0,0,0,.87.712,2.787,2.787,0,0,0,1.146.231,2.378,2.378,0,0,0,1.966-.876Zm-.774-4.312a3.069,3.069,0,0,1,.472,1.842,3.191,3.191,0,0,1-.472,1.858,1.5,1.5,0,0,1-1.3.674,1.716,1.716,0,0,1-1.447-.583,3.215,3.215,0,0,1-.452-1.937v-.217a2.8,2.8,0,0,1,.452-1.734,1.722,1.722,0,0,1,1.423-.545,1.549,1.549,0,0,1,1.33.642Zm7.25,5.091a5.087,5.087,0,0,0,.975-.319v-.867a5.172,5.172,0,0,1-2.051.433,1.977,1.977,0,0,1-1.526-.585,2.546,2.546,0,0,1-.571-1.717h4.424v-.615a3.041,3.041,0,0,0-.7-2.1,2.421,2.421,0,0,0-1.91-.794,2.539,2.539,0,0,0-2.053.914,3.722,3.722,0,0,0-.765,2.467,3.356,3.356,0,0,0,.823,2.408,2.951,2.951,0,0,0,2.247.867,5.45,5.45,0,0,0,1.113-.092Zm-.2-5.255a2.141,2.141,0,0,1,.41,1.409h-3.358a2.323,2.323,0,0,1,.542-1.395,1.59,1.59,0,0,1,1.234-.5,1.444,1.444,0,0,1,1.176.486Zm7.564,5.015v-.861a4.33,4.33,0,0,1-1.646.345,1.659,1.659,0,0,1-1.415-.632,2.97,2.97,0,0,1-.478-1.817q0-2.5,1.957-2.5a3.185,3.185,0,0,1,.674.085,4.606,4.606,0,0,1,.7.214l.3-.826a3.068,3.068,0,0,0-.727-.235,4.409,4.409,0,0,0-.925-.1,2.793,2.793,0,0,0-2.212.879,3.638,3.638,0,0,0-.777,2.49,3.529,3.529,0,0,0,.765,2.429,2.741,2.741,0,0,0,2.159.858,3.506,3.506,0,0,0,1.623-.334h0Zm2.7-6.2h-.973v6.422h.973V103.7Zm-.891-1.251a.56.56,0,0,0,.41.161.566.566,0,0,0,.4-.161.785.785,0,0,0,0-.976.607.607,0,0,0-.815,0,.646.646,0,0,0-.164.489.658.658,0,0,0,.171.49Zm7.749,7.673v-4.383a2.129,2.129,0,0,0-.553-1.635,2.448,2.448,0,0,0-1.7-.509,4.49,4.49,0,0,0-1.134.146,4.619,4.619,0,0,0-1.04.4l.3.745a4.224,4.224,0,0,1,1.816-.493,1.336,1.336,0,0,1,1.04.361,1.626,1.626,0,0,1,.325,1.116v.4l-1.09.035q-3.111.094-3.111,2.04a1.8,1.8,0,0,0,.542,1.4,2.144,2.144,0,0,0,1.5.492,2.908,2.908,0,0,0,1.192-.214,2.69,2.69,0,0,0,.958-.817h.047l.194.914h.72Zm-3.811-.961a1,1,0,0,1-.319-.8,1.086,1.086,0,0,1,.512-.993,3.536,3.536,0,0,1,1.673-.36l.973-.041v.58a1.841,1.841,0,0,1-.519,1.394,1.975,1.975,0,0,1-1.427.5,1.323,1.323,0,0,1-.891-.277Zm6.97-8.156h-.973v9.117h.973Zm12.058,9.117,1.775-6.422h-1.007q-1.121,4.289-1.222,4.729a6.11,6.11,0,0,0-.126.65h-.047a12.532,12.532,0,0,0-.445-1.693l-1.149-3.686h-1.054l-1.178,3.686q-.1.31-.249.84t-.208.865h-.047a14.781,14.781,0,0,0-.372-1.7q-.326-1.266-.946-3.686H183.3l1.752,6.422h1.125l1.213-3.756q.176-.556.41-1.582h.047q.3,1.226.416,1.57l1.178,3.768h1.154Zm6.957.02a5.066,5.066,0,0,0,.975-.319v-.867a5.168,5.168,0,0,1-2.05.433,1.979,1.979,0,0,1-1.527-.585,2.551,2.551,0,0,1-.571-1.717H198.8v-.612a3.04,3.04,0,0,0-.7-2.1,2.424,2.424,0,0,0-1.91-.794,2.541,2.541,0,0,0-2.054.914,3.722,3.722,0,0,0-.765,2.467,3.36,3.36,0,0,0,.823,2.408,2.952,2.952,0,0,0,2.248.867,5.443,5.443,0,0,0,1.107-.092Zm-.2-5.255a2.141,2.141,0,0,1,.41,1.409H194.4a2.33,2.33,0,0,1,.542-1.395,1.59,1.59,0,0,1,1.234-.5,1.442,1.442,0,0,1,1.17.489Zm4.3-3.882h-.973v9.117h.973Zm6.454,8.9v-.861a4.339,4.339,0,0,1-1.647.345,1.66,1.66,0,0,1-1.415-.632,2.977,2.977,0,0,1-.477-1.817q0-2.5,1.957-2.5a3.177,3.177,0,0,1,.673.085,4.62,4.62,0,0,1,.7.214l.3-.826a3.058,3.058,0,0,0-.726-.235,4.416,4.416,0,0,0-.926-.1,2.8,2.8,0,0,0-2.212.879,3.643,3.643,0,0,0-.776,2.49,3.534,3.534,0,0,0,.764,2.429,2.743,2.743,0,0,0,2.16.858,3.506,3.506,0,0,0,1.623-.334h0Zm6.361-5.426a2.718,2.718,0,0,0-2.142-.9,2.776,2.776,0,0,0-2.179.876,3.534,3.534,0,0,0-.786,2.446,4.033,4.033,0,0,0,.364,1.77,2.67,2.67,0,0,0,1.031,1.16,2.9,2.9,0,0,0,1.529.4,2.787,2.787,0,0,0,2.186-.882,4.149,4.149,0,0,0-.009-4.867Zm-3.612.557a1.71,1.71,0,0,1,1.441-.627,1.739,1.739,0,0,1,1.462.636,2.984,2.984,0,0,1,.5,1.86,3.034,3.034,0,0,1-.5,1.878,1.953,1.953,0,0,1-2.9,0,3.05,3.05,0,0,1-.492-1.875,3.012,3.012,0,0,1,.483-1.869Zm15.464,5.086v-4.189a2.5,2.5,0,0,0-.543-1.791,2.173,2.173,0,0,0-1.631-.559,2.59,2.59,0,0,0-1.243.293,2.051,2.051,0,0,0-.832.8h-.05a1.908,1.908,0,0,0-1.969-1.09,2.369,2.369,0,0,0-1.122.264,1.906,1.906,0,0,0-.777.732H218.1l-.159-.879h-.791v6.422h.973v-3.369a2.966,2.966,0,0,1,.425-1.8,1.588,1.588,0,0,1,1.339-.548,1.277,1.277,0,0,1,1.025.384,1.733,1.733,0,0,1,.328,1.151v4.178h.974V106.53a2.476,2.476,0,0,1,.433-1.605,1.646,1.646,0,0,1,1.342-.522,1.27,1.27,0,0,1,1.02.384,1.733,1.733,0,0,1,.328,1.151v4.178h.976Zm6.033.02a5.075,5.075,0,0,0,.976-.319v-.867a5.176,5.176,0,0,1-2.051.433,1.977,1.977,0,0,1-1.526-.585,2.546,2.546,0,0,1-.572-1.717H233.6v-.612a3.04,3.04,0,0,0-.7-2.1,2.424,2.424,0,0,0-1.91-.794,2.541,2.541,0,0,0-2.054.914,3.722,3.722,0,0,0-.765,2.467,3.357,3.357,0,0,0,.824,2.408,2.948,2.948,0,0,0,2.247.867,5.442,5.442,0,0,0,1.1-.092Zm-.2-5.255a2.141,2.141,0,0,1,.41,1.409H229.2a2.317,2.317,0,0,1,.542-1.395,1.586,1.586,0,0,1,1.233-.5,1.442,1.442,0,0,1,1.164.489Zm11.209,5.235h.79V101h-.972v2.613l.023.451.041.463h-.076a2.335,2.335,0,0,0-2-.949,2.366,2.366,0,0,0-1.957.879,3.854,3.854,0,0,0-.7,2.467,3.79,3.79,0,0,0,.7,2.449,2.385,2.385,0,0,0,1.96.861,2.286,2.286,0,0,0,2.016-.978h.034Zm-3.4-1.324a3.169,3.169,0,0,1-.451-1.858,3.308,3.308,0,0,1,.454-1.878,1.49,1.49,0,0,1,1.31-.665,1.728,1.728,0,0,1,1.45.583,3.229,3.229,0,0,1,.454,1.949v.2a2.746,2.746,0,0,1-.448,1.749,1.774,1.774,0,0,1-1.445.542,1.528,1.528,0,0,1-1.331-.615Zm10.259,1.347a5.075,5.075,0,0,0,.976-.319v-.867a5.176,5.176,0,0,1-2.051.433,1.98,1.98,0,0,1-1.527-.585,2.551,2.551,0,0,1-.571-1.717h4.424v-.615a3.04,3.04,0,0,0-.7-2.1,2.424,2.424,0,0,0-1.91-.794,2.541,2.541,0,0,0-2.054.914,3.722,3.722,0,0,0-.765,2.467,3.357,3.357,0,0,0,.824,2.408,2.948,2.948,0,0,0,2.247.867A5.443,5.443,0,0,0,250.219,110.14Zm-.2-5.255a2.141,2.141,0,0,1,.41,1.409h-3.357a2.317,2.317,0,0,1,.542-1.395,1.586,1.586,0,0,1,1.233-.5A1.442,1.442,0,0,1,250.019,104.885Zm7.948,5.235v-4.383a2.129,2.129,0,0,0-.554-1.635,2.444,2.444,0,0,0-1.7-.509,4.49,4.49,0,0,0-1.134.146,4.637,4.637,0,0,0-1.04.4l.3.745a4.227,4.227,0,0,1,1.816-.493,1.333,1.333,0,0,1,1.04.361,1.626,1.626,0,0,1,.326,1.116v.4l-1.09.035q-3.111.094-3.111,2.04a1.8,1.8,0,0,0,.541,1.4,2.149,2.149,0,0,0,1.5.492,2.912,2.912,0,0,0,1.192-.214,2.7,2.7,0,0,0,.958-.817h.047l.193.914h.721Zm-3.812-.961a1,1,0,0,1-.319-.8,1.086,1.086,0,0,1,.513-.993,3.529,3.529,0,0,1,1.67-.366l.972-.041v.58a1.845,1.845,0,0,1-.518,1.394,1.976,1.976,0,0,1-1.427.5,1.324,1.324,0,0,1-.893-.274ZM261.119,101h-.97v9.117h.97Zm-212.6,25.117v-4.383a2.129,2.129,0,0,0-.554-1.635,2.444,2.444,0,0,0-1.7-.509,4.49,4.49,0,0,0-1.134.146,4.637,4.637,0,0,0-1.04.4l.3.744a4.239,4.239,0,0,1,1.816-.492,1.333,1.333,0,0,1,1.04.361,1.626,1.626,0,0,1,.326,1.116v.4l-1.09.035q-3.111.094-3.112,2.04a1.8,1.8,0,0,0,.542,1.4,2.149,2.149,0,0,0,1.5.492,2.915,2.915,0,0,0,1.192-.214,2.7,2.7,0,0,0,.958-.817h.047l.193.914h.721Zm-3.8-.958a1,1,0,0,1-.319-.8,1.086,1.086,0,0,1,.513-.993,3.529,3.529,0,0,1,1.673-.36l.972-.041v.58a1.845,1.845,0,0,1-.518,1.394,1.976,1.976,0,0,1-1.427.5A1.324,1.324,0,0,1,44.719,125.159Zm11.363.961v-4.19a2.382,2.382,0,0,0-.586-1.79,2.44,2.44,0,0,0-1.746-.559,2.716,2.716,0,0,0-1.2.261,1.978,1.978,0,0,0-.838.735h-.047l-.158-.879h-.791v6.422h.972v-3.369a2.754,2.754,0,0,1,.469-1.8,1.848,1.848,0,0,1,1.477-.545,1.456,1.456,0,0,1,1.119.387,1.677,1.677,0,0,1,.357,1.172v4.154h.972Zm6.725,0H63.6V117h-.979v2.613l.024.451.041.463h-.075a2.333,2.333,0,0,0-2-.949,2.367,2.367,0,0,0-1.957.879,3.86,3.86,0,0,0-.7,2.467,3.79,3.79,0,0,0,.7,2.449,2.383,2.383,0,0,0,1.959.861,2.286,2.286,0,0,0,2.016-.978h.053Zm-3.4-1.324a3.169,3.169,0,0,1-.451-1.858,3.316,3.316,0,0,1,.454-1.878,1.49,1.49,0,0,1,1.309-.66,1.726,1.726,0,0,1,1.45.583,3.224,3.224,0,0,1,.454,1.949v.2a2.74,2.74,0,0,1-.448,1.749,1.771,1.771,0,0,1-1.444.542A1.528,1.528,0,0,1,59.4,124.8ZM73.08,126.14a5.066,5.066,0,0,0,.975-.319v-.867a5.173,5.173,0,0,1-2.05.434,1.978,1.978,0,0,1-1.527-.586,2.546,2.546,0,0,1-.571-1.717h4.424v-.616a3.044,3.044,0,0,0-.7-2.094,2.424,2.424,0,0,0-1.91-.794,2.541,2.541,0,0,0-2.054.914,3.722,3.722,0,0,0-.765,2.467,3.356,3.356,0,0,0,.817,2.408,2.951,2.951,0,0,0,2.247.867,5.447,5.447,0,0,0,1.111-.1Zm-.2-5.255a2.141,2.141,0,0,1,.41,1.409H69.932a2.33,2.33,0,0,1,.542-1.395,1.59,1.59,0,0,1,1.234-.5,1.444,1.444,0,0,1,1.167.486Zm2.613,5.235h1.1l1.816-2.6,1.8,2.6h1.1l-2.349-3.287,2.232-3.135h-1.1L78.4,122.159,76.711,119.7H75.6l2.233,3.135Zm11.264-.217v-.861a4.341,4.341,0,0,1-1.647.346,1.661,1.661,0,0,1-1.415-.633,2.977,2.977,0,0,1-.477-1.817q0-2.5,1.957-2.5a3.177,3.177,0,0,1,.673.085,4.62,4.62,0,0,1,.7.214l.3-.826a3.083,3.083,0,0,0-.727-.235,4.416,4.416,0,0,0-.926-.1,2.8,2.8,0,0,0-2.212.879,3.643,3.643,0,0,0-.776,2.49,3.531,3.531,0,0,0,.765,2.429,2.739,2.739,0,0,0,2.159.858,3.506,3.506,0,0,0,1.623-.334h0Zm2.7-8.9h-.973v9.117h.973V117Zm2.162,2.7v4.2a2.371,2.371,0,0,0,.583,1.782,2.452,2.452,0,0,0,1.754.556,2.782,2.782,0,0,0,1.21-.252,1.944,1.944,0,0,0,.83-.726h.052l.141.861h.8V119.7h-.97v3.375a2.776,2.776,0,0,1-.466,1.8,1.826,1.826,0,0,1-1.473.551,1.458,1.458,0,0,1-1.12-.387,1.677,1.677,0,0,1-.357-1.172V119.7Zm11.359,3.609a4.218,4.218,0,0,0-1.544-.838,9.362,9.362,0,0,1-1.125-.474,1.293,1.293,0,0,1-.425-.346.725.725,0,0,1-.132-.439.67.67,0,0,1,.352-.6,2.02,2.02,0,0,1,1.043-.217,4.652,4.652,0,0,1,1.752.4l.345-.791a5.112,5.112,0,0,0-2.027-.422,2.975,2.975,0,0,0-1.752.454,1.441,1.441,0,0,0-.639,1.239,1.476,1.476,0,0,0,.185.756,1.739,1.739,0,0,0,.562.566,6.9,6.9,0,0,0,1.275.583,5.116,5.116,0,0,1,1.268.629.836.836,0,0,1-.085,1.383,2.317,2.317,0,0,1-1.171.243,4.139,4.139,0,0,1-1.023-.134,4.8,4.8,0,0,1-.993-.37v.9a4.085,4.085,0,0,0,1.992.4,3.14,3.14,0,0,0,1.875-.486,1.609,1.609,0,0,0,.668-1.383,1.482,1.482,0,0,0-.4-1.055Zm3.1-3.609H105.1v6.422h.972V119.7Zm-.89-1.251a.6.6,0,0,0,.814,0,.644.644,0,0,0,.17-.489.634.634,0,0,0-.17-.486.6.6,0,0,0-.814,0,.642.642,0,0,0-.165.489.654.654,0,0,0,.158.484Zm5.892,7.673,2.437-6.422h-1.043q-1.2,3.282-1.538,4.257a13.2,13.2,0,0,0-.407,1.286h-.047a17.9,17.9,0,0,0-.551-1.734l-1.383-3.809H107.5l2.438,6.422h1.137Zm7.472.02a5.087,5.087,0,0,0,.975-.319v-.867a5.174,5.174,0,0,1-2.051.434,1.977,1.977,0,0,1-1.526-.586,2.546,2.546,0,0,1-.571-1.717H119.8v-.616a3.04,3.04,0,0,0-.7-2.094,2.421,2.421,0,0,0-1.91-.794,2.539,2.539,0,0,0-2.053.914,3.722,3.722,0,0,0-.765,2.467,3.356,3.356,0,0,0,.823,2.408,2.951,2.951,0,0,0,2.247.867,5.448,5.448,0,0,0,1.1-.1Zm-.2-5.255a2.141,2.141,0,0,1,.41,1.409H115.4a2.323,2.323,0,0,1,.542-1.395,1.59,1.59,0,0,1,1.234-.5,1.444,1.444,0,0,1,1.163.484Zm8.026,4.239a1.3,1.3,0,0,1-.275-.891v-3.779h1.863V119.7H126.1v-1.49h-.562l-.411,1.371-.92.4v.469h.92v3.82a1.692,1.692,0,0,0,1.864,1.963,3.514,3.514,0,0,0,.553-.05,1.758,1.758,0,0,0,.466-.126v-.744a3.047,3.047,0,0,1-.381.079,3.1,3.1,0,0,1-.5.038.959.959,0,0,1-.763-.306Zm6.878,1.016a5.075,5.075,0,0,0,.976-.319v-.867a5.174,5.174,0,0,1-2.051.434,1.977,1.977,0,0,1-1.526-.586,2.541,2.541,0,0,1-.571-1.717h4.423v-.616a3.04,3.04,0,0,0-.7-2.094,2.422,2.422,0,0,0-1.91-.794,2.542,2.542,0,0,0-2.054.914,3.727,3.727,0,0,0-.764,2.467,3.356,3.356,0,0,0,.823,2.408,2.951,2.951,0,0,0,2.247.867,5.431,5.431,0,0,0,1.1-.1Zm-.2-5.255a2.135,2.135,0,0,1,.41,1.409h-3.357a2.323,2.323,0,0,1,.542-1.395,1.589,1.589,0,0,1,1.233-.5,1.441,1.441,0,0,1,1.161.484Zm2.614,5.235h1.1l1.817-2.6,1.8,2.6h1.1l-2.35-3.287,2.233-3.135h-1.1l-1.687,2.461-1.694-2.461h-1.107l2.232,3.135Zm9.032-1a1.3,1.3,0,0,1-.276-.891v-3.779h1.864V119.7h-1.871v-1.49h-.562l-.41,1.371-.92.4v.469h.92v3.82a1.692,1.692,0,0,0,1.863,1.963,3.526,3.526,0,0,0,.554-.05,1.771,1.771,0,0,0,.466-.126v-.744a3.047,3.047,0,0,1-.381.079,3.11,3.11,0,0,1-.5.038.957.957,0,0,1-.758-.306Zm11.185,1v-4.383a2.129,2.129,0,0,0-.554-1.635,2.444,2.444,0,0,0-1.7-.509,4.49,4.49,0,0,0-1.134.146,4.637,4.637,0,0,0-1.04.4l.3.744a4.239,4.239,0,0,1,1.816-.492,1.333,1.333,0,0,1,1.04.361,1.626,1.626,0,0,1,.326,1.116v.4l-1.09.035q-3.111.094-3.112,2.04a1.793,1.793,0,0,0,.543,1.4,2.144,2.144,0,0,0,1.5.492,2.915,2.915,0,0,0,1.192-.214,2.7,2.7,0,0,0,.958-.817h.047l.193.914h.721Zm-3.812-.961a1,1,0,0,1-.319-.8,1.086,1.086,0,0,1,.513-.993,3.533,3.533,0,0,1,1.673-.36l.972-.041v.58a1.845,1.845,0,0,1-.518,1.394,1.976,1.976,0,0,1-1.427.5,1.324,1.324,0,0,1-.9-.282ZM159.032,117h-.972v9.117h.972Zm6.088,9.137a5.066,5.066,0,0,0,.975-.319v-.867a5.169,5.169,0,0,1-2.05.434,1.978,1.978,0,0,1-1.527-.586,2.551,2.551,0,0,1-.571-1.717h4.424v-.616a3.044,3.044,0,0,0-.7-2.094,2.424,2.424,0,0,0-1.91-.794,2.541,2.541,0,0,0-2.054.914,3.722,3.722,0,0,0-.765,2.467,3.36,3.36,0,0,0,.823,2.408,2.952,2.952,0,0,0,2.248.867,5.445,5.445,0,0,0,1.106-.094Zm-.2-5.255a2.141,2.141,0,0,1,.41,1.409h-3.358a2.33,2.33,0,0,1,.542-1.395,1.59,1.59,0,0,1,1.234-.5,1.442,1.442,0,0,1,1.171.489Zm5.135-.964a2.832,2.832,0,0,0-.862.966h-.046l-.112-1.189h-.8v6.422h.972v-3.445a2.311,2.311,0,0,1,.554-1.577,1.713,1.713,0,0,1,1.333-.632,3.292,3.292,0,0,1,.7.088l.135-.9a3.807,3.807,0,0,0-.768-.07,1.935,1.935,0,0,0-1.108.34Zm5.124,5.2a1.3,1.3,0,0,1-.275-.891v-3.779h1.863V119.7H174.9v-1.49h-.565l-.41,1.371-.92.4v.469h.92v3.82a1.692,1.692,0,0,0,1.863,1.963,3.526,3.526,0,0,0,.554-.05,1.771,1.771,0,0,0,.466-.126v-.744a3.047,3.047,0,0,1-.381.079,3.1,3.1,0,0,1-.5.038.958.958,0,0,1-.754-.306Zm11.264-4.647a2.717,2.717,0,0,0-2.141-.9,2.776,2.776,0,0,0-2.18.876,3.533,3.533,0,0,0-.785,2.446,4.048,4.048,0,0,0,.363,1.77,2.67,2.67,0,0,0,1.031,1.16,2.9,2.9,0,0,0,1.529.4,2.786,2.786,0,0,0,2.186-.882,4.149,4.149,0,0,0-.005-4.864Zm-3.612.557a1.71,1.71,0,0,1,1.441-.627,1.739,1.739,0,0,1,1.462.636,2.984,2.984,0,0,1,.5,1.86,3.034,3.034,0,0,1-.5,1.878,1.952,1.952,0,0,1-2.9,0,3.05,3.05,0,0,1-.492-1.875,3.019,3.019,0,0,1,.487-1.866Zm9.155-1.336h-1.637v-.416a2.051,2.051,0,0,1,.263-1.175.938.938,0,0,1,.815-.366,3.226,3.226,0,0,1,.961.182l.252-.78a4.284,4.284,0,0,0-1.2-.2q-2.07,0-2.069,2.367v.358l-1.148.352v.439h1.148v5.666h.973v-5.666h1.635V119.7Zm4.828,0h-1.635v-.416a2.042,2.042,0,0,1,.264-1.175.936.936,0,0,1,.814-.366,3.221,3.221,0,0,1,.961.182l.252-.78a4.28,4.28,0,0,0-1.2-.2q-2.068,0-2.069,2.367v.358l-1.148.352v.439H194.2v5.666h.973v-5.666h1.635V119.7Zm5.169,6.442a5.075,5.075,0,0,0,.976-.319v-.867a5.177,5.177,0,0,1-2.051.434,1.981,1.981,0,0,1-1.527-.586,2.551,2.551,0,0,1-.571-1.717h4.424v-.616a3.04,3.04,0,0,0-.7-2.094,2.424,2.424,0,0,0-1.91-.794,2.541,2.541,0,0,0-2.054.914,3.722,3.722,0,0,0-.765,2.467,3.357,3.357,0,0,0,.824,2.408,2.95,2.95,0,0,0,2.247.867,5.445,5.445,0,0,0,1.1-.091Zm-.2-5.255a2.141,2.141,0,0,1,.41,1.409h-3.357a2.317,2.317,0,0,1,.542-1.395,1.586,1.586,0,0,1,1.233-.5,1.442,1.442,0,0,1,1.168.492Zm5.134-.964a2.819,2.819,0,0,0-.861.966h-.047l-.112-1.189h-.8v6.422h.972v-3.445a2.311,2.311,0,0,1,.554-1.577,1.713,1.713,0,0,1,1.333-.632,3.292,3.292,0,0,1,.7.088l.135-.9a3.807,3.807,0,0,0-.768-.07,1.935,1.935,0,0,0-1.11.343Zm7.229,3.386a4.218,4.218,0,0,0-1.544-.838,9.362,9.362,0,0,1-1.125-.474,1.3,1.3,0,0,1-.425-.346.725.725,0,0,1-.132-.439.67.67,0,0,1,.352-.6,2.02,2.02,0,0,1,1.043-.217,4.652,4.652,0,0,1,1.752.4l.345-.791a5.109,5.109,0,0,0-2.027-.422,2.975,2.975,0,0,0-1.752.454,1.44,1.44,0,0,0-.638,1.239,1.476,1.476,0,0,0,.184.756,1.742,1.742,0,0,0,.563.566,6.855,6.855,0,0,0,1.274.583,5.148,5.148,0,0,1,1.269.629.838.838,0,0,1-.085,1.383,2.324,2.324,0,0,1-1.172.243,4.145,4.145,0,0,1-1.023-.134,4.8,4.8,0,0,1-.993-.37v.9a4.085,4.085,0,0,0,1.992.4,3.14,3.14,0,0,0,1.875-.486,1.607,1.607,0,0,0,.668-1.383,1.482,1.482,0,0,0-.405-1.047Zm2.337,2.8a.768.768,0,0,0,1.022-.02.822.822,0,0,0,.193-.586.837.837,0,0,0-.19-.6.693.693,0,0,0-.53-.2.647.647,0,0,0-.513.2.874.874,0,0,0-.179.6.8.8,0,0,0,.193.61Z" transform="translate(0.019 0)"/>
  <path id="let_s_text_copy" data-name="let s text copy" d="M80.325,90.246h7.6V87.87H83.167V78.238H80.33V90.246Zm9.766,0h8.564V87.87H92.946V85.242h4.488V82.991H92.946V80.525h5.709V78.238H90.091Zm13.053,0h2.837V80.615h2.962V78.238h-8.78v2.377h2.981v9.631Zm8.239-7.111h.97l1.58-2.7v-2.2h-2.55v2.5H112.6Zm14.148-2.25a3.707,3.707,0,0,0-1.329-1.909,5.051,5.051,0,0,0-3.142-.918,4.426,4.426,0,0,0-3.141,1.042,3.6,3.6,0,0,0-1.221,2.773,3.066,3.066,0,0,0,1.454,2.736,8,8,0,0,0,2.765.937c1.6.324,2.083.648,2.083,1.368,0,.774-.736,1.26-1.921,1.26a2.2,2.2,0,0,1-2.424-1.674l-2.585.594a3.806,3.806,0,0,0,1.436,2.286,5.374,5.374,0,0,0,3.429,1.044,5.908,5.908,0,0,0,3.16-.792,3.843,3.843,0,0,0,1.76-3.186,3.363,3.363,0,0,0-1.544-2.845,8.233,8.233,0,0,0-3.142-1.026c-1.293-.27-1.724-.558-1.724-1.26,0-.666.593-1.062,1.634-1.062a1.906,1.906,0,0,1,2.083,1.422Zm9.229,9.361H137.6V80.615h2.963V78.238h-8.78v2.377h2.98v9.631Zm8.107,0h8.565V87.87h-5.713V85.242h4.489V82.991h-4.489V80.525h5.71V78.238h-8.565V90.246Zm10.089,0h2.657l2.406-4.356,2.406,4.356h3.232l-3.7-6.427,3.268-5.581H160.6l-2.029,3.655-1.939-3.655h-3.267l3.286,5.635Zm15.249,0h2.836V80.615H174V78.238h-8.78v2.377h2.981Zm8.86-3.582h1.616l.862-8.426h-3.357Zm-.574,3.582h2.765V87.474h-2.765Z" transform="translate(0.019 0)"/>
  <path id="_gR8_deals_copy" data-name=" gR8 deals copy" d="M102.505,70.782V64.355H97.586v2.25h2.262a1.932,1.932,0,0,1-.377,1.332,1.875,1.875,0,0,1-1.562.738c-1.58,0-2.442-1.35-2.442-3.8,0-2.575.826-4,2.316-4a1.884,1.884,0,0,1,1.706.99,3.2,3.2,0,0,1,.359,1.206l2.657-.36a4.452,4.452,0,0,0-4.668-4.122c-3.2,0-5.225,2.466-5.225,6.337,0,3.69,1.922,6.031,4.938,6.031a3.8,3.8,0,0,0,3.269-1.557,8.71,8.71,0,0,1,.413,1.386h1.274Zm2.661,0h2.819V66.029H110l1.831,4.753h3.106l-2.208-5.293a3.34,3.34,0,0,0,1.167-.774,3.459,3.459,0,0,0,.9-2.341,3.677,3.677,0,0,0-1.257-2.79,4.438,4.438,0,0,0-3.106-.81h-5.261V70.782Zm2.819-6.8V60.916h1.652c1.131,0,1.346.036,1.688.306a1.494,1.494,0,0,1,.574,1.188,1.6,1.6,0,0,1-.7,1.315,2.329,2.329,0,0,1-1.49.252h-1.724Zm9.279,3.564c0,2.107,1.759,3.421,4.542,3.421,3.052,0,4.956-1.422,4.956-3.709,0-1.4-.629-2.232-2.227-2.952a2.614,2.614,0,0,0,1.814-2.539c0-1.872-1.724-3.168-4.256-3.168-2.639,0-4.416,1.422-4.416,3.546a2.969,2.969,0,0,0,1.723,2.737C117.892,65.471,117.264,66.245,117.264,67.541Zm5.44-4.033c-1.921-.666-2.352-.99-2.352-1.818a1.4,1.4,0,0,1,1.5-1.295q.068,0,.136.017A1.649,1.649,0,0,1,123.907,62,1.625,1.625,0,0,1,122.7,63.508Zm-2.909,3.907a1.6,1.6,0,0,1,1.024-1.476,2.562,2.562,0,0,1,.466-.162,17.885,17.885,0,0,1,1.688.612,1.515,1.515,0,0,1,1.078,1.368c0,.792-.79,1.278-2.047,1.278C120.6,69.035,119.795,68.441,119.795,67.415Zm13.862,3.367h4.112a5.234,5.234,0,0,0,4.2-1.747,6.471,6.471,0,0,0,1.491-4.284,6.347,6.347,0,0,0-1.544-4.3c-1.078-1.224-2.317-1.674-4.615-1.674h-3.645v12Zm2.747-2.251V60.988h1.185a2.4,2.4,0,0,1,2.137.972,4.6,4.6,0,0,1,.844,2.755,4.806,4.806,0,0,1-.862,2.844,2.476,2.476,0,0,1-2.155.972Zm9.118,2.251h8.564V68.405h-5.71V65.777h4.489V63.526h-4.489V61.06h5.71V58.774h-8.567V70.782Zm10.072,0h2.46l.754-2.467h3.86l.736,2.467h3.015l-3.753-12.008h-3.247Zm3.878-4.681,1.275-4.213,1.272,4.212h-2.547Zm9.211,4.681h7.595V68.405h-4.759V58.774h-2.837V70.782Zm18.56-9.362a3.709,3.709,0,0,0-1.329-1.908,5.051,5.051,0,0,0-3.142-.918,4.426,4.426,0,0,0-3.142,1.044,3.6,3.6,0,0,0-1.221,2.772,3.067,3.067,0,0,0,1.454,2.737,8.026,8.026,0,0,0,2.765.936c1.6.324,2.083.648,2.083,1.368,0,.774-.736,1.26-1.921,1.26a2.2,2.2,0,0,1-2.424-1.674l-2.585.594a3.809,3.809,0,0,0,1.436,2.287,5.374,5.374,0,0,0,3.429,1.044,5.908,5.908,0,0,0,3.16-.792,3.844,3.844,0,0,0,1.76-3.187,3.361,3.361,0,0,0-1.544-2.844,8.228,8.228,0,0,0-3.142-1.027c-1.293-.27-1.724-.558-1.724-1.26,0-.666.593-1.062,1.634-1.062a1.906,1.906,0,0,1,2.083,1.422Z" transform="translate(0.019 0)"/>
  <path class="cls-1" transform="translate(0.019 0)"/>
  <g id="phone_icon_copy" data-name="phone icon copy">
    <path id="phone" class="cls-2" d="M138.483,10.908H123.955a2.234,2.234,0,0,0-2.236,2.232h0V41.782a2.234,2.234,0,0,0,2.235,2.232h14.528a2.234,2.234,0,0,0,2.237-2.231h0V13.14a2.234,2.234,0,0,0-2.236-2.232ZM131.219,42.65a1.209,1.209,0,1,1,1.211-1.209A1.209,1.209,0,0,1,131.219,42.65Zm7.823-3.472H123.4V15.744h15.646V39.178Z" transform="translate(0.019 0)"/>
    <path id="phone_ring" data-name="phone ring" class="cls-3" d="M130.919,0a.65.65,0,0,1,.634.664V3.382a.636.636,0,0,1-1.27.071.625.625,0,0,1,0-.071V.664A.651.651,0,0,1,130.919,0Zm6,3.133a.681.681,0,0,1,.233.907l-1.3,2.354a.619.619,0,0,1-.836.261l-.031-.018a.681.681,0,0,1-.233-.907l1.3-2.354a.62.62,0,0,1,.836-.265l.031.017Zm-12.111,0a.682.682,0,0,0-.232.907l1.3,2.354a.619.619,0,0,0,.836.261l.031-.018a.681.681,0,0,0,.233-.907l-1.3-2.354a.622.622,0,0,0-.838-.268l-.035.02Z" transform="translate(0.019 0)"/>
  </g>
  <g>
    <g>
      <path class="cls-4" d="M78.7,57.136a7.7,7.7,0,0,1,1.883-2.183,4.22,4.22,0,0,1,5.654.305c2.984,2.864.889,7.43-2.223,10.925-2.877,3.231-5.313,5.635-5.313,5.635s-2.436-2.4-5.313-5.635c-3.112-3.495-5.208-8.061-2.223-10.925a4.22,4.22,0,0,1,5.654-.305A7.7,7.7,0,0,1,78.7,57.136Z" transform="translate(0.019 0)"/>
      <path class="cls-5" d="M83.994,66.158c-2.868,3.222-5.273,5.617-5.3,5.617s-2.428-2.395-5.3-5.617c-3.1-3.485-5.2-8.053-2.223-10.909a4.211,4.211,0,0,1,5.643-.29A7.675,7.675,0,0,1,78.7,57.137a7.675,7.675,0,0,1,1.877-2.177,4.211,4.211,0,0,1,5.643.29C89.192,58.1,87.1,62.673,83.994,66.158Z" transform="translate(0.019 0)"/>
      <path class="cls-6" d="M83.977,66.133c-2.859,3.213-5.233,5.6-5.28,5.6s-2.421-2.386-5.28-5.6c-3.092-3.475-5.189-8.045-2.223-10.893a4.2,4.2,0,0,1,5.632-.274A7.653,7.653,0,0,1,78.7,57.137a7.653,7.653,0,0,1,1.871-2.171,4.2,4.2,0,0,1,5.632.274C89.166,58.088,87.069,62.658,83.977,66.133Z" transform="translate(0.019 0)"/>
      <path class="cls-7" d="M83.96,66.109c-2.85,3.2-5.193,5.581-5.263,5.581s-2.413-2.376-5.263-5.581c-3.082-3.466-5.18-8.037-2.224-10.877a4.192,4.192,0,0,1,5.621-.259A7.631,7.631,0,0,1,78.7,57.138a7.631,7.631,0,0,1,1.865-2.165,4.192,4.192,0,0,1,5.621.259C89.14,58.072,87.043,62.643,83.96,66.109Z" transform="translate(0.019 0)"/>
      <path class="cls-8" d="M83.943,66.084c-2.841,3.2-5.153,5.562-5.246,5.562s-2.405-2.367-5.246-5.562c-3.073-3.456-5.17-8.029-2.224-10.861a4.183,4.183,0,0,1,5.611-.243A7.609,7.609,0,0,1,78.7,57.139a7.609,7.609,0,0,1,1.859-2.159,4.183,4.183,0,0,1,5.611.243C89.114,58.055,87.016,62.629,83.943,66.084Z" transform="translate(0.019 0)"/>
      <path class="cls-9" d="M83.927,66.06C81.095,69.246,78.814,71.6,78.7,71.6s-2.4-2.358-5.229-5.544c-3.063-3.446-5.161-8.021-2.224-10.845a4.174,4.174,0,0,1,5.6-.228A7.587,7.587,0,0,1,78.7,57.14a7.587,7.587,0,0,1,1.853-2.153,4.174,4.174,0,0,1,5.6.228C89.087,58.039,86.989,62.614,83.927,66.06Z" transform="translate(0.019 0)"/>
      <path class="cls-10" d="M83.91,66.036A70.17,70.17,0,0,1,78.7,71.562a70.17,70.17,0,0,1-5.212-5.526c-3.053-3.436-5.151-8.013-2.224-10.829a4.165,4.165,0,0,1,5.589-.213A7.565,7.565,0,0,1,78.7,57.141a7.565,7.565,0,0,1,1.847-2.147,4.165,4.165,0,0,1,5.589.213C89.061,58.022,86.963,62.6,83.91,66.036Z" transform="translate(0.019 0)"/>
      <path class="cls-11" d="M83.893,66.011a64.859,64.859,0,0,1-5.2,5.508,64.859,64.859,0,0,1-5.2-5.508c-3.043-3.426-5.142-8.005-2.224-10.813a4.156,4.156,0,0,1,5.578-.2A7.542,7.542,0,0,1,78.7,57.142,7.542,7.542,0,0,1,80.538,55a4.156,4.156,0,0,1,5.578.2C89.035,58.006,86.936,62.585,83.893,66.011Z" transform="translate(0.019 0)"/>
      <path class="cls-12" d="M83.876,65.987a60.254,60.254,0,0,1-5.179,5.49,60.254,60.254,0,0,1-5.179-5.49c-3.033-3.417-5.133-8-2.224-10.8a4.147,4.147,0,0,1,5.568-.182A7.52,7.52,0,0,1,78.7,57.142a7.52,7.52,0,0,1,1.835-2.135,4.147,4.147,0,0,1,5.568.182C89.009,57.989,86.909,62.57,83.876,65.987Z" transform="translate(0.019 0)"/>
      <path class="cls-13" d="M83.859,65.962A56.225,56.225,0,0,1,78.7,71.434a56.225,56.225,0,0,1-5.162-5.472c-3.023-3.407-5.123-7.989-2.224-10.781a4.139,4.139,0,0,1,5.557-.166A7.5,7.5,0,0,1,78.7,57.143a7.5,7.5,0,0,1,1.829-2.128,4.139,4.139,0,0,1,5.557.166C88.983,57.973,86.883,62.555,83.859,65.962Z" transform="translate(0.019 0)"/>
      <path class="cls-14" d="M83.843,65.938A52.669,52.669,0,0,1,78.7,71.391a52.669,52.669,0,0,1-5.145-5.454c-3.014-3.4-5.114-7.981-2.224-10.765a4.13,4.13,0,0,1,5.546-.151A7.476,7.476,0,0,1,78.7,57.144a7.476,7.476,0,0,1,1.823-2.122,4.13,4.13,0,0,1,5.546.151C88.957,57.956,86.856,62.54,83.843,65.938Z" transform="translate(0.019 0)"/>
      <path class="cls-15" d="M83.826,65.913c-2.777,3.132-4.872,5.436-5.128,5.436s-2.351-2.3-5.128-5.436c-3-3.387-5.1-7.973-2.224-10.749a4.121,4.121,0,0,1,5.535-.135A7.454,7.454,0,0,1,78.7,57.145a7.454,7.454,0,0,1,1.817-2.116,4.121,4.121,0,0,1,5.535.135C88.93,57.94,86.83,62.526,83.826,65.913Z" transform="translate(0.019 0)"/>
      <path class="cls-16" d="M83.809,65.889c-2.768,3.123-4.832,5.418-5.112,5.418s-2.343-2.295-5.112-5.418c-2.994-3.378-5.1-7.965-2.224-10.733a4.113,4.113,0,0,1,5.524-.12,7.432,7.432,0,0,1,1.811,2.11,7.432,7.432,0,0,1,1.811-2.11,4.113,4.113,0,0,1,5.524.12C88.9,57.923,86.8,62.511,83.809,65.889Z" transform="translate(0.019 0)"/>
      <path class="cls-17" d="M83.792,65.864c-2.759,3.114-4.792,5.4-5.095,5.4s-2.336-2.286-5.095-5.4c-2.984-3.368-5.086-7.957-2.224-10.717a4.1,4.1,0,0,1,5.514-.1,7.41,7.41,0,0,1,1.805,2.1,7.41,7.41,0,0,1,1.805-2.1,4.1,4.1,0,0,1,5.514.1C88.878,57.907,86.776,62.5,83.792,65.864Z" transform="translate(0.019 0)"/>
      <path class="cls-18" d="M83.775,65.84c-2.75,3.1-4.752,5.381-5.078,5.381s-2.328-2.277-5.078-5.381c-2.974-3.358-5.076-7.949-2.224-10.7a4.1,4.1,0,0,1,5.5-.089,7.388,7.388,0,0,1,1.8,2.1,7.388,7.388,0,0,1,1.8-2.1,4.1,4.1,0,0,1,5.5.089C88.852,57.89,86.75,62.482,83.775,65.84Z" transform="translate(0.019 0)"/>
      <path class="cls-19" d="M83.759,65.815c-2.741,3.1-4.711,5.363-5.061,5.363s-2.32-2.267-5.061-5.363c-2.964-3.348-5.067-7.941-2.224-10.685a4.088,4.088,0,0,1,5.492-.074A7.366,7.366,0,0,1,78.7,57.148a7.366,7.366,0,0,1,1.793-2.092,4.088,4.088,0,0,1,5.492.074C88.826,57.874,86.723,62.467,83.759,65.815Z" transform="translate(0.019 0)"/>
      <path class="cls-20" d="M83.742,65.791c-2.732,3.087-4.671,5.345-5.044,5.345s-2.313-2.258-5.044-5.345C70.7,62.452,68.6,57.857,71.429,55.122c2.162-2.087,4.608-.726,5.481-.058A7.343,7.343,0,0,1,78.7,57.149a7.343,7.343,0,0,1,1.787-2.086c.873-.667,3.32-2.029,5.481.058C88.8,57.857,86.7,62.452,83.742,65.791Z" transform="translate(0.019 0)"/>
      <path class="cls-21" d="M83.725,65.766C81,68.844,79.094,71.093,78.7,71.093s-2.3-2.249-5.027-5.327c-2.945-3.329-5.048-7.926-2.224-10.653,2.154-2.081,4.6-.708,5.47-.043A7.321,7.321,0,0,1,78.7,57.15a7.321,7.321,0,0,1,1.781-2.08c.871-.665,3.316-2.038,5.47.043C88.773,57.841,86.67,62.438,83.725,65.766Z" transform="translate(0.019 0)"/>
      <path class="cls-22" d="M83.708,65.742c-2.713,3.069-4.591,5.309-5.011,5.309s-2.3-2.24-5.011-5.309c-2.935-3.319-5.039-7.918-2.225-10.637,2.147-2.075,4.592-.691,5.46-.027A7.3,7.3,0,0,1,78.7,57.151a7.3,7.3,0,0,1,1.775-2.073c.868-.663,3.312-2.048,5.46.027C88.747,57.824,86.643,62.423,83.708,65.742Z" transform="translate(0.019 0)"/>
      <path class="cls-23" d="M83.691,65.717c-2.7,3.06-4.551,5.291-4.994,5.291s-2.29-2.231-4.994-5.291c-2.925-3.309-5.03-7.91-2.225-10.621,2.14-2.069,4.584-.673,5.449-.012a7.277,7.277,0,0,1,1.77,2.067,7.277,7.277,0,0,1,1.77-2.067c.865-.661,3.309-2.057,5.449.012C88.721,57.808,86.616,62.408,83.691,65.717Z" transform="translate(0.019 0)"/>
      <path class="cls-24" d="M83.675,65.693c-2.7,3.051-4.511,5.273-4.977,5.273s-2.282-2.222-4.977-5.273c-2.915-3.3-5.02-7.9-2.225-10.605,2.133-2.063,4.576-.656,5.438,0A7.255,7.255,0,0,1,78.7,57.152a7.255,7.255,0,0,1,1.764-2.061c.862-.659,3.305-2.066,5.438,0C88.695,57.791,86.59,62.393,83.675,65.693Z" transform="translate(0.019 0)"/>
      <path class="cls-25" d="M83.658,65.668c-2.686,3.041-4.471,5.254-4.96,5.254s-2.274-2.213-4.96-5.254c-2.905-3.29-5.011-7.894-2.225-10.589,2.126-2.057,4.568-.639,5.427.019A7.233,7.233,0,0,1,78.7,57.153,7.233,7.233,0,0,1,80.455,55.1c.859-.658,3.3-2.076,5.427-.019C88.669,57.775,86.563,62.379,83.658,65.668Z" transform="translate(0.019 0)"/>
      <path class="cls-26" d="M83.641,65.644C80.964,68.676,79.21,70.88,78.7,70.88s-2.266-2.2-4.943-5.236c-2.9-3.28-5-7.886-2.225-10.573,2.118-2.051,4.561-.621,5.417.034A7.211,7.211,0,0,1,78.7,57.154,7.211,7.211,0,0,1,80.449,55.1c.856-.656,3.3-2.085,5.417-.034C88.642,57.758,86.536,62.364,83.641,65.644Z" transform="translate(0.019 0)"/>
      <path class="cls-27" d="M83.624,65.619c-2.668,3.023-4.391,5.218-4.927,5.218s-2.259-2.195-4.927-5.218c-2.886-3.27-4.992-7.878-2.225-10.557,2.111-2.044,4.553-.6,5.406.05A7.189,7.189,0,0,1,78.7,57.155a7.189,7.189,0,0,1,1.746-2.043c.853-.654,3.295-2.094,5.406-.05C88.616,57.742,86.51,62.349,83.624,65.619Z" transform="translate(0.019 0)"/>
      <path class="cls-28" d="M83.607,65.595c-2.659,3.014-4.35,5.2-4.91,5.2s-2.251-2.186-4.91-5.2c-2.876-3.26-4.983-7.87-2.225-10.541,2.1-2.038,4.545-.586,5.395.065a7.167,7.167,0,0,1,1.74,2.037,7.167,7.167,0,0,1,1.74-2.037c.85-.652,3.291-2.1,5.395-.065C88.59,57.725,86.483,62.335,83.607,65.595Z" transform="translate(0.019 0)"/>
      <path class="cls-29" d="M83.591,65.571c-2.65,3.005-4.31,5.182-4.893,5.182s-2.243-2.177-4.893-5.182c-2.866-3.251-4.973-7.862-2.225-10.525,2.1-2.032,4.537-.569,5.384.081A7.145,7.145,0,0,1,78.7,57.156a7.145,7.145,0,0,1,1.734-2.031c.847-.65,3.287-2.113,5.384-.081C88.564,57.709,86.456,62.32,83.591,65.571Z" transform="translate(0.019 0)"/>
      <path class="cls-30" d="M83.574,65.546c-2.641,3-4.27,5.164-4.876,5.164s-2.236-2.168-4.876-5.164c-2.856-3.241-4.964-7.854-2.225-10.509,2.09-2.026,4.529-.552,5.373.1A7.122,7.122,0,0,1,78.7,57.157a7.122,7.122,0,0,1,1.728-2.025c.844-.648,3.284-2.122,5.373-.1C88.538,57.692,86.43,62.305,83.574,65.546Z" transform="translate(0.019 0)"/>
      <path class="cls-31" d="M83.557,65.522c-2.632,2.987-4.23,5.146-4.859,5.146s-2.228-2.158-4.859-5.146c-2.846-3.231-4.955-7.846-2.225-10.493,2.082-2.02,4.521-.534,5.363.111A7.1,7.1,0,0,1,78.7,57.158a7.1,7.1,0,0,1,1.722-2.019c.841-.646,3.28-2.132,5.363-.111C88.511,57.676,86.4,62.291,83.557,65.522Z" transform="translate(0.019 0)"/>
      <path class="cls-32" d="M83.54,65.5c-2.622,2.978-4.19,5.128-4.843,5.128s-2.22-2.149-4.843-5.128c-2.836-3.221-4.945-7.838-2.225-10.477,2.075-2.014,4.513-.517,5.352.127A7.078,7.078,0,0,1,78.7,57.159a7.078,7.078,0,0,1,1.716-2.012c.839-.644,3.277-2.141,5.352-.127C88.485,57.659,86.376,62.276,83.54,65.5Z" transform="translate(0.019 0)"/>
      <path class="cls-33" d="M83.523,65.473c-2.613,2.969-4.15,5.11-4.826,5.11s-2.212-2.14-4.826-5.11c-2.827-3.211-4.936-7.83-2.225-10.462,2.068-2.008,4.505-.5,5.341.142A7.056,7.056,0,0,1,78.7,57.16a7.056,7.056,0,0,1,1.71-2.006c.836-.642,3.273-2.15,5.341-.142C88.459,57.643,86.35,62.261,83.523,65.473Z" transform="translate(0.019 0)"/>
      <path class="cls-34" d="M83.506,65.448c-2.6,2.96-4.11,5.091-4.809,5.091s-2.2-2.131-4.809-5.091c-2.817-3.2-4.926-7.822-2.225-10.446,2.061-2,4.5-.482,5.33.158a7.034,7.034,0,0,1,1.7,2,7.034,7.034,0,0,1,1.7-2c.833-.64,3.269-2.159,5.33-.158C88.433,57.626,86.323,62.247,83.506,65.448Z" transform="translate(0.019 0)"/>
      <path class="cls-35" d="M83.49,65.424c-2.6,2.951-4.07,5.073-4.792,5.073s-2.2-2.122-4.792-5.073c-2.807-3.192-4.917-7.814-2.225-10.43,2.054-2,4.49-.465,5.319.173a7.012,7.012,0,0,1,1.7,1.994,7.012,7.012,0,0,1,1.7-1.994c.83-.638,3.266-2.169,5.319-.173C88.407,57.61,86.3,62.232,83.49,65.424Z" transform="translate(0.019 0)"/>
      <path class="cls-36" d="M83.473,65.4c-2.586,2.942-4.029,5.055-4.775,5.055s-2.189-2.113-4.775-5.055c-2.8-3.182-4.908-7.806-2.225-10.414,2.046-1.989,4.482-.447,5.309.189A6.99,6.99,0,0,1,78.7,57.162a6.99,6.99,0,0,1,1.692-1.988c.827-.636,3.262-2.178,5.309-.189C88.381,57.593,86.27,62.217,83.473,65.4Z" transform="translate(0.019 0)"/>
      <path class="cls-37" d="M83.456,65.375c-2.577,2.933-3.989,5.037-4.759,5.037s-2.182-2.1-4.759-5.037c-2.787-3.172-4.9-7.8-2.225-10.4,2.039-1.983,4.474-.43,5.3.2A6.968,6.968,0,0,1,78.7,57.163a6.968,6.968,0,0,1,1.686-1.982c.824-.634,3.259-2.187,5.3-.2C88.354,57.577,86.243,62.2,83.456,65.375Z" transform="translate(0.019 0)"/>
      <path class="cls-38" d="M83.439,65.35c-2.568,2.924-3.949,5.019-4.742,5.019s-2.174-2.095-4.742-5.019c-2.777-3.163-4.889-7.79-2.226-10.382,2.032-1.977,4.466-.413,5.287.22a6.946,6.946,0,0,1,1.68,1.976,6.946,6.946,0,0,1,1.68-1.976c.821-.632,3.255-2.2,5.287-.22C88.328,57.56,86.217,62.188,83.439,65.35Z" transform="translate(0.019 0)"/>
      <path class="cls-39" d="M83.422,65.326c-2.559,2.915-3.909,5-4.725,5s-2.166-2.086-4.725-5c-2.767-3.153-4.88-7.782-2.226-10.366,2.025-1.971,4.458-.4,5.276.235a6.924,6.924,0,0,1,1.674,1.97,6.924,6.924,0,0,1,1.674-1.97c.818-.63,3.252-2.206,5.276-.235C88.3,57.544,86.19,62.173,83.422,65.326Z" transform="translate(0.019 0)"/>
      <path class="cls-40" d="M78.7,57.166A6.9,6.9,0,0,1,80.366,55.2c.815-.628,3.248-2.215,5.266-.25,2.644,2.576.532,7.207-2.226,10.35-2.55,2.906-3.869,4.983-4.708,4.983s-2.159-2.077-4.708-4.983c-2.758-3.143-4.87-7.774-2.226-10.35,2.018-1.965,4.45-.378,5.266.25A6.9,6.9,0,0,1,78.7,57.166Z" transform="translate(0.019 0)"/>
    </g>
    <g>
      <path class="cls-40" d="M78.7,57.329a6.877,6.877,0,0,1,1.711-1.941c.836-.621,3.463-2.06,5.533-.118,2.713,2.545.415,6.992-2.414,10.1-2.616,2.872-3.709,4.275-4.83,4.275s-2.214-1.4-4.83-4.275c-2.829-3.106-5.127-7.553-2.414-10.1,2.07-1.942,4.7-.5,5.533.118A6.877,6.877,0,0,1,78.7,57.329Z" transform="translate(0.019 0)"/>
      <path class="cls-41" d="M83.525,65.359c-2.614,2.868-3.734,4.251-4.827,4.251s-2.213-1.383-4.827-4.251c-2.827-3.1-5.115-7.538-2.4-10.08,2.069-1.939,4.685-.5,5.52.121a6.851,6.851,0,0,1,1.71,1.943,6.851,6.851,0,0,1,1.71-1.943c.836-.62,3.452-2.061,5.52-.121C88.64,57.821,86.352,62.257,83.525,65.359Z" transform="translate(0.019 0)"/>
      <path class="cls-42" d="M83.522,65.348c-2.613,2.865-3.758,4.228-4.825,4.228s-2.212-1.363-4.825-4.228c-2.826-3.1-5.1-7.523-2.393-10.062,2.067-1.937,4.673-.494,5.508.125a6.826,6.826,0,0,1,1.71,1.946,6.826,6.826,0,0,1,1.71-1.946c.835-.619,3.44-2.062,5.508-.125C88.625,57.826,86.348,62.25,83.522,65.348Z" transform="translate(0.019 0)"/>
      <path class="cls-43" d="M83.519,65.338c-2.611,2.861-3.783,4.2-4.822,4.2s-2.211-1.343-4.822-4.2c-2.824-3.094-5.091-7.507-2.382-10.043,2.066-1.935,4.661-.49,5.5.129A6.8,6.8,0,0,1,78.7,57.373a6.8,6.8,0,0,1,1.709-1.949c.835-.618,3.429-2.064,5.5-.129C88.61,57.831,86.344,62.244,83.519,65.338Z" transform="translate(0.019 0)"/>
      <path class="cls-44" d="M83.517,65.328c-2.61,2.857-3.808,4.181-4.819,4.181s-2.209-1.323-4.819-4.181c-2.823-3.09-5.078-7.492-2.371-10.025,2.065-1.932,4.649-.485,5.483.133A6.777,6.777,0,0,1,78.7,57.388a6.777,6.777,0,0,1,1.708-1.952c.834-.618,3.418-2.065,5.483-.133C88.595,57.835,86.339,62.237,83.517,65.328Z" transform="translate(0.019 0)"/>
      <path class="cls-45" d="M83.514,65.317c-2.608,2.854-3.832,4.157-4.816,4.157s-2.208-1.3-4.816-4.157c-2.821-3.087-5.066-7.477-2.361-10.006,2.064-1.93,4.636-.481,5.471.136A6.753,6.753,0,0,1,78.7,57.4,6.753,6.753,0,0,1,80.4,55.447c.834-.617,3.407-2.066,5.471-.136C88.58,57.84,86.335,62.231,83.514,65.317Z" transform="translate(0.019 0)"/>
      <path class="cls-46" d="M83.511,65.307c-2.607,2.85-3.857,4.134-4.814,4.134s-2.207-1.284-4.814-4.134c-2.819-3.083-5.054-7.462-2.35-9.988,2.063-1.927,4.624-.476,5.458.14A6.73,6.73,0,0,1,78.7,57.417,6.73,6.73,0,0,1,80.4,55.459c.834-.616,3.4-2.067,5.458-.14C88.565,57.845,86.331,62.224,83.511,65.307Z" transform="translate(0.019 0)"/>
      <path class="cls-47" d="M83.508,65.3c-2.605,2.847-3.882,4.11-4.811,4.11s-2.206-1.264-4.811-4.11c-2.818-3.079-5.042-7.446-2.339-9.969,2.062-1.925,4.612-.472,5.446.144a6.707,6.707,0,0,1,1.7,1.961,6.707,6.707,0,0,1,1.7-1.961c.833-.615,3.384-2.069,5.446-.144C88.55,57.85,86.326,62.218,83.508,65.3Z" transform="translate(0.019 0)"/>
      <path class="cls-48" d="M83.506,65.286c-2.6,2.843-3.906,4.087-4.808,4.087s-2.2-1.244-4.808-4.087c-2.816-3.075-5.029-7.431-2.329-9.951,2.06-1.922,4.6-.467,5.433.147a6.684,6.684,0,0,1,1.7,1.964,6.684,6.684,0,0,1,1.7-1.964c.833-.615,3.373-2.07,5.433-.147C88.535,57.855,86.322,62.211,83.506,65.286Z" transform="translate(0.019 0)"/>
      <path class="cls-49" d="M83.5,65.276c-2.6,2.839-3.931,4.063-4.806,4.063s-2.2-1.224-4.806-4.063c-2.815-3.071-5.017-7.416-2.318-9.933,2.059-1.92,4.588-.463,5.421.151a6.661,6.661,0,0,1,1.7,1.967,6.661,6.661,0,0,1,1.7-1.967c.832-.614,3.361-2.071,5.421-.151C88.52,57.86,86.318,62.2,83.5,65.276Z" transform="translate(0.019 0)"/>
      <path class="cls-50" d="M83.5,65.265c-2.6,2.836-3.955,4.04-4.8,4.04s-2.2-1.2-4.8-4.04c-2.813-3.067-5-7.4-2.307-9.914,2.058-1.918,4.576-.458,5.408.155a6.639,6.639,0,0,1,1.7,1.97,6.639,6.639,0,0,1,1.7-1.97c.832-.613,3.35-2.072,5.408-.155C88.505,57.865,86.313,62.2,83.5,65.265Z" transform="translate(0.019 0)"/>
      <path class="cls-51" d="M83.5,65.255c-2.6,2.832-3.98,4.016-4.8,4.016s-2.2-1.184-4.8-4.016c-2.811-3.063-4.992-7.386-2.3-9.9,2.057-1.915,4.564-.454,5.4.159a6.618,6.618,0,0,1,1.7,1.973,6.618,6.618,0,0,1,1.7-1.973c.831-.612,3.339-2.074,5.4-.159C88.49,57.869,86.309,62.192,83.5,65.255Z" transform="translate(0.019 0)"/>
      <path class="cls-52" d="M83.495,65.245c-2.6,2.829-4,3.993-4.8,3.993s-2.2-1.164-4.8-3.993c-2.81-3.059-4.98-7.37-2.286-9.877,2.056-1.913,4.552-.449,5.383.162a6.6,6.6,0,0,1,1.7,1.976,6.6,6.6,0,0,1,1.7-1.976c.831-.611,3.327-2.075,5.383-.162C88.475,57.874,86.3,62.185,83.495,65.245Z" transform="translate(0.019 0)"/>
      <path class="cls-53" d="M83.492,65.234C80.9,68.059,79.463,69.2,78.7,69.2s-2.2-1.145-4.795-3.969c-2.808-3.055-4.968-7.355-2.275-9.859,2.055-1.91,4.54-.445,5.371.166a6.575,6.575,0,0,1,1.7,1.979,6.575,6.575,0,0,1,1.7-1.979c.83-.611,3.316-2.076,5.371-.166C88.46,57.879,86.3,62.179,83.492,65.234Z" transform="translate(0.019 0)"/>
      <path class="cls-54" d="M83.489,65.224c-2.595,2.821-4.054,3.946-4.792,3.946s-2.2-1.125-4.792-3.946c-2.807-3.051-4.956-7.34-2.264-9.84,2.053-1.908,4.528-.44,5.358.17a6.555,6.555,0,0,1,1.7,1.982,6.555,6.555,0,0,1,1.7-1.982c.83-.61,3.3-2.078,5.358-.17C88.445,57.884,86.3,62.172,83.489,65.224Z" transform="translate(0.019 0)"/>
      <path class="cls-55" d="M83.487,65.213c-2.594,2.818-4.078,3.922-4.789,3.922s-2.2-1.1-4.789-3.922c-2.805-3.048-4.943-7.325-2.253-9.822,2.052-1.905,4.516-.436,5.346.173a6.534,6.534,0,0,1,1.7,1.985,6.534,6.534,0,0,1,1.7-1.985c.829-.609,3.293-2.079,5.346-.173C88.43,57.889,86.292,62.166,83.487,65.213Z" transform="translate(0.019 0)"/>
      <path class="cls-56" d="M83.484,65.2c-2.592,2.814-4.1,3.9-4.786,3.9s-2.194-1.085-4.786-3.9c-2.8-3.044-4.931-7.309-2.243-9.8,2.051-1.9,4.5-.431,5.333.177a6.514,6.514,0,0,1,1.7,1.988,6.514,6.514,0,0,1,1.7-1.988c.829-.608,3.282-2.08,5.333-.177C88.415,57.894,86.287,62.159,83.484,65.2Z" transform="translate(0.019 0)"/>
      <path class="cls-57" d="M83.481,65.193C80.891,68,79.354,69.068,78.7,69.068S76.5,68,73.914,65.193c-2.8-3.04-4.919-7.294-2.232-9.785,2.05-1.9,4.492-.427,5.321.181a6.5,6.5,0,0,1,1.7,1.991,6.5,6.5,0,0,1,1.7-1.991c.828-.608,3.271-2.081,5.321-.181C88.4,57.9,86.283,62.153,83.481,65.193Z" transform="translate(0.019 0)"/>
      <path class="cls-58" d="M83.479,65.182c-2.589,2.807-4.152,3.852-4.781,3.852s-2.192-1.045-4.781-3.852c-2.8-3.036-4.907-7.279-2.221-9.767,2.049-1.9,4.48-.422,5.308.185A6.475,6.475,0,0,1,78.7,57.594,6.475,6.475,0,0,1,80.392,55.6c.828-.607,3.259-2.083,5.308-.185C88.385,57.9,86.279,62.146,83.479,65.182Z" transform="translate(0.019 0)"/>
      <path class="cls-59" d="M83.476,65.172C80.888,67.975,79.3,69,78.7,69s-2.191-1.025-4.778-3.829c-2.8-3.032-4.894-7.264-2.211-9.748,2.048-1.9,4.468-.418,5.3.188a6.456,6.456,0,0,1,1.693,2,6.456,6.456,0,0,1,1.693-2c.827-.606,3.248-2.084,5.3-.188C88.37,57.908,86.275,62.14,83.476,65.172Z" transform="translate(0.019 0)"/>
      <path class="cls-60" d="M83.473,65.162c-2.586,2.8-4.2,3.805-4.776,3.805s-2.189-1.005-4.776-3.805c-2.8-3.028-4.882-7.248-2.2-9.73,2.046-1.893,4.456-.413,5.283.192a6.437,6.437,0,0,1,1.692,2,6.437,6.437,0,0,1,1.692-2c.827-.605,3.237-2.085,5.283-.192C88.355,57.913,86.27,62.133,83.473,65.162Z" transform="translate(0.019 0)"/>
      <path class="cls-61" d="M83.47,65.151c-2.585,2.8-4.226,3.782-4.773,3.782s-2.188-.986-4.773-3.782c-2.8-3.024-4.87-7.233-2.189-9.711,2.045-1.891,4.444-.409,5.271.2a6.419,6.419,0,0,1,1.691,2,6.419,6.419,0,0,1,1.691-2c.826-.6,3.225-2.086,5.271-.2C88.34,57.918,86.266,62.127,83.47,65.151Z" transform="translate(0.019 0)"/>
      <path class="cls-62" d="M83.468,65.141C80.884,67.933,79.217,68.9,78.7,68.9s-2.187-.966-4.77-3.758c-2.794-3.02-4.858-7.218-2.178-9.693,2.044-1.888,4.432-.4,5.258.2a6.4,6.4,0,0,1,1.69,2.006,6.4,6.4,0,0,1,1.69-2.006c.826-.6,3.214-2.088,5.258-.2C88.325,57.923,86.262,62.121,83.468,65.141Z" transform="translate(0.019 0)"/>
      <path class="cls-63" d="M83.465,65.13c-2.582,2.789-4.275,3.735-4.767,3.735s-2.186-.946-4.767-3.735c-2.792-3.016-4.845-7.2-2.168-9.675,2.043-1.886,4.42-.4,5.246.2A6.382,6.382,0,0,1,78.7,57.668a6.382,6.382,0,0,1,1.689-2.009c.826-.6,3.2-2.089,5.246-.2C88.31,57.928,86.257,62.114,83.465,65.13Z" transform="translate(0.019 0)"/>
      <path class="cls-64" d="M83.462,65.12c-2.58,2.785-4.3,3.711-4.765,3.711s-2.184-.926-4.765-3.711c-2.791-3.012-4.833-7.187-2.157-9.656,2.042-1.883,4.408-.4,5.233.207A6.365,6.365,0,0,1,78.7,57.683a6.365,6.365,0,0,1,1.688-2.012c.825-.6,3.191-2.09,5.233-.207C88.3,57.933,86.253,62.108,83.462,65.12Z" transform="translate(0.019 0)"/>
      <path class="cls-65" d="M83.46,65.11C80.881,67.891,79.135,68.8,78.7,68.8s-2.183-.906-4.762-3.688c-2.789-3.009-4.821-7.172-2.146-9.638,2.041-1.881,4.4-.391,5.221.211A6.347,6.347,0,0,1,78.7,57.7a6.347,6.347,0,0,1,1.687-2.015c.825-.6,3.18-2.092,5.221-.211C88.28,57.937,86.249,62.1,83.46,65.11Z" transform="translate(0.019 0)"/>
      <path class="cls-66" d="M83.457,65.1c-2.577,2.778-4.349,3.664-4.759,3.664s-2.182-.886-4.759-3.664c-2.788-3-4.809-7.157-2.135-9.619,2.039-1.879,4.384-.386,5.208.214A6.33,6.33,0,0,1,78.7,57.712a6.33,6.33,0,0,1,1.686-2.018c.824-.6,3.169-2.093,5.208-.214C88.265,57.942,86.244,62.095,83.457,65.1Z" transform="translate(0.019 0)"/>
      <path class="cls-67" d="M83.454,65.089C80.878,67.863,79.08,68.73,78.7,68.73s-2.181-.866-4.757-3.641c-2.786-3-4.8-7.142-2.125-9.6,2.038-1.876,4.372-.382,5.2.218A6.313,6.313,0,0,1,78.7,57.727a6.313,6.313,0,0,1,1.685-2.021c.824-.6,3.157-2.094,5.2-.218C88.25,57.947,86.24,62.088,83.454,65.089Z" transform="translate(0.019 0)"/>
      <path class="cls-68" d="M83.451,65.078c-2.574,2.771-4.4,3.617-4.754,3.617s-2.179-.846-4.754-3.617c-2.784-3-4.784-7.127-2.114-9.582,2.037-1.874,4.36-.377,5.183.222A6.3,6.3,0,0,1,78.7,57.742a6.3,6.3,0,0,1,1.684-2.024c.823-.6,3.146-2.1,5.183-.222C88.235,57.952,86.236,62.082,83.451,65.078Z" transform="translate(0.019 0)"/>
      <path class="cls-69" d="M83.449,65.068c-2.573,2.767-4.423,3.594-4.751,3.594s-2.178-.827-4.751-3.594c-2.783-2.993-4.772-7.111-2.1-9.564,2.036-1.871,4.348-.373,5.171.225A6.28,6.28,0,0,1,78.7,57.756a6.28,6.28,0,0,1,1.684-2.027c.823-.6,3.135-2.1,5.171-.225C88.22,57.957,86.231,62.075,83.449,65.068Z" transform="translate(0.019 0)"/>
      <path class="cls-70" d="M83.446,65.058c-2.571,2.764-4.448,3.57-4.748,3.57s-2.177-.807-4.748-3.57c-2.781-2.989-4.76-7.1-2.092-9.545,2.035-1.869,4.336-.368,5.158.229a6.264,6.264,0,0,1,1.683,2.03,6.264,6.264,0,0,1,1.683-2.03c.822-.6,3.124-2.1,5.158-.229C88.205,57.962,86.227,62.069,83.446,65.058Z" transform="translate(0.019 0)"/>
      <path class="cls-71" d="M83.443,65.047c-2.57,2.76-4.472,3.547-4.746,3.547s-2.176-.787-4.746-3.547c-2.78-2.985-4.747-7.081-2.082-9.527,2.034-1.866,4.324-.364,5.146.233A6.248,6.248,0,0,1,78.7,57.786a6.248,6.248,0,0,1,1.682-2.033c.822-.6,3.112-2.1,5.146-.233C88.191,57.966,86.223,62.062,83.443,65.047Z" transform="translate(0.019 0)"/>
      <path class="cls-72" d="M83.44,65.037c-2.568,2.756-4.5,3.523-4.743,3.523s-2.174-.767-4.743-3.523c-2.778-2.981-4.735-7.066-2.071-9.509,2.033-1.864,4.312-.359,5.133.237A6.232,6.232,0,0,1,78.7,57.8a6.232,6.232,0,0,1,1.681-2.036c.821-.6,3.1-2.1,5.133-.237C88.176,57.971,86.218,62.056,83.44,65.037Z" transform="translate(0.019 0)"/>
      <path class="cls-73" d="M83.438,65.027c-2.567,2.753-4.522,3.5-4.74,3.5s-2.173-.747-4.74-3.5c-2.776-2.977-4.723-7.05-2.06-9.49,2.031-1.861,4.3-.355,5.121.24a6.217,6.217,0,0,1,1.68,2.039,6.217,6.217,0,0,1,1.68-2.039c.821-.6,3.09-2.1,5.121-.24C88.161,57.976,86.214,62.049,83.438,65.027Z" transform="translate(0.019 0)"/>
      <path class="cls-74" d="M83.435,65.016c-2.566,2.749-4.546,3.476-4.738,3.476s-2.172-.727-4.738-3.476c-2.775-2.973-4.711-7.035-2.05-9.472,2.03-1.859,4.288-.35,5.108.244A6.2,6.2,0,0,1,78.7,57.83a6.2,6.2,0,0,1,1.679-2.041c.82-.594,3.078-2.1,5.108-.244C88.146,57.981,86.21,62.043,83.435,65.016Z" transform="translate(0.019 0)"/>
      <path class="cls-75" d="M83.432,65.006c-2.564,2.746-4.571,3.453-4.735,3.453s-2.171-.707-4.735-3.453c-2.773-2.97-4.7-7.02-2.039-9.453,2.029-1.857,4.276-.346,5.1.248A6.187,6.187,0,0,1,78.7,57.845,6.187,6.187,0,0,1,80.375,55.8c.82-.594,3.067-2.1,5.1-.248C88.131,57.986,86.206,62.036,83.432,65.006Z" transform="translate(0.019 0)"/>
      <path class="cls-76" d="M83.43,65c-2.563,2.742-4.6,3.43-4.732,3.43s-2.17-.688-4.732-3.43c-2.772-2.966-4.686-7-2.028-9.435,2.028-1.854,4.264-.341,5.083.251A6.172,6.172,0,0,1,78.7,57.859a6.172,6.172,0,0,1,1.677-2.047c.819-.593,3.056-2.106,5.083-.251C88.116,57.991,86.2,62.03,83.43,65Z" transform="translate(0.019 0)"/>
      <path class="cls-77" d="M83.427,64.985c-2.561,2.738-4.62,3.406-4.729,3.406s-2.168-.668-4.729-3.406C71.2,62.023,69.294,58,71.951,55.569c2.027-1.852,4.252-.337,5.071.255a6.157,6.157,0,0,1,1.676,2.05,6.157,6.157,0,0,1,1.676-2.05c.819-.592,3.044-2.107,5.071-.255C88.1,58,86.2,62.023,83.427,64.985Z" transform="translate(0.019 0)"/>
      <path class="cls-78" d="M83.424,64.975c-2.56,2.735-4.645,3.383-4.727,3.383s-2.167-.648-4.727-3.383c-2.768-2.958-4.662-6.974-2.007-9.4,2.026-1.849,4.24-.332,5.058.259A6.143,6.143,0,0,1,78.7,57.889a6.143,6.143,0,0,1,1.675-2.053c.818-.591,3.033-2.108,5.058-.259C88.086,58,86.193,62.017,83.424,64.975Z" transform="translate(0.019 0)"/>
      <path class="cls-79" d="M83.421,64.964A11.5,11.5,0,0,1,78.7,68.323a11.5,11.5,0,0,1-4.724-3.359c-2.767-2.954-4.649-6.959-2-9.38,2.024-1.847,4.228-.328,5.046.263A6.129,6.129,0,0,1,78.7,57.9a6.129,6.129,0,0,1,1.674-2.056c.818-.59,3.022-2.109,5.046-.263C88.071,58.005,86.188,62.01,83.421,64.964Z" transform="translate(0.019 0)"/>
      <path class="cls-80" d="M83.419,64.954A11.493,11.493,0,0,1,78.7,68.289a11.493,11.493,0,0,1-4.721-3.336c-2.765-2.95-4.637-6.944-1.985-9.361,2.023-1.844,4.216-.323,5.033.266A6.115,6.115,0,0,1,78.7,57.918a6.115,6.115,0,0,1,1.673-2.059c.818-.59,3.01-2.111,5.033-.266C88.056,58.01,86.184,62,83.419,64.954Z" transform="translate(0.019 0)"/>
      <path class="cls-81" d="M78.7,57.933a6.1,6.1,0,0,1,1.672-2.062c.817-.589,3-2.112,5.021-.27,2.65,2.414.789,6.4-1.974,9.343A11.482,11.482,0,0,1,78.7,68.256a11.482,11.482,0,0,1-4.718-3.312C71.215,62,69.354,58.015,72,55.6c2.022-1.842,4.2-.319,5.021.27A6.1,6.1,0,0,1,78.7,57.933Z" transform="translate(0.019 0)"/>
    </g>
    <g class="cls-82">
      <path class="cls-83" d="M78.7,69.29a3.031,3.031,0,0,1-1.855-.816,28.966,28.966,0,0,1-2.922-2.821,14.379,14.379,0,0,1-2.5-3.642,7.659,7.659,0,0,1-.866-3.887,3.314,3.314,0,0,1,1.415-2.509,3.493,3.493,0,0,1,3.071-.541,5.709,5.709,0,0,1,1.9,1.061l.021.015A6.61,6.61,0,0,1,78.7,58.334a6.659,6.659,0,0,1,1.737-2.209l.139-.1a5.507,5.507,0,0,1,1.9-1.051,3.239,3.239,0,0,1,2.959.645,3.569,3.569,0,0,1,1.374,2.672,7.814,7.814,0,0,1-.88,3.811,14.162,14.162,0,0,1-2.452,3.552C81.253,68,79.556,69.29,78.7,69.29Zm-4.666-14.15a3.335,3.335,0,0,0-1.95.649,3.112,3.112,0,0,0-1.327,2.356A7.449,7.449,0,0,0,71.6,61.92a14.163,14.163,0,0,0,2.465,3.587,28.811,28.811,0,0,0,2.9,2.8,2.855,2.855,0,0,0,1.732.773,3.119,3.119,0,0,0,1.591-.775,24.01,24.01,0,0,0,3.041-2.8,13.946,13.946,0,0,0,2.415-3.5,7.6,7.6,0,0,0,.859-3.7,3.365,3.365,0,0,0-1.294-2.52c-2-1.559-3.726-.238-4.618.41l-.141.1a6.906,6.906,0,0,0-1.759,2.324l-.094.223-.094-.223a6.922,6.922,0,0,0-1.759-2.3l-.021-.015A4.759,4.759,0,0,0,74.031,55.141Z" transform="translate(0.019 0)"/>
    </g>
    <path class="cls-84" d="M74.031,55.139a3.475,3.475,0,0,0-1.95.612,2.9,2.9,0,0,0-1.327,2.22,6.684,6.684,0,0,0,.846,3.557,13.351,13.351,0,0,0,2.465,3.38,28.155,28.155,0,0,0,2.9,2.639,2.944,2.944,0,0,0,1.732.728,3.213,3.213,0,0,0,1.591-.73,23.556,23.556,0,0,0,3.041-2.637,13.151,13.151,0,0,0,2.415-3.3,6.826,6.826,0,0,0,.859-3.49,3.118,3.118,0,0,0-1.294-2.375c-2-1.469-3.726-.224-4.618.386l-.141.1a6.539,6.539,0,0,0-1.759,2.19l-.094.21-.094-.21a6.56,6.56,0,0,0-1.759-2.165l-.021-.014A4.906,4.906,0,0,0,74.031,55.139Z" transform="translate(0.019 0)"/>
  </g>
</svg>
