<svg id="WE_HP_FootCarousel_US_240x277.svg" xmlns="http://www.w3.org/2000/svg" width="240" height="277" viewBox="0 0 240 277">
  <defs>
    <style>
      .cls-1 {
        fill: #46a0ff;
      }

      .cls-1, .cls-2, .cls-3, .cls-4 {
        fill-rule: evenodd;
      }

      .cls-2 {
        fill: #fff;
      }

      .cls-3 {
        fill: #c2e7fd;
      }

      .cls-4 {
        fill: red;
      }
    </style>
  </defs>
  <rect id="_720_x_416_container" data-name="720 x 416 container" width="479" height="277"/>
  <g id="outlined">
    <path id="we_can" data-name="we can" class="cls-1" d="M17.995,105.3h3.841l1.888-7.9,2.017,7.9H29.41l3.8-14.325H29.86l-2.017,8.268-2.1-8.268H22.286l-1.953,8.268-2.017-8.268H14.2Zm19.691,0h10.75v-3.415H42V99.548h5.214V96.37H42V94.287h6.437V90.979H37.686V105.3Zm32.162-5.477c-0.129,1.611-.772,2.384-1.931,2.384-1.438,0-2.06-1.181-2.06-3.93a8.176,8.176,0,0,1,.386-2.942,1.848,1.848,0,0,1,1.674-1.331,1.743,1.743,0,0,1,1.566,1.074,3.728,3.728,0,0,1,.3,1.654L73.86,96.5a6.635,6.635,0,0,0-.837-2.964,5.429,5.429,0,0,0-5.128-2.77,6.062,6.062,0,0,0-4.549,1.718,8.31,8.31,0,0,0-2,5.777c0,4.424,2.532,7.258,6.5,7.258a6,6,0,0,0,4.4-1.718,5.7,5.7,0,0,0,1.609-3.715Zm7.3,5.477h3.562l0.858-2.814H85.4L86.2,105.3h4.485L86.2,90.979H81.563Zm5.171-5.928,1.159-4.166,1.159,4.166H82.314ZM95.1,105.3h3.562V98.367a9.148,9.148,0,0,0-.343-2.341,15.613,15.613,0,0,0,.923,1.89c0.193,0.344.386,0.73,0.6,1.074l3.905,6.314h3.583V90.979h-3.583v4.252a21.648,21.648,0,0,0,.343,3.758,18.95,18.95,0,0,0-1.523-2.77l-3.326-5.24H95.1V105.3Z"/>
    <path id="we_will" data-name="we will" class="cls-2" d="M17.352,136.143h3.841l1.888-7.9,2.017,7.9h3.669l3.8-14.325H29.218L27.2,130.086l-2.1-8.268H21.643l-1.953,8.268-2.017-8.268h-4.12Zm19.691,0h10.75v-3.415H41.356v-2.341H46.57v-3.178H41.356v-2.084h6.437v-3.307H37.043v14.325Zm27.012,0H67.9l1.888-7.9,2.017,7.9H75.47l3.8-14.325H75.921L73.9,130.086l-2.1-8.268H68.346l-1.953,8.268-2.017-8.268h-4.12Zm19.691,0h4.4V121.818h-4.4v14.325Zm10.1,0h10.02v-3.5H98.242V121.818h-4.4v14.325Zm14.54,0H118.4v-3.5h-5.622V121.818h-4.4v14.325Z"/>
    <path id="we_are" data-name="we are" class="cls-3" d="M17.775,166.61h3.841l1.888-7.9,2.017,7.9H29.19l3.8-14.325H29.641l-2.017,8.269-2.1-8.269H22.066l-1.952,8.269L18.1,152.285h-4.12Zm19.691,0h10.75V163.2H41.779v-2.341h5.214v-3.178H41.779v-2.083h6.437v-3.308H37.466V166.61Zm23.064,0h3.562L64.95,163.8h3.841l0.794,2.813h4.484l-4.484-14.325H64.95Zm5.171-5.928,1.159-4.166,1.159,4.166H65.7Zm12.782,5.928h4.4v-5.455h1.373l2.1,5.455h4.849l-2.575-6.228c1.845-.924,2.532-1.933,2.532-3.737,0-2.727-1.953-4.36-5.193-4.36H78.483V166.61Zm4.4-8.526v-2.749H84.9a1.426,1.426,0,0,1,1.7,1.374c0,0.859-.665,1.375-1.845,1.375H82.882Zm13.5,8.526h10.75V163.2H100.7v-2.341h5.214v-3.178H100.7v-2.083h6.437v-3.308H96.385V166.61Z"/>
    <path id="change" class="cls-4" d="M129.385,160.629c-0.14,1.759-.843,2.6-2.109,2.6-1.57,0-2.249-1.29-2.249-4.292a8.944,8.944,0,0,1,.421-3.213,2.019,2.019,0,0,1,1.828-1.455,1.9,1.9,0,0,1,1.711,1.173,4.068,4.068,0,0,1,.328,1.806l4.453-.258a7.253,7.253,0,0,0-.914-3.237,5.931,5.931,0,0,0-5.6-3.025,6.621,6.621,0,0,0-4.968,1.876,9.076,9.076,0,0,0-2.18,6.309c0,4.832,2.766,7.928,7.1,7.928a6.548,6.548,0,0,0,4.8-1.876,6.221,6.221,0,0,0,1.758-4.058Zm9.729,5.981h4.8v-6.075h3.632v6.075h4.8V150.965h-4.8v5.77h-3.632v-5.77h-4.8V166.61Zm18.027,0h3.89l0.938-3.073h4.194l0.867,3.073h4.9l-4.9-15.645h-5.061Zm5.648-6.474,1.265-4.55,1.266,4.55h-2.531Zm13.949,6.474h3.89v-7.576a9.978,9.978,0,0,0-.375-2.557,17.027,17.027,0,0,0,1.008,2.064c0.211,0.375.422,0.8,0.656,1.173l4.265,6.9H190.1V150.965h-3.914v4.644a23.627,23.627,0,0,0,.375,4.1,20.651,20.651,0,0,0-1.664-3.026l-3.632-5.723h-4.523V166.61Zm33.053,0v-8.749h-7.03v3.307h2.577a1.96,1.96,0,0,1-2.109,1.971,2.244,2.244,0,0,1-1.968-1.1,5.992,5.992,0,0,1-.61-3.213c0-3.143.75-4.621,2.367-4.621,1.2,0,1.852.75,2.133,2.439l4.64-.445a7.041,7.041,0,0,0-1.031-2.7,6.282,6.282,0,0,0-5.671-2.767,6.693,6.693,0,0,0-5.578,2.368,9.258,9.258,0,0,0-1.9,5.911c0,4.691,2.789,7.834,6.913,7.834a5.016,5.016,0,0,0,4.289-1.876,7.758,7.758,0,0,1,.633,1.642h2.343Zm6.092,0h11.74v-3.73h-7.03v-2.556h5.7v-3.472h-5.7v-2.275h7.03v-3.612h-11.74V166.61Z"/>
    <path id="here_s_how" data-name="here’s how" class="cls-2" d="M78.467,235.05h2.085V231.3H83.4v3.75h2.085v-9.1H83.4V229.5H80.553v-3.546H78.467v9.1Zm10.21,0h6.5v-1.8H90.844v-1.991h3.407v-1.7H90.844v-1.869h4.334v-1.732h-6.5v9.1Zm9.133,0H99.95v-3.6h1.526l1.39,3.6h2.358l-1.677-4.01a2.531,2.531,0,0,0,.886-0.586,2.62,2.62,0,0,0,.681-1.773,2.785,2.785,0,0,0-.953-2.115,3.376,3.376,0,0,0-2.358-.613H97.81v9.1ZM99.95,229.9v-2.319H101.2a1.714,1.714,0,0,1,1.281.232,1.129,1.129,0,0,1,.437.9,1.21,1.21,0,0,1-.532,1,1.774,1.774,0,0,1-1.131.191H99.95Zm8.179,5.155h6.5v-1.8H110.3v-1.991H113.7v-1.7H110.3v-1.869h4.333v-1.732h-6.5v9.1Zm9.01-5.387h0.736l1.2-2.046v-1.664h-1.935v1.9h0.927Zm11.258-1.705a2.812,2.812,0,0,0-1.009-1.446,3.835,3.835,0,0,0-2.384-.7,3.366,3.366,0,0,0-2.385.791,2.723,2.723,0,0,0-.927,2.1,2.321,2.321,0,0,0,1.1,2.073,6.069,6.069,0,0,0,2.1.709c1.213,0.246,1.58.491,1.58,1.037,0,0.587-.558.955-1.458,0.955a1.669,1.669,0,0,1-1.84-1.269l-1.962.45a2.889,2.889,0,0,0,1.09,1.733,4.084,4.084,0,0,0,2.6.791,4.491,4.491,0,0,0,2.4-.6,2.915,2.915,0,0,0,1.335-2.415,2.548,2.548,0,0,0-1.172-2.155,6.266,6.266,0,0,0-2.385-.777c-0.981-.205-1.308-0.423-1.308-0.955,0-.5.45-0.805,1.24-0.805a1.446,1.446,0,0,1,1.581,1.078Zm7.785,7.092h2.085V231.3h2.848v3.75H143.2v-9.1h-2.085V229.5h-2.848v-3.546h-2.085v9.1Zm10.823-1.173a3.346,3.346,0,0,0,2.794,1.31,3.517,3.517,0,0,0,2.9-1.323,6.04,6.04,0,0,0-.027-6.725,3.247,3.247,0,0,0-2.807-1.323,3.524,3.524,0,0,0-2.889,1.323,5.466,5.466,0,0,0-1.022,3.328A5.606,5.606,0,0,0,147.005,233.877Zm2.848-.422c-1.117,0-1.676-.982-1.676-2.96a5.389,5.389,0,0,1,.4-2.155,1.315,1.315,0,0,1,1.281-.791c1.09,0,1.635.982,1.635,2.959S150.957,233.455,149.853,233.455Zm7.948,1.595h2.085l1.308-5.5,0.123-.519,1.5,6.015H164.9l2.289-9.1h-1.744l-1.295,5.551-0.068.3-0.068.273-1.526-6.124h-1.963l-1.485,6.124c-0.027-.123-0.068-0.246-0.068-0.273a1.67,1.67,0,0,1-.082-0.3l-1.254-5.551h-2.166Zm-80.247,3.22v-1.6h91.084v1.6H77.554Z"/>
  </g>
</svg>
