<svg xmlns="http://www.w3.org/2000/svg" viewBox="0 0 507.044 265.515"><defs><style>.cls-3{fill:#003764}</style></defs><g id="Layer_2" data-name="Layer 2"><g id="Layer_1-2" data-name="Layer 1"><circle cx="138.705" cy="96.745" r="96.745" fill="#7fbde8"/><path d="M423.6 190.129h-38.8L302.8 82.5v107.629h-45.916V3.363h41.61l79.166 104.025V3.363h45.94z" fill="#007fc4"/><path class="cls-3" d="M277.833 265.017h-8.12l-.1-.146-8.472-12.017h-7.157v12.163h-6.817v-35.578h15.895c4.344 0 7.909 1.24 10.31 3.586a10.873 10.873 0 012.994 7.772v.1c0 5.286-2.858 9.091-8.062 10.757zm-23.85-18.281h8.63c4.152 0 6.835-2.156 6.835-5.491v-.1c0-3.507-2.445-5.439-6.885-5.439h-8.58zM310.018 265.017h-26.806v-35.578h26.556v6.167h-19.74v8.388h17.5v6.169h-17.5v8.685h19.99zM354.438 265.266h-5.823l-8.33-24.357-8.327 24.357h-5.773l-.081-.23-12.319-35.6h7.36l8.079 25.108 8.322-25.209h5.679l8.322 25.209 8.079-25.108h7.161zM402.03 265.017h-7.23l-3.539-8.424h-16.047l-3.589 8.424H364.6l15.65-35.827h6.133l.09.206zm-24.28-14.544h10.972l-5.508-12.747zM437.819 265.017H429.7l-.1-.146-8.472-12.017h-7.157v12.163h-6.816v-35.578h15.9c4.343 0 7.908 1.24 10.309 3.586a10.87 10.87 0 013 7.772v.1c0 5.286-2.859 9.091-8.063 10.757zm-23.851-18.281h8.63c4.153 0 6.836-2.156 6.836-5.491v-.1c0-3.507-2.445-5.439-6.885-5.439h-8.581zM456.549 265.017H443.2v-35.578h13.352c10.944 0 18.886 7.439 18.886 17.689v.1c-.003 10.307-7.945 17.789-18.889 17.789zm-6.537-6.268h6.537c7.041 0 11.771-4.59 11.771-11.422v-.1c0-6.783-4.84-11.52-11.771-11.52h-6.537zM494.241 265.515a21.9 21.9 0 01-14.785-5.67l-.247-.222 4.126-4.907.263.227c3.557 3.081 6.885 4.454 10.793 4.454 3.546 0 5.837-1.588 5.837-4.044v-.1c0-2.2-1.139-3.506-7.611-5-7.524-1.818-11.879-4.159-11.879-10.751v-.1c0-6.159 5.04-10.462 12.256-10.462a19.806 19.806 0 0112.876 4.46l.251.2-3.679 5.187-.281-.21c-3.175-2.369-6.206-3.521-9.267-3.521-3.194 0-5.339 1.524-5.339 3.794v.1c0 2.39 1.218 3.528 8.06 5.149 8.119 1.977 11.429 5.033 11.429 10.553v.1c0 6.539-5.026 10.763-12.803 10.763z"/><g><path class="cls-3" d="M22.236 247.413L8.913 229.907l-.373-.469H0v35.577h9.647v-18.641l13.844 18.173.372.468h8.021v-35.577h-9.648v17.975zM122.899 241.572l-7.215-12.134H97.669l-7.804 21.021-7.5-20.218-.291-.803H71.345l14.065 35.049.313.765h8.102l12.839-31.987 11.307 17.822v13.928h9.741v-14.071l13.741-21.506h-11.208l-7.346 12.134zM146.644 229.438h9.741v35.577h-9.741zM181.031 242.77c-5.715-1.461-6.224-2.023-6.224-3.256 0-1.009 1.191-1.661 3.033-1.661 2.36 0 4.946 1 7.9 3.046l1.013.709 5.136-7.445-.891-.72a20.36 20.36 0 00-13.07-4.479c-7.548 0-12.82 4.65-12.82 11.309 0 7.657 5.389 9.653 11.9 11.312 5.751 1.479 5.751 2.238 5.751 3.117 0 1.758-2.719 1.894-3.553 1.894-3.115 0-6.009-1.189-9.111-3.746l-.948-.767-5.848 7 .893.792a22.258 22.258 0 0014.873 5.616c8.259 0 13.388-4.441 13.388-11.592.002-7.167-5.487-9.584-11.422-11.129zM195.635 229.438v9.173h10.083v26.404h9.742v-26.404h10.076v-9.173h-29.901zM59.357 229.2H51l-14.511 34.109-.721 1.706h10.108l3.025-7.429h12.365l3.026 7.429h10.3l-14.923-35.058zm-7.835 20.66l3.561-8.69 3.562 8.69z"/></g></g></g></svg>