<svg width="32" xmlns="http://www.w3.org/2000/svg" viewBox="0 0 32 55" height="55">
 <defs>
  <style>.cls-1 {
        fill-rule: evenodd;
      }</style>
 </defs>
 <path transform="translate(-535 -4542)" class="cls-1" d="m567 4547.9a5.933 5.933 0 0 0 -5.926 -5.94h-20.14a5.933 5.933 0 0 0 -5.926 5.94v43.12a5.933 5.933 0 0 0 5.926 5.94h20.148a5.933 5.933 0 0 0 5.926 -5.94v-43.12zm-21.355-3.45h11.9a.956 .956 0 0 1 0 1.75h-11.9a.956 .956 0 0 1 0 -1.75m6.361 50.56a2.593 2.593 0 1 1 1.929 -1.93 2.59 2.59 0 0 1 -1.929 1.93m11.043-8.33a1.569 1.569 0 0 1 -1.573 1.57h-20.55a1.569 1.569 0 0 1 -1.573 -1.57v-37.21a1.569 1.569 0 0 1 1.573 -1.57h20.557a1.569 1.569 0 0 1 1.573 1.57v37.21z"/>
</svg>
