<svg viewBox="0 0 208 37.2" xmlns="http://www.w3.org/2000/svg" class="sitewide-mo9nlj"><polygon fill="#003764" points="33.5 1.9 33.5 35.6 50.3 35.6 50.3 29.6 42.3 29.6 42.3 1.9 "></polygon><path d="M64.6 29.6h1c6.2 0 6.2-7.3 6.2-11.7 0-3.9-0.6-10-6.4-10h-0.7V29.6zM55.8 1.9h9.6c10.8 0 15.9 6.4 15.9 16.3 0 9.6-4.2 17.4-14.9 17.4H55.8V1.9z" fill="#003764"></path><polygon fill="#003764" points="112.1 1.9 112.1 22.9 112 22.9 102 1.9 93.8 1.9 93.8 35.6 101.7 35.6 101.7 14 101.8 14 112.1 35.6 120 35.6 120 1.9 "></polygon><path d="M138.1 9.1h0.3l2.3 13.7h-4.9L138.1 9.1zM132.6 1.9l-8.2 33.7h9.3l1.1-6.8h6.8l1.2 6.8h9.4l-8.1-33.7C144.1 1.9 132.6 1.9 132.6 1.9z" fill="#003764"></path><polygon fill="#003764" points="168.2 1.9 165 21.3 164.8 21.3 161.6 1.9 152.4 1.9 160.5 35.6 169.3 35.6 177.4 1.9 "></polygon><polygon fill="#003764" points="199 1.9 193.6 11.8 189.2 1.9 180.5 1.9 189.2 18.9 189.2 35.6 198 35.6 198 18.9 206.8 1.9 "></polygon><path d="M14.8 29.9c-4.2 0-5.4-5.7-5.4-11.2 0-5.5 1.3-11.2 5.4-11.2 4.2 0 5.4 5.7 5.4 11.2C20.3 24.2 19 29.9 14.8 29.9M14.8 1.2C4.4 1.2 1.2 10.1 1.2 18.8c0 8.6 3.2 17.5 13.6 17.5 10.4 0 13.6-8.9 13.6-17.5C28.4 10.1 25.2 1.2 14.8 1.2" fill="#003764"></path></svg>