<svg class="logo_gap sitewide-xgiatb ebtjssz0" viewBox="0 0 50.9 38.4" xmlns="http://www.w3.org/2000/svg"><path class="logo_gap--text" d="M45.3.3h-6.8v.6h1.8v35.3c0 .8-.3 1-1.4 1.1h-.4v.6h7.7v-.7h-.8c-1.3 0-1.8-.6-1.8-1.7V21.3h2.2c3.3 0 5.1-1.6 5.1-3.7V4.2c.1-2-1.5-3.9-5.6-3.9zm2.4 18.1a2 2 0 0 1-2.2 2.2h-1.9V.9h1.7a2.42 2.42 0 0 1 2.4 2.4zM30.7 35.5L26.3.3h-2.9l-4.2 34.9c-.2 1.3-.4 2-2.4 2.1v.6h5.1v-.7c-1.5 0-2.1-.8-2-1.7l1.7-14.2h4l1.8 14.6c0 .9-.1 1.2-1.2 1.3h-.5v.6h6.9v-.6h-.2a1.69 1.69 0 0 1-1.7-1.7zm-8.9-14.8l1.8-15.1 2 15.1zM9.2.8c0 .6-.4.6-.7.4A7.37 7.37 0 0 0 4.8 0C2.8 0 0 .9 0 4.7v27.9c0 4.9 2.6 5.8 5.1 5.8 2 0 2.9-.9 3.7-1.2.4-.2.9.2.9.9h.8V21.4h1.6v-.7h-7v.7h2v14.2A2.14 2.14 0 0 1 5 37.8a2.12 2.12 0 0 1-2-2.2v-32C3 2.7 3.2.7 4.7.7c1.2 0 2.1 1.1 2.5 2.8a52.7 52.7 0 0 1 .7 7.9c0 .6.2.8.9.8h1.3V.3h-.9v.5z" fill="#FFFFFF"></path></svg>