<svg data-testid="Banana-Republic-logo-svg" viewBox="0 0 347.8 26.5" xmlns="http://www.w3.org/2000/svg" class="sitewide-mo9nlj"><path d="M18.1 17.9c0 5-6.1 5.3-8.8 5.3 -1.2 0-2-0.1-2-0.1v-10c0 0 2.1-0.1 3.4-0.1C14.2 13.1 18.1 14 18.1 17.9M22.1 18.3c0-5.5-8.3-6-8.3-6s5.7-1.3 5.7-5.3c0-4.5-6.4-5.2-9.3-5.2h-8C3 2.1 3.4 2.5 3.4 3.3v19.8c0 0.7-0.4 1.2-1.2 1.5h9.1C20.3 24.6 22.1 20.9 22.1 18.3M15.9 7.2c0 4.2-4.7 4.5-6.8 4.5 -1 0-1.8-0.1-1.8-0.1V3.2c0 0 1-0.1 2.8-0.1C12.9 3.2 15.9 4.3 15.9 7.2" fill="#FFFFFF"></path><path d="M281.1 17.9c0 5-6.1 5.3-8.8 5.3 -1.2 0-2-0.1-2-0.1v-10c0 0 2.1-0.1 3.4-0.1C277.2 13.1 281.1 14 281.1 17.9M285.1 18.3c0-5.5-8.3-6-8.3-6s5.7-1.3 5.7-5.3c0-4.5-6.4-5.2-9.2-5.2h-8c0.8 0.3 1.2 0.7 1.2 1.5v19.8c0 0.7-0.4 1.2-1.2 1.5h9.1C283.3 24.6 285.1 20.9 285.1 18.3M278.9 7.2c0 4.2-4.7 4.5-6.8 4.5 -1 0-1.8-0.1-1.8-0.1V3.2c0 0 1-0.1 2.8-0.1C275.9 3.2 278.9 4.3 278.9 7.2" fill="#FFFFFF"></path><path d="M49.6 24.6c-1.5-0.5-1.8-0.9-2.1-1.6C46.8 21.7 36 1.3 36 1.3S25.3 21.7 24.6 23c-0.4 0.6-0.8 1-1.9 1.6h5.1c-1.1-0.3-1.2-0.9-0.9-1.6 0.2-0.4 1.3-2.6 2.6-5.1h10.9c1.3 2.6 2.5 4.7 2.7 5.1 0.3 0.8 0 1.2-1 1.6H49.6zM39.6 16.4h-9.4c1.8-3.6 4.7-9.4 4.7-9.4S37.5 12.2 39.6 16.4" fill="#FFFFFF"></path><path d="M74.4 3.3v21.9c0 0-20-19.4-20-19.7v17.6c0 0.7 0.4 1.2 1.2 1.5h-4.2c0.6-0.3 1.1-0.8 1.1-1.5V4.6c0-1 0-1-0.5-1.6 -0.5-0.4-1-0.9-1.9-1.2h5.8l16.6 16.3V3.3c0-0.8-0.5-1.2-1.1-1.5h4.2C74.9 2.1 74.4 2.5 74.4 3.3" fill="#FFFFFF"></path><path d="M103.8 24.6c-1.5-0.5-1.8-0.9-2.1-1.6 -0.7-1.3-11.5-21.7-11.5-21.7S79.5 21.7 78.8 23c-0.4 0.6-0.8 1-1.9 1.6H82c-1.1-0.3-1.2-0.9-0.9-1.6 0.2-0.4 1.3-2.6 2.6-5.1h10.9c1.3 2.6 2.5 4.7 2.7 5.1 0.3 0.8 0 1.2-1 1.6L103.8 24.6 103.8 24.6zM93.9 16.4h-9.4c1.8-3.6 4.7-9.4 4.7-9.4S91.7 12.2 93.9 16.4" fill="#FFFFFF"></path><path d="M128.9 3.3v21.9c0 0-20-19.4-20-19.7v17.6c0 0.7 0.4 1.2 1.2 1.5h-4.2c0.6-0.3 1.1-0.8 1.1-1.5V4.6c0-1 0-1-0.5-1.6 -0.5-0.4-1-0.9-1.9-1.2h5.8l16.6 16.3V3.3c0-0.8-0.5-1.3-1.1-1.5h4.2C129.3 2.1 128.9 2.5 128.9 3.3" fill="#FFFFFF"></path><path d="M157.8 24.6c-1.5-0.5-1.8-0.9-2.1-1.6 -0.7-1.3-11.5-21.7-11.5-21.7S133.5 21.7 132.8 23c-0.4 0.6-0.8 1-1.9 1.6h5.1c-1.1-0.3-1.2-0.9-0.9-1.6 0.2-0.4 1.3-2.6 2.6-5.1h10.9c1.3 2.6 2.5 4.7 2.7 5.1 0.3 0.8 0 1.2-1 1.6H157.8zM147.8 16.4h-9.4c1.8-3.6 4.7-9.4 4.7-9.4S145.7 12.1 147.8 16.4" fill="#FFFFFF"></path><path d="M195 24.6c0 0-1.8-0.5-2.7-1.3 -1.8-1.6-6.3-7.7-6.3-7.7 -0.6-0.7-1.8-2.2-4.1-2.5 2.6-0.2 6.1-2 6.1-5.6 0-2.1-1.3-5.6-9.7-5.6h-7.9c0.6 0.3 1.1 0.7 1.1 1.5v19.8c0 0.7-0.5 1.2-1.1 1.5h6.3c-0.6-0.3-1.2-0.8-1.2-1.5v-9.2h2.4c2.2 0 3.1 1.4 4.1 2.8 1.5 1.9 3 3.9 5.1 6.4 0.6 0.7 1.8 1.5 3.4 1.5L195 24.6 195 24.6zM184.4 7.5c0 3.5-3.1 5-6.3 5 -1.1 0-2.4-0.1-2.4-0.1V3.2c0 0 1.3-0.1 3.1-0.1C183.2 3.1 184.4 5.9 184.4 7.5" fill="#FFFFFF"></path><path d="M214.3 24.6h-16.9c0.8-0.3 1.3-0.7 1.3-1.5l0-19.8c0-0.8-0.5-1.2-1.2-1.5h15.8l0.1 2.6c-0.8-0.8-1.7-1.2-3.5-1.2h-7.2v8h6.8c0.6 0 1.3-0.5 1.5-0.9v3.3c-0.2-0.4-0.9-0.9-1.5-0.9h-6.8v10.5h4.9c4.5 0 6.1 0 7.7-2.1L214.3 24.6z" fill="#FFFFFF"></path><path d="M237.3 8c0-2.6-1.5-6.2-9.9-6.2h-8c0.6 0.3 1.2 0.7 1.2 1.5l0 19.8c0 0.7-0.5 1.2-1.2 1.5h6.2c-0.7-0.3-1.2-0.8-1.2-1.5v-8.9c3.2 1 7 0.3 8.3-0.2C234.1 13.5 237.3 11.7 237.3 8M233.7 8.1c0 4.6-4.9 5.2-7.1 5.2 -0.9 0-1.7-0.1-2-0.2V3.2c0 0 0.9-0.1 2.8-0.1C231.5 3.1 233.7 5 233.7 8.1" fill="#FFFFFF"></path><path d="M261.3 3.3v14.1c0 5.5-4.4 7.6-9.7 7.6 -4.6 0-10.5-1.8-10.5-7.5V3.3c0-0.8-0.7-1.3-1.3-1.5h6.7c-0.7 0.3-1.4 0.7-1.4 1.5v14.2c0 2.3 1 5.9 6.9 5.9 5.6 0 7.4-2.8 7.4-5.9l0-14.2c0-0.8-0.4-1.3-1.1-1.5h4.1C261.8 2.1 261.3 2.6 261.3 3.3" fill="#FFFFFF"></path><path d="M305.4 24.6h-16.7c0.7-0.3 1.2-0.8 1.2-1.5V3.3c0-0.8-0.5-1.2-1.2-1.5h6.3c-0.7 0.3-1.1 0.7-1.1 1.5v19.9h4.5c5 0 6.5-0.1 7.9-2.1L305.4 24.6z" fill="#FFFFFF"></path><path d="M309.9 24.6c0.7-0.3 1.1-0.8 1.1-1.5V3.3c0-0.8-0.5-1.2-1.1-1.5h6.2c-0.6 0.3-1.1 0.7-1.1 1.5v19.8c0 0.7 0.5 1.2 1.1 1.5L309.9 24.6 309.9 24.6z" fill="#FFFFFF"></path><path d="M346.2 22.6c-3.5 1.7-7.4 2.3-10.6 2.3 -8.3 0-15.6-4.6-15.6-11.7 0-5.7 5.4-11.8 16.1-11.8 3.5 0 6.6 0.8 9.9 1.9 0 0 0.5 5.1 0.4 5 -2.7-5-7.9-5.5-9.9-5.5 -8 0-12.1 4.5-12.1 9.9 0 4.8 3.3 10.6 12.1 10.6 1.9 0 7-0.1 10.2-5.4C346.6 17.9 346.2 22.6 346.2 22.6" fill="#FFFFFF"></path></svg>