<svg class="logo_at sitewide-mo9nlj" viewBox="0 0 211.8 32.5" xmlns="http://www.w3.org/2000/svg"><path d="M58.3 20.2l-3.5-8 -3.7 8H58.3zM59.8 23.6H49.7L47 29.3h-3.8L54.9 4.2l11.3 25.1h-3.9L59.8 23.6z" fill="#FFFFFF"></path><polygon fill="#FFFFFF" points="80.6 9 80.6 29.3 77 29.3 77 9 71.6 9 71.6 5.7 86 5.7 86 9 "></polygon><polygon fill="#FFFFFF" points="99 14.9 109.2 14.9 109.2 5.7 112.8 5.7 112.8 29.3 109.2 29.3 109.2 18.3 99 18.3 99 29.3 95.4 29.3 95.4 5.7 99 5.7 "></polygon><polygon fill="#FFFFFF" points="128.3 5.7 128.3 25.9 135.2 25.9 135.2 29.3 124.7 29.3 124.7 5.7 "></polygon><polygon fill="#FFFFFF" points="157.9 9 148.4 9 148.4 14.7 157.6 14.7 157.6 18 148.4 18 148.4 26 157.9 26 157.9 29.3 144.8 29.3 144.8 5.7 157.9 5.7 "></polygon><polygon fill="#FFFFFF" points="175.3 9 175.3 29.3 171.8 29.3 171.8 9 166.3 9 166.3 5.7 180.8 5.7 180.8 9 "></polygon><path d="M198 12.2l3.5 8h-7.2L198 12.2zM186.4 29.3h3.8l2.6-5.7H203l2.5 5.7h3.9L198.1 4.2 186.4 29.3z" fill="#FFFFFF"></path><path d="M17.5 1.2c-8.3 0-15 6.7-15 15 0 8.3 6.7 15 15 15 8.3 0 15-6.7 15-15C32.5 8 25.7 1.2 17.5 1.2zM25.6 20.2l1 4.8 -9-8.8 3.6 8.2 -2.3 4.3 -1.3-12.5 -2.5 8.6 -4.6 1.8 7.1-10.4 -7.4 5 -4.7-1.5 12.1-3.4 -8.9-1L6.1 11l11.5 5.2 -6.2-6.5 0.7-4.9 5.5 11.4L17 7.3 20.7 4l-3.1 12.2L22.9 9l4.9-0.2 -10.2 7.4 8.7-2.1 3.9 3.1 -12.6-0.9L25.6 20.2z" data-testid="Athleta-logo-symbol-path" fill="#FFFFFF"></path></svg>