<svg id="_121516_TOD16_12_1862_US_SMSAcquisition_Social.svg" data-name="121516_TOD16_12_1862_US_SMSAcquisition_Social.svg" xmlns="http://www.w3.org/2000/svg" width="598.031" height="33.938" viewBox="0 0 598.031 33.938">
  <defs>
    <style>
      .cls-1 {
        fill-rule: evenodd;
      }
    </style>
  </defs>
  <g id="Icons">
    <path id="snapchat" class="cls-1" d="M822.124,22.979h1.438c0.216,0.021.431,0.045,0.647,0.062a14.667,14.667,0,0,1,3.66.747,15.876,15.876,0,0,1,9.68,8.873,15.057,15.057,0,0,1,1.247,4.983c0.018,0.221.041,0.442,0.061,0.663v1.373a1.776,1.776,0,0,0-.028.191,14.174,14.174,0,0,1-.429,2.913,15.855,15.855,0,0,1-8.942,10.79,14.948,14.948,0,0,1-5.264,1.373c-0.222.018-.443,0.041-0.665,0.061h-1.372c-0.07-.01-0.139-0.025-0.209-0.029a15.4,15.4,0,0,1-3.541-.6,16.063,16.063,0,0,1-10.525-9.673,15.406,15.406,0,0,1-.992-4.367c-0.017-.221-0.04-0.442-0.061-0.663V38.274a1.518,1.518,0,0,0,.029-0.175,14.358,14.358,0,0,1,.375-2.692,15.817,15.817,0,0,1,5.8-9.06,15.639,15.639,0,0,1,8.466-3.307C821.7,23.022,821.914,23,822.124,22.979Zm7.963,22.654c0.061-.011.13-0.022,0.2-0.038,0.644-.151,1.29-0.293,1.929-0.462a1.737,1.737,0,0,0,.531-0.274,0.2,0.2,0,0,0-.012-0.36,1.931,1.931,0,0,0-.418-0.213,7.6,7.6,0,0,1-3.117-2.162,3.425,3.425,0,0,1-.906-1.617,1.019,1.019,0,0,1,.719-1.338c0.19-.065.384-0.117,0.576-0.176a2.258,2.258,0,0,0,.881-0.443,0.447,0.447,0,0,0-.185-0.826,0.751,0.751,0,0,0-.35-0.009,3.477,3.477,0,0,0-.464.15,1.526,1.526,0,0,1-1.262-.071,0.259,0.259,0,0,1-.161-0.267c0.006-1.187,0-2.375,0-3.562a2.622,2.622,0,0,0-.167-0.958,4.528,4.528,0,0,0-2.845-2.71,6.528,6.528,0,0,0-3.329-.256,4.941,4.941,0,0,0-3.238,1.84,3.488,3.488,0,0,0-.8,2.258c0.021,1.154,0,2.309,0,3.463,0,0.27-.006.282-0.274,0.342a1.941,1.941,0,0,1-1.323-.218,0.746,0.746,0,0,0-.882.159,0.36,0.36,0,0,0-.028.539,1.435,1.435,0,0,0,.453.3c0.437,0.193.887,0.355,1.323,0.549a0.89,0.89,0,0,1,.582.85,1.563,1.563,0,0,1-.1.554,6.716,6.716,0,0,1-1.86,2.544,4.487,4.487,0,0,1-2.088,1.085,1.51,1.51,0,0,0-.407.157,0.173,0.173,0,0,0-.033.317,1.472,1.472,0,0,0,.341.219,8.236,8.236,0,0,0,2.119.616,0.325,0.325,0,0,1,.315.27c0.053,0.255.093,0.513,0.13,0.77s0.06,0.26.3,0.207a8.536,8.536,0,0,1,1.084-.216,3.361,3.361,0,0,1,2.465.743,6.2,6.2,0,0,0,1.2.8,4.34,4.34,0,0,0,4.155-.2c0.4-.227.774-0.5,1.16-0.758a2.522,2.522,0,0,1,1.176-.488,5.037,5.037,0,0,1,2.014.219c0.257,0.086.3,0.068,0.359-.2C829.949,46.393,830.011,46.023,830.087,45.633Z" transform="translate(-392.75 -22)"/>
    <path id="tumblr" class="cls-1" d="M770.339,22.053a16.369,16.369,0,1,1-16.393,16.353A16.382,16.382,0,0,1,770.339,22.053Zm0.808,11.275V27.855h-3.054c-0.011.039-.021,0.071-0.028,0.1s-0.009.067-.013,0.1a8.005,8.005,0,0,1-.7,2.492,5.954,5.954,0,0,1-3.522,3.051,0.178,0.178,0,0,0-.152.2c0.007,0.915,0,1.829,0,2.744,0,0.049.007,0.1,0.012,0.163h2.377v0.217c0,2.341,0,4.681,0,7.022,0,0.533.025,1.067,0.071,1.6a3.316,3.316,0,0,0,.735,1.854,5.227,5.227,0,0,0,2.1,1.524,9.107,9.107,0,0,0,4.794.425,11.157,11.157,0,0,0,3.086-.981A0.211,0.211,0,0,0,777,48.137c0-1.017,0-2.034,0-3.051,0-.049,0-0.1-0.006-0.14a0.09,0.09,0,0,0-.029-0.008l-0.162.094a5.9,5.9,0,0,1-2.849.927,3.192,3.192,0,0,1-1.979-.5,1.508,1.508,0,0,1-.709-1.13c-0.055-.558-0.107-1.119-0.111-1.679-0.013-1.914,0-3.829,0-5.744V36.7h5.122V33.328h-5.126Z" transform="translate(-392.75 -22)"/>
    <path id="instagram" class="cls-1" d="M719.506,23.06a16.44,16.44,0,1,1-.221,32.878A16.44,16.44,0,0,1,719.506,23.06Zm8.574,16.6c0-1.282.027-2.564-.006-3.844a4.8,4.8,0,0,0-5.034-4.995q-3.684-.055-7.37,0a4.816,4.816,0,0,0-5.085,5.108q-0.051,3.77,0,7.541A4.729,4.729,0,0,0,715.4,48.53c2.6,0.117,5.211.11,7.81,0a4.754,4.754,0,0,0,4.862-5.027C728.107,42.227,728.08,40.945,728.08,39.663Zm-1.541.011c0,1.327.033,2.656-.01,3.982a2.971,2.971,0,0,1-2.865,3.139c-2.834.13-5.682,0.136-8.517,0.021a3.066,3.066,0,0,1-3.029-3.318c-0.043-2.556-.037-5.113,0-7.669a3.128,3.128,0,0,1,3.232-3.443c2.642-.1,5.294-0.1,7.936,0a3.213,3.213,0,0,1,3.252,3.454C726.566,37.117,726.54,38.4,726.539,39.674Zm-7.072-4.537a4.5,4.5,0,0,0-4.686,4.3,4.554,4.554,0,1,0,9.1.294A4.554,4.554,0,0,0,719.467,35.137Zm6.021-.325a3.847,3.847,0,0,0-1.5-.912,2.723,2.723,0,0,0-.981,1.02,2.719,2.719,0,0,0,1.073.887A3.82,3.82,0,0,0,725.488,34.812Zm-3.255,4.821a3,3,0,0,1-3.024,2.967,3.086,3.086,0,0,1-2.883-2.991,2.953,2.953,0,0,1,3.054-2.918A2.9,2.9,0,0,1,722.233,39.633Z" transform="translate(-392.75 -22)"/>
    <path id="pinterest" class="cls-1" d="M668.88,22.986A16.014,16.014,0,1,0,684.894,39,16.014,16.014,0,0,0,668.88,22.986Zm1.361,19.944a2.9,2.9,0,0,1-2.475-1.263s-0.59,2.336-.713,2.786a10.837,10.837,0,0,1-1.831,3.317,0.135,0.135,0,0,1-.241-0.058,11.416,11.416,0,0,1,.031-3.852c0.194-.823,1.3-5.524,1.3-5.524a3.894,3.894,0,0,1-.324-1.6c0-1.5.871-2.623,1.955-2.623a1.357,1.357,0,0,1,1.367,1.522,21.805,21.805,0,0,1-.894,3.6,1.568,1.568,0,0,0,1.6,1.953c1.921,0,3.215-2.467,3.215-5.39,0-2.221-1.495-3.885-4.218-3.885a4.8,4.8,0,0,0-4.991,4.855,2.923,2.923,0,0,0,.669,1.988,0.491,0.491,0,0,1,.146.565c-0.049.187-.16,0.636-0.206,0.814a0.35,0.35,0,0,1-.508.254c-1.417-.578-2.076-2.129-2.076-3.873,0-2.879,2.428-6.332,7.245-6.332,3.87,0,6.417,2.8,6.417,5.807C675.711,39.96,673.5,42.931,670.241,42.931Z" transform="translate(-392.75 -22)"/>
    <path id="twitter" class="cls-1" d="M616.88,22.986A16.014,16.014,0,1,0,632.894,39,16.014,16.014,0,0,0,616.88,22.986Zm6.982,13.11c0.007,0.155.01,0.31,0.01,0.466A10.245,10.245,0,0,1,608.1,45.193a7.275,7.275,0,0,0,5.334-1.492,3.606,3.606,0,0,1-3.366-2.5,3.6,3.6,0,0,0,1.627-.062,3.605,3.605,0,0,1-2.89-3.532c0-.016,0-0.03,0-0.046a3.585,3.585,0,0,0,1.632.451,3.606,3.606,0,0,1-1.115-4.81,10.227,10.227,0,0,0,7.425,3.764,3.6,3.6,0,0,1,6.139-3.286,7.2,7.2,0,0,0,2.287-.874A3.613,3.613,0,0,1,623.59,34.8a7.2,7.2,0,0,0,2.07-.567A7.314,7.314,0,0,1,623.862,36.1Z" transform="translate(-392.75 -22)"/>
    <path id="facebook" class="cls-1" d="M564.88,21.986A16.014,16.014,0,1,0,580.894,38,16.014,16.014,0,0,0,564.88,21.986ZM568.389,38h-2.253V46.16H562.76V38h-1.688V35.186h1.688V33.5c0-2.294.952-3.659,3.658-3.659h2.254v2.813h-1.408c-1.054,0-1.124.393-1.124,1.127l0,1.408h2.552Z" transform="translate(-392.75 -22)"/>
  </g>
  <g id="Copy">
    <path id="FOLLOW_US" data-name="FOLLOW US" class="cls-1" d="M395.313,39.122h4.168v-2.1h-4.168V33.893h4.479V31.784H392.75V43.92h2.563v-4.8ZM414,33.2a5.631,5.631,0,0,0-4.332-1.61,5.709,5.709,0,0,0-4.348,1.6,6.472,6.472,0,0,0-1.517,4.628,6.561,6.561,0,0,0,1.513,4.648,6.616,6.616,0,0,0,8.671,0,6.536,6.536,0,0,0,1.512-4.632A6.555,6.555,0,0,0,414,33.2Zm-6.676,1.565a2.766,2.766,0,0,1,2.344-1.034q3.1,0,3.1,4.1t-3.118,4.092a2.746,2.746,0,0,1-2.335-1.029,5.022,5.022,0,0,1-.782-3.063A5,5,0,0,1,407.32,34.768Zm20.459,9.152V41.795H422.8V31.784h-2.605V43.92h7.587Zm11.873,0V41.795h-4.983V31.784h-2.6V43.92h7.587ZM453.587,33.2a5.63,5.63,0,0,0-4.331-1.61,5.713,5.713,0,0,0-4.349,1.6,6.471,6.471,0,0,0-1.516,4.628,6.561,6.561,0,0,0,1.512,4.648,6.616,6.616,0,0,0,8.671,0,6.531,6.531,0,0,0,1.513-4.632A6.551,6.551,0,0,0,453.587,33.2Zm-6.676,1.565a2.768,2.768,0,0,1,2.345-1.034q3.1,0,3.1,4.1t-3.117,4.092A2.747,2.747,0,0,1,446.9,40.9a5.022,5.022,0,0,1-.781-3.063A5.006,5.006,0,0,1,446.911,34.768Zm27.963-2.984h-2.563l-1.562,6.624q-0.151.6-.337,1.565t-0.268,1.614q-0.093-.672-0.269-1.61t-0.294-1.394l-1.79-6.8h-2.462l-1.79,6.8q-0.159.548-.34,1.54t-0.231,1.465q-0.185-1.345-.6-3.179L460.8,31.784h-2.562l3.134,12.136h2.957l1.656-6.358q0.108-.423.31-1.415t0.252-1.44q0.034,0.365.257,1.432t0.315,1.407l1.663,6.375h2.966Zm17.617,0.141v7.327a3.066,3.066,0,0,1-.569,2.047,2.313,2.313,0,0,1-1.832.652,2.362,2.362,0,0,1-1.868-.648,3.046,3.046,0,0,1-.565-2.035V31.925h-2.566v7.728a4.179,4.179,0,0,0,1.3,3.245,5.19,5.19,0,0,0,3.637,1.186,6.29,6.29,0,0,0,2.691-.533,3.908,3.908,0,0,0,1.74-1.534,4.436,4.436,0,0,0,.6-2.33V31.925h-2.566Zm14.2,6.682A6.5,6.5,0,0,0,504.358,37a15.634,15.634,0,0,1-1.632-.841,1.715,1.715,0,0,1-.5-0.484,1.07,1.07,0,0,1-.158-0.587,1.1,1.1,0,0,1,.39-0.878,1.669,1.669,0,0,1,1.121-.336,5.234,5.234,0,0,1,1.25.156,12.259,12.259,0,0,1,1.607.55l0.831-1.977a12.551,12.551,0,0,0-1.8-.623,7.217,7.217,0,0,0-1.807-.221,4.574,4.574,0,0,0-3.018.911,3.083,3.083,0,0,0-1.092,2.5,3.122,3.122,0,0,0,.332,1.477,3.722,3.722,0,0,0,.888,1.108,7.481,7.481,0,0,0,1.67.993,15.157,15.157,0,0,1,1.573.812,2.218,2.218,0,0,1,.586.529,1.041,1.041,0,0,1,.2.628,1.089,1.089,0,0,1-.453.952,2.23,2.23,0,0,1-1.3.32,6.223,6.223,0,0,1-1.557-.221A14.291,14.291,0,0,1,499.408,41v2.363a7.816,7.816,0,0,0,3.439.722,5.184,5.184,0,0,0,3.292-.935,3.086,3.086,0,0,0,1.184-2.56A3.125,3.125,0,0,0,506.692,38.608Z" transform="translate(-392.75 -22)"/>
    <path id="_oldnavystyle" data-name="#oldnavystyle" class="cls-1" d="M887.821,36.963V35.62H886.28l0.5-2.614H885.4l-0.5,2.614h-1.271l0.494-2.614h-1.405l-0.5,2.614h-1.855v1.342h1.618l-0.3,1.49h-1.778v1.323h1.528l-0.475,2.607h1.38l0.488-2.607h1.245l-0.5,2.607h1.412l0.5-2.607h1.906V38.452h-1.656l0.3-1.49h1.791Zm-4.442,0h1.258l-0.3,1.49h-1.258Zm9.307,0.215a1.474,1.474,0,0,1,2.266,0,2.968,2.968,0,0,1,.347,1.6,3.057,3.057,0,0,1-.344,1.615,1.23,1.23,0,0,1-1.126.543,1.252,1.252,0,0,1-1.14-.546,3.017,3.017,0,0,1-.349-1.612A2.966,2.966,0,0,1,892.686,37.178Zm4.192-.369a3.005,3.005,0,0,0-1.213-1.291,3.621,3.621,0,0,0-1.823-.45,3.37,3.37,0,0,0-2.581.976,3.838,3.838,0,0,0-.918,2.736,4.364,4.364,0,0,0,.424,1.978,3.012,3.012,0,0,0,1.213,1.3,3.6,3.6,0,0,0,1.823.453,3.35,3.35,0,0,0,2.574-.989,3.86,3.86,0,0,0,.924-2.742A4.337,4.337,0,0,0,896.878,36.808Zm5.642-4.419h-1.958v9.993h1.958V32.39Zm8,9.062h0.083l0.379,0.931h1.5V32.39h-1.964v2.3a8.044,8.044,0,0,0,.147,1.432h-0.064a2.341,2.341,0,0,0-2.067-1.053,2.387,2.387,0,0,0-2.025.986,4.524,4.524,0,0,0-.735,2.752,4.522,4.522,0,0,0,.722,2.723,2.332,2.332,0,0,0,1.987.983,2.242,2.242,0,0,0,2.035-1.06h0Zm-2.395-1.031a2.809,2.809,0,0,1-.366-1.59,2.963,2.963,0,0,1,.363-1.615,1.15,1.15,0,0,1,1.018-.555,1.322,1.322,0,0,1,1.158.5,2.933,2.933,0,0,1,.356,1.657V39.03a2.532,2.532,0,0,1-.382,1.483,1.325,1.325,0,0,1-1.1.437A1.2,1.2,0,0,1,908.13,40.421ZM922.8,37.7a2.721,2.721,0,0,0-.648-1.956,2.51,2.51,0,0,0-1.9-.677,3.066,3.066,0,0,0-1.306.267,2.068,2.068,0,0,0-.9.787h-0.11l-0.263-.918h-1.5v7.18h1.958V39a3.417,3.417,0,0,1,.365-1.821,1.323,1.323,0,0,1,1.188-.549,1,1,0,0,1,.879.389,2.015,2.015,0,0,1,.276,1.166v4.194H922.8V37.7Zm9.584,4.682V37.6a2.326,2.326,0,0,0-.771-1.914,3.419,3.419,0,0,0-2.214-.629,5.827,5.827,0,0,0-2.747.649l0.648,1.323a5.083,5.083,0,0,1,2.022-.52,0.977,0.977,0,0,1,1.117,1.092v0.315l-1.246.039a4.628,4.628,0,0,0-2.41.6,1.894,1.894,0,0,0-.8,1.686,2.269,2.269,0,0,0,.594,1.683,2.2,2.2,0,0,0,1.627.591,3.285,3.285,0,0,0,1.364-.241,2.883,2.883,0,0,0,1.017-.864h0.052l0.378,0.976h1.368Zm-1.945-2.736a1.375,1.375,0,0,1-.408,1.04,1.5,1.5,0,0,1-1.088.392,0.791,0.791,0,0,1-.95-0.828,0.968,0.968,0,0,1,.417-0.861,2.424,2.424,0,0,1,1.271-.308l0.758-.026v0.591Zm9.32,2.736L942.5,35.2H940.45l-1.38,4.091a6.388,6.388,0,0,0-.289,1.471h-0.039a7.268,7.268,0,0,0-.288-1.471L937.067,35.2h-2.048l2.735,7.18h2.009Zm7.228-.051-0.116.353a2.057,2.057,0,0,1-.606.96,1.392,1.392,0,0,1-.909.318,3.345,3.345,0,0,1-.77-0.084v1.554a4.546,4.546,0,0,0,1,.109,3.005,3.005,0,0,0,1.807-.559,3.5,3.5,0,0,0,1.191-1.683l3.036-8.1h-2.1l-1.329,4.039a5.5,5.5,0,0,0-.276,1.246h-0.038a5.594,5.594,0,0,0-.238-1.246L946.285,35.2h-2.144Zm12.119-3a1.881,1.881,0,0,0-.578-0.681,5.694,5.694,0,0,0-1.232-.636,7.586,7.586,0,0,1-1.223-.572,0.551,0.551,0,0,1-.279-0.456q0-.469.866-0.469a3.173,3.173,0,0,1,.957.148q0.468,0.148,1.007.379l0.591-1.413a5.963,5.963,0,0,0-2.523-.565,3.609,3.609,0,0,0-2.1.523,1.706,1.706,0,0,0-.741,1.48,2.249,2.249,0,0,0,.176.941,1.808,1.808,0,0,0,.565.677,5.814,5.814,0,0,0,1.217.642q0.577,0.244.924,0.427a2.048,2.048,0,0,1,.488.328,0.515,0.515,0,0,1,.141.376q0,0.617-1.066.616a4.977,4.977,0,0,1-1.2-.173,6.79,6.79,0,0,1-1.229-.43v1.618a5.043,5.043,0,0,0,1.033.311,7.206,7.206,0,0,0,1.335.106,3.788,3.788,0,0,0,2.295-.578,1.978,1.978,0,0,0,.767-1.683A2.094,2.094,0,0,0,959.11,39.332Zm5.761,1.419a0.765,0.765,0,0,1-.234-0.617V36.674h2.009V35.2h-2.009V33.674h-1.252L962.82,35.19l-1.078.655v0.828h0.937v3.462a2.583,2.583,0,0,0,.536,1.782,2.2,2.2,0,0,0,1.711.594,4.392,4.392,0,0,0,1.8-.328V40.726a4.244,4.244,0,0,1-1.233.225A0.924,0.924,0,0,1,964.871,40.752Zm6.769,1.58-0.116.353a2.057,2.057,0,0,1-.606.96,1.392,1.392,0,0,1-.909.318,3.345,3.345,0,0,1-.77-0.084v1.554a4.546,4.546,0,0,0,1,.109,3.005,3.005,0,0,0,1.807-.559,3.51,3.51,0,0,0,1.191-1.683l3.036-8.1h-2.1l-1.329,4.039a5.5,5.5,0,0,0-.276,1.246h-0.038a5.594,5.594,0,0,0-.238-1.246L970.934,35.2H968.79ZM980.9,32.39h-1.958v9.993H980.9V32.39Zm7.658,4.467a1.635,1.635,0,0,1,.379,1.121h-2.748a1.824,1.824,0,0,1,.405-1.121,1.24,1.24,0,0,1,.975-0.395A1.283,1.283,0,0,1,988.554,36.857Zm0.712,5.53a4.583,4.583,0,0,0,1.1-.382V40.488a6.131,6.131,0,0,1-1.207.43,5.375,5.375,0,0,1-1.226.135,1.737,1.737,0,0,1-1.3-.469,1.885,1.885,0,0,1-.5-1.3h4.628V38.33a3.28,3.28,0,0,0-.847-2.4,3.16,3.16,0,0,0-2.369-.867,3.209,3.209,0,0,0-2.493.986,3.983,3.983,0,0,0-.9,2.791,3.626,3.626,0,0,0,.975,2.71,3.7,3.7,0,0,0,2.709.957A6.91,6.91,0,0,0,989.266,42.386Z" transform="translate(-392.75 -22)"/>
  </g>
</svg>
