<?xml version="1.0" encoding="UTF-8"?> 
<svg xmlns="http://www.w3.org/2000/svg" xmlns:xlink="http://www.w3.org/1999/xlink" width="700" height="700" viewBox="0 0 700 700">
  <defs>
    <filter id="Path_1" x="77.736" y="483.432" width="546.448" height="64.336" filterUnits="userSpaceOnUse">
      <feOffset dy="3" input="SourceAlpha"/>
      <feGaussianBlur stdDeviation="3" result="blur"/>
      <feFlood flood-opacity="0.161"/>
      <feComposite operator="in" in2="blur"/>
      <feComposite in="SourceGraphic"/>
    </filter>
  </defs>
  <g id="_231225_35-M0006_W_DP_NewArrivals_Hero_svg" data-name="231225_35-M0006_W_DP_NewArrivals_Hero_svg" transform="translate(-10 -50)">
    <g id="outlined_text" data-name="outlined text">
      <rect id="Hero_1" data-name="Hero 1" width="700" height="700" transform="translate(10 50)" fill="none" opacity="0.002"/>
      <g transform="matrix(1, 0, 0, 1, 10, 50)" filter="url(#Path_1)">
        <path id="Path_1-2" data-name="Path 1" d="M72.736,51H85.024V26.424L104.224,51H115.04V6.2H102.752V29.88L84.32,6.2H72.736Zm51.52,0h36.352V40.44H136.544v-7.1h21.5V23.544h-21.5V16.7h23.744V6.2H124.256Zm56,.32h10.816L200.1,25.528l8.96,25.792h10.816L234.848,6.2H221.984l-7.808,25.92-8.64-26.048H194.848l-8.64,26.048L178.4,6.2H165.28ZM256.544,51h12.992l3.2-8.064H290.08L293.28,51h13.312L287.52,5.88H275.552Zm19.84-17.728L281.44,20.6l4.992,12.672ZM312.224,51H324.64V37.432h5.5L339.168,51H353.44L342.752,35.384c5.568-2.368,9.216-6.912,9.216-13.824v-.128A13.988,13.988,0,0,0,348,11c-3.008-3.008-7.744-4.8-14.592-4.8H312.224ZM324.64,27.7V16.888h8.192c4.1,0,6.72,1.792,6.72,5.376v.128c0,3.264-2.5,5.312-6.656,5.312ZM359.52,51h12.416V37.432h5.5L386.464,51h14.272L390.048,35.384c5.568-2.368,9.216-6.912,9.216-13.824v-.128A13.988,13.988,0,0,0,395.3,11c-3.008-3.008-7.744-4.8-14.592-4.8H359.52Zm12.416-23.3V16.888h8.192c4.1,0,6.72,1.792,6.72,5.376v.128c0,3.264-2.5,5.312-6.656,5.312Zm35.2,23.3h12.416V6.2H407.136Zm36.48.32h11.52L473.312,6.2H459.744L449.5,34.552,439.328,6.2H425.5ZM469.024,51h12.992l3.2-8.064H502.56L505.76,51h13.312L500,5.88H488.032Zm19.84-17.728L493.92,20.6l4.992,12.672ZM524.7,51h34.112V40.12h-21.7V6.2H524.7Zm58.368.768c10.88,0,18.112-5.44,18.112-14.592v-.128c0-8.384-6.4-11.712-16.64-13.952-6.272-1.408-7.808-2.3-7.808-4.352v-.128c0-1.664,1.472-2.88,4.48-2.88a21.993,21.993,0,0,1,12.544,4.416l6.208-8.768c-4.864-3.9-10.816-5.952-18.432-5.952-10.752,0-17.344,6.016-17.344,14.336V19.9c0,9.152,7.36,11.84,16.9,14.016,6.144,1.472,7.616,2.432,7.616,4.352v.128c0,1.92-1.792,3.072-5.184,3.072a23.209,23.209,0,0,1-14.528-5.376l-6.912,8.256C567.648,49.272,575.136,51.768,583.072,51.768Z" transform="translate(14 484)" fill="#fff"/>
      </g>
      <g id="XL_Natural_Width_Button_18pt" data-name="XL Natural Width Button 18pt" transform="translate(279.999 637.896)">
        <g id="Solid-Dark" transform="translate(6 -3.896)">
          <g id="Group_7985" data-name="Group 7985">
            <g id="Rounded_Rectangle_1" data-name="Rounded Rectangle 1" transform="translate(-6 3.896)" fill="#fff" stroke="#fff" stroke-linejoin="round" stroke-width="2">
              <rect width="158.138" height="44.308" rx="8" stroke="none"/>
              <rect x="1" y="1" width="156.138" height="42.308" rx="7" fill="none"/>
            </g>
            <path id="Path_2" data-name="Path 2" d="M-51.969.17C-49.4.17-47.6-1.156-47.6-3.519v-.034c0-2.074-1.36-2.941-3.774-3.57-2.057-.527-2.567-.782-2.567-1.564v-.034c0-.578.527-1.037,1.53-1.037a5.584,5.584,0,0,1,3.094,1.173l1.36-1.972a6.889,6.889,0,0,0-4.42-1.513c-2.431,0-4.165,1.428-4.165,3.587v.034c0,2.363,1.547,3.026,3.944,3.638,1.989.51,2.4.85,2.4,1.513v.034c0,.7-.646,1.122-1.717,1.122a5.459,5.459,0,0,1-3.553-1.445l-1.547,1.853A7.573,7.573,0,0,0-51.969.17ZM-43.282,0h2.618V-4.777h4.828V0h2.618V-11.9h-2.618v4.709h-4.828V-11.9h-2.618Zm20.74.2A6.154,6.154,0,0,0-16.2-5.95v-.034a6.1,6.1,0,0,0-6.307-6.12A6.154,6.154,0,0,0-28.849-5.95v.034A6.1,6.1,0,0,0-22.542.2Zm.034-2.414a3.615,3.615,0,0,1-3.6-3.74v-.034a3.559,3.559,0,0,1,3.57-3.706,3.615,3.615,0,0,1,3.6,3.74v.034A3.559,3.559,0,0,1-22.508-2.21ZM-11.832,0h2.618V-3.57h1.989C-4.556-3.57-2.414-5-2.414-7.752v-.034c0-2.431-1.717-4.114-4.556-4.114h-4.862Zm2.618-5.9V-9.537h2.023c1.309,0,2.125.629,2.125,1.8V-7.7A1.843,1.843,0,0,1-7.14-5.9ZM8.7,0h2.584V-7.565L17.051,0h2.227V-11.9H16.694v7.327L11.118-11.9H8.7Zm21.25.2A6.154,6.154,0,0,0,36.3-5.95v-.034a6.1,6.1,0,0,0-6.307-6.12A6.154,6.154,0,0,0,23.647-5.95v.034A6.1,6.1,0,0,0,29.954.2Zm.034-2.414a3.615,3.615,0,0,1-3.6-3.74v-.034a3.559,3.559,0,0,1,3.57-3.706,3.615,3.615,0,0,1,3.6,3.74v.034A3.559,3.559,0,0,1,29.988-2.21ZM43.129.085h2.278L48.093-7.7,50.779.085h2.278L57.12-11.9H54.383L51.918-3.842l-2.669-8.092H47.005L44.336-3.842,41.871-11.9H39.066Z" transform="translate(73.018 31)" fill="#003764"/>
          </g>
        </g>
      </g>
    </g>
  </g>
</svg>
